<svg width="24" height="24" viewBox="0 0 24 24" fill="none" xmlns="http://www.w3.org/2000/svg">
<g id="remix-icons/line/system/alarm-line">
<path id="Vector" d="M12.0001 22.0001C10.8182 22.0001 9.64785 21.7673 8.55592 21.315C7.46399 20.8627 6.47184 20.1998 5.63611 19.364C4.80038 18.5283 4.13745 17.5362 3.68515 16.4442C3.23286 15.3523 3.00007 14.182 3.00007 13.0001C3.00007 11.8182 3.23286 10.6479 3.68515 9.55592C4.13745 8.46399 4.80038 7.47184 5.63611 6.63611C6.47184 5.80038 7.46399 5.13745 8.55592 4.68515C9.64785 4.23286 10.8182 4.00007 12.0001 4.00007C14.387 4.00007 16.6762 4.94828 18.364 6.63611C20.0519 8.32394 21.0001 10.6131 21.0001 13.0001C21.0001 15.387 20.0519 17.6762 18.364 19.364C16.6762 21.0519 14.387 22.0001 12.0001 22.0001ZM12.0001 20.0001C12.9193 20.0001 13.8296 19.819 14.6789 19.4672C15.5281 19.1154 16.2998 18.5998 16.9498 17.9498C17.5998 17.2998 18.1154 16.5281 18.4672 15.6789C18.819 14.8296 19.0001 13.9193 19.0001 13.0001C19.0001 12.0808 18.819 11.1706 18.4672 10.3213C18.1154 9.47201 17.5998 8.70033 16.9498 8.05032C16.2998 7.40031 15.5281 6.8847 14.6789 6.53291C13.8296 6.18113 12.9193 6.00007 12.0001 6.00007C10.1436 6.00007 8.36308 6.73757 7.05032 8.05032C5.73757 9.36308 5.00007 11.1436 5.00007 13.0001C5.00007 14.8566 5.73757 16.6371 7.05032 17.9498C8.36308 19.2626 10.1436 20.0001 12.0001 20.0001ZM13.0001 13.0001H16.0001V15.0001H11.0001V8.00007H13.0001V13.0001ZM1.74707 6.28207L5.28207 2.74707L6.69707 4.16107L3.16007 7.69707L1.74707 6.28207ZM18.7171 2.74707L22.2531 6.28207L20.8391 7.69707L17.3031 4.16107L18.7181 2.74707H18.7171Z" fill="white" fill-opacity="0.9"/>
</g>
</svg>
