<svg xmlns="http://www.w3.org/2000/svg" xmlns:xlink="http://www.w3.org/1999/xlink" width="95" height="82" viewBox="0 0 95 82">
  <defs>
    <clipPath id="clip-path">
      <rect id="사각형_1981" data-name="사각형 1981" width="95" height="82" transform="translate(0 -6)" fill="#fcc0cc"/>
    </clipPath>
  </defs>
  <g id="마스크_그룹_13" data-name="마스크 그룹 13" transform="translate(0 6)" clip-path="url(#clip-path)">
    <g id="그룹_1266" data-name="그룹 1266" transform="translate(4.485 -2)">
      <g id="그룹_1265" data-name="그룹 1265" transform="translate(9.009 0)">
        <g id="그룹_1264" data-name="그룹 1264">
          <g id="그룹_1263" data-name="그룹 1263">
            <g id="그룹_1262" data-name="그룹 1262">
              <g id="그룹_1261" data-name="그룹 1261">
                <path id="패스_3486" data-name="패스 3486" d="M139.04,168.379l-2.332-2.968a2.591,2.591,0,0,0-3.608-.459h0a2.59,2.59,0,0,0-.73,3.249l3.217,6.227Z" transform="translate(-120.513 -161.043)" fill="#ecb0a9"/>
                <path id="패스_3487" data-name="패스 3487" d="M163.9,256.527l9.85,28.4-20.309,7.847-7.838-23.113Z" transform="translate(-127.509 -208.682)" fill="#ecb0a9"/>
                <g id="그룹_1260" data-name="그룹 1260">
                  <path id="패스_3488" data-name="패스 3488" d="M130.874,222.182l-19.305-7.135a5.273,5.273,0,0,1-3.118-6.775L126,160.87a5.274,5.274,0,0,1,6.775-3.118l19.305,7.136a5.273,5.273,0,0,1,3.118,6.774l-17.549,47.4A5.274,5.274,0,0,1,130.874,222.182Z" transform="translate(-108.121 -157.424)" fill="#120e3f"/>
                  <rect id="사각형_1978" data-name="사각형 1978" width="26.563" height="40.452" transform="matrix(0.938, 0.347, -0.347, 0.938, 18.594, 8.054)" fill="#fff"/>
                  <path id="패스_3489" data-name="패스 3489" d="M166.824,170.619a.318.318,0,0,0-.218.6l8.815,3.258a.329.329,0,0,0,.243-.01.318.318,0,0,0-.023-.588l-8.815-3.258Z" transform="translate(-138.263 -164.239)" fill="#fff"/>
                  <path id="패스_3490" data-name="패스 3490" d="M137.08,268.433l-.052-.018a2.433,2.433,0,0,0-3.079,1.54,2.434,2.434,0,1,0,4.619,1.54h0a2.433,2.433,0,0,0-1.487-3.061Z" transform="translate(-121.415 -214.765)" fill="#fff"/>
                  <g id="그룹_1259" data-name="그룹 1259" transform="translate(8.88 16.493)">
                    <g id="그룹_1256" data-name="그룹 1256" transform="translate(0 16.984)">
                      <rect id="사각형_1979" data-name="사각형 1979" width="22.645" height="6.606" rx="2" transform="translate(2.311 0) rotate(20.475)" fill="#404fc3"/>
                      <path id="패스_7697" data-name="패스 7697" d="M1.609,2.118V0H1.425V2.118ZM1,1.573V.218H0V1.573ZM.817,1.42H.187V.371h.63Zm1.367,0V1.57H3.463v.562h.187V1.418H3.027V1.023h.865V.867H3.577A3.279,3.279,0,0,0,3.652.116H2.212V.269h1.25a2.614,2.614,0,0,1-.07.6H1.98v.155h.863v.395ZM5.9.853C5.573.817,5.14.6,5.13.3h.681V.15H4.25V.3h.686c-.01.3-.419.519-.766.555l.085.155A1.085,1.085,0,0,0,5.031.536a1.153,1.153,0,0,0,.78.473ZM5.12,2.118V1.359h.867V1.2H4.076v.155h.86v.758ZM7.9,1.262V0H7.718V1.262ZM7.451.991A.792.792,0,0,1,6.9.305V.087H6.712V.313a.857.857,0,0,1-.557.749l.114.148A1.052,1.052,0,0,0,6.812.635a1.031,1.031,0,0,0,.531.5ZM7.9,2.118V1.379H6.489v.153H7.718v.586Zm2.023-.393c0-.245-.269-.395-.712-.395s-.71.15-.71.395.267.39.71.39S9.925,1.968,9.925,1.725ZM8.3.567h.475a.729.729,0,0,1-.536.591l.1.141A.93.93,0,0,0,8.871.814a.954.954,0,0,0,.509.424l.095-.145A.651.651,0,0,1,8.966.567h.468V.417H8.3Zm.916.921c.32,0,.521.087.521.237s-.2.235-.521.235-.521-.085-.521-.235S8.893,1.488,9.213,1.488Zm1.01-.722V.611H9.9V0H9.712V1.313H9.9V.766ZM8.573.221h.591V.063H8.573Z" transform="translate(7.254 4.2) rotate(20.475)" fill="#fff"/>
                    </g>
                    <g id="그룹_1258" data-name="그룹 1258" transform="translate(3.229 0)">
                      <path id="사각형_1980" data-name="사각형 1980" d="M2.57,0H20.076a2.57,2.57,0,0,1,2.57,2.57V12.935A2.569,2.569,0,0,1,20.076,15.5H2.569A2.569,2.569,0,0,1,0,12.935V2.57A2.57,2.57,0,0,1,2.57,0Z" transform="translate(5.424 0) rotate(20.475)" fill="#e3f3ff"/>
                      <g id="그룹_1257" data-name="그룹 1257" transform="translate(8.351 5.726)">
                        <path id="패스_3491" data-name="패스 3491" d="M160.427,210.364a5.125,5.125,0,1,1-3.009-6.594A5.125,5.125,0,0,1,160.427,210.364Z" transform="translate(-150.499 -203.445)" fill="#404fc3"/>
                        <path id="패스_3492" data-name="패스 3492" d="M156.507,212.91l1.307,1.984,3.152-1.917" transform="translate(-153.607 -208.34)" fill="#404fc3" stroke="#fff" stroke-linecap="round" stroke-linejoin="round" stroke-width="1.831"/>
                      </g>
                    </g>
                  </g>
                </g>
                <path id="패스_3493" data-name="패스 3493" d="M181.85,235.832l4.219-8.444a25.247,25.247,0,0,0,2.284-6.933l2.59-19.764a.761.761,0,0,0-.791-.889c-1.87.093-6.1,2.013-6.471,9.592l-2.54,6.889s-10.657,10.172-4.95,21.792Z" transform="translate(-142.459 -179.342)" fill="#ecb0a9"/>
                <path id="패스_3494" data-name="패스 3494" d="M134.411,192.461,132,191.035s-1.191-.609-2.516,1.248.491,4.452.491,4.452l.274-.766,1.089.822a2.655,2.655,0,0,0,3.572-.341h0A2.655,2.655,0,0,0,134.411,192.461Z" transform="translate(-118.922 -174.758)" fill="#ecb0a9"/>
                <path id="패스_3495" data-name="패스 3495" d="M128.964,210.835l-3.51-2.283s-1.19-.609-2.516,1.248.491,4.452.491,4.452l.274-.766,2.192,1.679a2.655,2.655,0,0,0,3.571-.341h0A2.655,2.655,0,0,0,128.964,210.835Z" transform="translate(-115.534 -183.819)" fill="#ecb0a9"/>
                <path id="패스_3496" data-name="패스 3496" d="M120.987,227.233l-3.771-1.349s-1.448-.308-1.969,1.737c0,0-.644,1.328,1.461,3.68l.427-1.194,2.5.9a2,2,0,0,0,2.579-1.269h0A2,2,0,0,0,120.987,227.233Z" transform="translate(-111.759 -192.824)" fill="#ecb0a9"/>
              </g>
              <path id="패스_3497" data-name="패스 3497" d="M180.14,310.827,173.382,291.6a1.928,1.928,0,0,0-2.423-1.194l-22.512,7.409a1.928,1.928,0,0,0-1.231,2.43l3.278,10.579Z" transform="translate(-128.293 -226.156)" fill="#d26e7b"/>
            </g>
          </g>
        </g>
      </g>
    </g>
  </g>
</svg>
