<svg xmlns="http://www.w3.org/2000/svg" xmlns:xlink="http://www.w3.org/1999/xlink" width="96" height="34" viewBox="0 0 96 34">
  <defs>
    <radialGradient id="radial-gradient" cx="0.561" cy="0.339" r="0.854" gradientTransform="translate(-0.019) scale(1.037 1)" gradientUnits="objectBoundingBox">
      <stop offset="0" stop-color="#ee402f"/>
      <stop offset="0.59" stop-color="#be1f24"/>
      <stop offset="1" stop-color="#7a1315"/>
    </radialGradient>
    <radialGradient id="radial-gradient-2" cx="0.66" cy="0.884" r="0.795" gradientTransform="translate(0.08) scale(0.84 1)" gradientUnits="objectBoundingBox">
      <stop offset="0" stop-color="#e6e7e8"/>
      <stop offset="1" stop-color="#899196"/>
    </radialGradient>
  </defs>
  <g id="logo_eugene" transform="translate(0 -0.049)">
    <rect id="사각형_5320" data-name="사각형 5320" width="96" height="34" transform="translate(0 0.049)" fill="red" opacity="0"/>
    <g id="그룹_5083" data-name="그룹 5083" transform="translate(10.07 5.796)">
      <path id="패스_17445" data-name="패스 17445" d="M589.629,31.509c-.168.41-.916.7-1.277,1.084-.892.892-.651,2.554.241,2.867.843.265.048-1.253.843-1.928.843-.626,3.036.506,1.277,1.976a3.992,3.992,0,0,0-.723.65c-1.421,1.446.892,3.061,2.578,2.843,1.518-.168,1.928-1.157,2.121-2.578.192-1.277-.048-1.711.145-2.65.626-1.759,2.7-.265,2.988.6,0-.1.024-.192.024-.289a5.491,5.491,0,0,0-5.494-5.494,5.427,5.427,0,0,0-4.265,2.072C589.244,29.943,589.991,30.641,589.629,31.509Z" transform="translate(-520.765 -28.593)" fill="url(#radial-gradient)"/>
      <path id="패스_17446" data-name="패스 17446" d="M594.084,40.764a5.462,5.462,0,0,0,2.747-4.458c-.265-.771-1.952-2.048-2.747-1.06v5.518Zm0-6.481V32.548a1.954,1.954,0,0,1,.458.217c.53.385.747.988.482,1.325A.8.8,0,0,1,594.084,34.282Zm-.241,1.421c-.193.939.048,1.374-.145,2.65-.193,1.421-.6,2.41-2.12,2.578-1.687.217-4-1.4-2.578-2.843a3.99,3.99,0,0,1,.723-.65c1.759-1.47-.434-2.6-1.277-1.976-.795.675,0,2.193-.843,1.928-.892-.313-1.132-1.976-.241-2.867.361-.386,1.108-.675,1.277-1.084.361-.867-.386-1.566-1.542-.843a5.471,5.471,0,0,0,6.988,8.168V35.246a2.039,2.039,0,0,0-.241.458Zm.241-3.156v1.735a2.1,2.1,0,0,1-.458-.241c-.53-.386-.747-.964-.482-1.325A.8.8,0,0,1,594.084,32.548Z" transform="translate(-519.774 -30.523)" fill="url(#radial-gradient-2)"/>
      <path id="패스_17447" data-name="패스 17447" d="M452.582,46.723h0a4.8,4.8,0,0,0,2.723-.7,1.736,1.736,0,0,0,.868-1.47,1.813,1.813,0,0,0-.868-1.518,4.8,4.8,0,0,0-2.723-.7h0v.723h0a2.219,2.219,0,0,1,1.421.434,1.29,1.29,0,0,1,.506,1.06A1.246,1.246,0,0,1,454,45.591a2.365,2.365,0,0,1-1.421.41h0v.723Zm0,1.4v-.8h4.7v.8h-1.807v2.53h-1.663v-2.53Zm-2.747-5.084h0a1.813,1.813,0,0,0-.867,1.518,1.737,1.737,0,0,0,.867,1.47,4.719,4.719,0,0,0,2.747.7V46a2.343,2.343,0,0,1-1.446-.41,1.225,1.225,0,0,1-.482-1.036,1.269,1.269,0,0,1,.482-1.06,2.2,2.2,0,0,1,1.446-.434v-.723a4.719,4.719,0,0,0-2.747.7Zm2.747,4.289v.8h-1.325v2.53h-1.687v-2.53h-1.832v-.8Z" transform="translate(-447.739 -35.76)" fill="#be1f24"/>
      <path id="패스_17448" data-name="패스 17448" d="M485.8,42.791v5.566h1.759V42.791Z" transform="translate(-467.585 -35.996)" fill="#be1f24"/>
      <path id="패스_17449" data-name="패스 17449" d="M470.315,43.093v.8h1.976v.048a2.432,2.432,0,0,1-2.1,2.458v.916A3.18,3.18,0,0,0,473.375,45l.072-.12.048.12a3.178,3.178,0,0,0,3.18,2.313v-.916a2.432,2.432,0,0,1-2.1-2.458v-.048h2v-.8Z" transform="translate(-459.448 -36.154)" fill="#be1f24"/>
      <path id="패스_17450" data-name="패스 17450" d="M472.409,53.515v2.072a.956.956,0,0,0,.868.892H480.6v-.8h-6.53V53.515Z" transform="translate(-460.602 -41.588)" fill="#be1f24"/>
      <path id="패스_17451" data-name="패스 17451" d="M496.526,56.768V54.84H492.6v-.771h9.542v.771h-3.879v1.928Z" transform="translate(-471.129 -41.877)" fill="#be1f24"/>
      <path id="패스_17452" data-name="패스 17452" d="M562.379,43.093v.771H566.6v3.4h1.663V43.985a.986.986,0,0,0-.94-.892Z" transform="translate(-507.515 -36.154)" fill="#be1f24"/>
      <path id="패스_17453" data-name="패스 17453" d="M532.194,42.841v2h1.374v.868h-1.374v5.2h-1.735V42.841Z" transform="translate(-490.871 -36.022)" fill="#be1f24"/>
      <path id="패스_17454" data-name="패스 17454" d="M564.34,54.237V52.816h1.374v-1.35h2.41v-.771h-6.65v.771h2.554v.988h-1.373v1.614h0a.989.989,0,0,0,.916.94H570.7v-.771Z" transform="translate(-507.042 -40.117)" fill="#be1f24"/>
      <path id="패스_17455" data-name="패스 17455" d="M573.254,47.84v.8h1.856v.53h1.735V43.093H575.11V47.84Z" transform="translate(-513.185 -36.154)" fill="#be1f24"/>
      <path id="패스_17456" data-name="패스 17456" d="M495.846,46.659V45.575h6.072v-.8h-6.072v-.891h6.409v-.8h-8.1v3.374a1.014,1.014,0,0,0,.916.988h7.18v-.795Z" transform="translate(-471.943 -36.154)" fill="#be1f24"/>
      <path id="패스_17457" data-name="패스 17457" d="M545.117,56.486h0a6.49,6.49,0,0,0,2.843-.53c.6-.313.916-.7.916-1.132a1.406,1.406,0,0,0-.916-1.181,6.641,6.641,0,0,0-2.843-.53h0v.6h0a2.489,2.489,0,0,1,1.349.313.962.962,0,0,1,.482.795.861.861,0,0,1-.482.747,2.489,2.489,0,0,1-1.349.313h0Zm-2.868-2.843h0a1.365,1.365,0,0,0-.916,1.181c0,.434.289.819.916,1.132a6.538,6.538,0,0,0,2.868.53v-.6a2.469,2.469,0,0,1-1.374-.313h0a.862.862,0,0,1-.482-.747.963.963,0,0,1,.482-.795,2.524,2.524,0,0,1,1.374-.313v-.6A6.539,6.539,0,0,0,542.25,53.643Z" transform="translate(-496.541 -41.378)" fill="#be1f24"/>
      <path id="패스_17458" data-name="패스 17458" d="M540.645,43.093v.867h2.626l-.048.073c-.6,1.2-2.482,1.253-2.795,1.277V46.1c2.6,0,3.687-.819,4.168-1.494l.048-.072.024.072c.482.675,1.566,1.494,4.169,1.494V45.31c-.313-.024-2.192-.072-2.8-1.277l-.048-.073h2.626v-.867Z" transform="translate(-496.069 -36.154)" fill="#be1f24"/>
      <path id="패스_17459" data-name="패스 17459" d="M539.572,50.695v.8H548.8v-.8Z" transform="translate(-495.622 -40.117)" fill="#be1f24"/>
      <path id="패스_17460" data-name="패스 17460" d="M520.153,43.936v-.072h1.687v-.771h-6.12v.771h1.711v.072c0,3.614-1.711,4.265-2.024,4.337v.819c2.7,0,3.373-4.1,3.373-4.1h0s.675,4.1,3.374,4.1v-.819C521.839,48.2,520.153,47.551,520.153,43.936Z" transform="translate(-483.022 -36.154)" fill="#be1f24"/>
    </g>
  </g>
</svg>
