<svg xmlns="http://www.w3.org/2000/svg" width="96" height="34" viewBox="0 0 96 34">
  <g id="logo_mirae" transform="translate(0 -0.059)">
    <rect id="사각형_5320" data-name="사각형 5320" width="96" height="34" transform="translate(0 0.059)" fill="red" opacity="0"/>
    <g id="그룹_5084" data-name="그룹 5084" transform="translate(12.009 3.21)">
      <path id="패스_17461" data-name="패스 17461" d="M38,448.828c-.065.438-.953,6.639-1.036,7.218h1.987c.062-.438.952-6.641,1.036-7.218Z" transform="translate(-27.486 -439.603)" fill="#00427a"/>
      <path id="패스_17462" data-name="패스 17462" d="M69.672,448.828c-.063.438-.952,6.639-1.035,7.218H73.3c.044-.317.163-1.154.221-1.559H70.7l.191-1.334h2.562c.045-.309.154-1.06.21-1.454H71.1l.19-1.316h2.748c.047-.316.166-1.153.224-1.555Z" transform="translate(-42.887 -439.603)" fill="#00427a"/>
      <path id="패스_17463" data-name="패스 17463" d="M23.154,452.963s1.662-3.8,1.793-4.135h2.5c0,.5-.333,6.7-.329,7.218h-1.8l.3-5.055s-2.026,4.732-2.161,5.055H22.034l-.639-5.055c-.046.23-.722,3.6-1.09,5.055H18.512c.188-.644,1.559-6.848,1.666-7.218h2.41Z" transform="translate(-18.512 -439.603)" fill="#00427a"/>
      <path id="패스_17464" data-name="패스 17464" d="M59.328,454.585s.129,1.175.173,1.461h1.907c-.106-.6-1.146-6.8-1.224-7.218H57.772c-.139.3-2.893,6.507-3.219,7.218h1.935c.1-.244.595-1.46.595-1.46Zm-1.7-1.491,1.138-2.678.372,2.678Z" transform="translate(-36.038 -439.603)" fill="#00427a"/>
      <path id="패스_17465" data-name="패스 17465" d="M45.738,450.182h.443a1.077,1.077,0,0,1,.853.276.876.876,0,0,1,.158.722s-.062.552-.423.727a1.379,1.379,0,0,1-.665.173h-.9l1.7,3.965H48.83L47.372,453a1.789,1.789,0,0,0,1.748-1.8,3.652,3.652,0,0,0,.038-.491,1.8,1.8,0,0,0-.4-1.221,2.52,2.52,0,0,0-1.908-.668H44.126c-.064.438-.951,6.639-1.037,7.217H44.9c.06-.4.837-5.863.837-5.863" transform="translate(-30.464 -439.603)" fill="#00427a"/>
      <path id="패스_17466" data-name="패스 17466" d="M149.232,430.87c-1.159,4.8-5.324,7.419-7.772,8.817l-.105-.141c1.006-.816,4.45-3.359,5.551-7.571Z" transform="translate(-78.25 -430.87)" fill="#f48120"/>
      <path id="패스_17467" data-name="패스 17467" d="M119.085,455.421h0l-.063.011.063-.011" transform="translate(-67.389 -442.809)" fill="#00427a"/>
      <path id="패스_17468" data-name="패스 17468" d="M124.213,454.393l.106-.025-.11.025Z" transform="translate(-69.911 -442.297)" fill="#00427a"/>
      <path id="패스_17469" data-name="패스 17469" d="M117.924,455.6l-.124.02.124-.02" transform="translate(-66.795 -442.897)" fill="#00427a"/>
      <path id="패스_17470" data-name="패스 17470" d="M125.313,454.062l-.418.1.418-.1" transform="translate(-70.245 -442.148)" fill="#00427a"/>
      <path id="패스_17471" data-name="패스 17471" d="M116.677,455.805l.04-.006-.04.006" transform="translate(-66.249 -442.993)" fill="#00427a"/>
      <path id="패스_17472" data-name="패스 17472" d="M127.312,453.59l-.262.069.262-.069" transform="translate(-71.293 -441.919)" fill="#00427a"/>
      <path id="패스_17473" data-name="패스 17473" d="M110.593,456.517h0" transform="translate(-63.283 -443.342)" fill="#00427a"/>
      <path id="패스_17474" data-name="패스 17474" d="M131.251,452.322h0c-.2.065-.4.13-.614.2.21-.066.417-.131.615-.2" transform="translate(-73.037 -441.302)" fill="#00427a"/>
      <path id="패스_17475" data-name="패스 17475" d="M130.144,452.778c-.084.027-.17.052-.255.078.086-.026.172-.051.255-.078" transform="translate(-72.674 -441.524)" fill="#00427a"/>
      <path id="패스_17476" data-name="패스 17476" d="M128.78,453.009c-.286.084-.584.168-.889.252.306-.084.6-.168.889-.252" transform="translate(-71.702 -441.636)" fill="#00427a"/>
      <path id="패스_17477" data-name="패스 17477" d="M126.431,453.823c-.088.021-.174.042-.261.066.088-.024.173-.045.261-.066" transform="translate(-70.865 -442.032)" fill="#00427a"/>
      <path id="패스_17478" data-name="패스 17478" d="M94.234,456.771h.016a.056.056,0,0,1-.016,0Z" transform="translate(-55.335 -443.464)" fill="#00427a"/>
      <path id="패스_17479" data-name="패스 17479" d="M100.6,456.943h0" transform="translate(-58.392 -443.549)" fill="#00427a"/>
      <path id="패스_17480" data-name="패스 17480" d="M99.121,456.933l-.139,0,.139,0" transform="translate(-57.644 -443.543)" fill="#00427a"/>
      <path id="패스_17481" data-name="패스 17481" d="M109.55,456.6l-.053,0,.053,0" transform="translate(-62.757 -443.382)" fill="#00427a"/>
      <path id="패스_17482" data-name="패스 17482" d="M107.351,456.749l-.04,0,.04,0" transform="translate(-61.694 -443.455)" fill="#00427a"/>
      <path id="패스_17483" data-name="패스 17483" d="M108.46,456.681l-.048,0,.048,0" transform="translate(-62.23 -443.422)" fill="#00427a"/>
      <path id="패스_17484" data-name="패스 17484" d="M106.217,456.811l.02,0-.02,0" transform="translate(-61.162 -443.484)" fill="#00427a"/>
      <path id="패스_17485" data-name="패스 17485" d="M111.662,451.376c-.013-.005-.526-.263-.526-.263l-.007,0-.007,0c-.169-.1-.566-.328-.566-.715a.594.594,0,0,1,.208-.461.831.831,0,0,1,.686-.14,2.522,2.522,0,0,1,1.164.645c.206-.394.6-1.144.737-1.414a3.346,3.346,0,0,0-1.686-.752,3.121,3.121,0,0,0-2.329.511,2.352,2.352,0,0,0-.9,1.632,2.864,2.864,0,0,0-.02.338,1.9,1.9,0,0,0,.236.973c1.075-.025,2.206-.078,3.348-.171a3.356,3.356,0,0,0-.339-.175" transform="translate(-62.232 -439.311)" fill="#00427a"/>
      <path id="패스_17486" data-name="패스 17486" d="M130.159,448.828c-.043.3-.183,1.251-.25,1.716a28.676,28.676,0,0,0,4.668-1.716Z" transform="translate(-72.683 -439.603)" fill="#00427a"/>
      <path id="패스_17487" data-name="패스 17487" d="M107.564,450.623h0c-.2.065-.4.13-.614.2l-.128.039c-.084.027-.17.052-.256.078l-.137.041c-.286.084-.584.168-.889.251l-.17.047-.262.069-.191.051c-.088.021-.174.043-.263.066s-.157.039-.236.057l-.418.1c-.082.02-.16.04-.242.057l-.106.025h0c-.815.185-1.682.36-2.6.516l-.063.011c-.165.028-.334.055-.5.082l-.124.02c-.178.027-.357.055-.537.081l-.04.007q-1.481.216-3.118.363h-.015c-.165.014-.333.029-.5.041l-.053,0-.51.037-.048,0-.526.032-.04,0-.542.027-.02,0q-1.379.066-2.85.067h-.077c-.216,0-.433,0-.652,0l-.139,0q-1.183-.015-2.423-.082H88.25v0q-1.879-.1-3.887-.322l1.539-1.447a21.545,21.545,0,0,0,2.132.49c-.234-1.4-.44-2.623-.472-2.8H85.147c-.14.3-2.893,6.507-3.219,7.218h1.936c.1-.244.754-1.794.754-1.794l2.017,0s.2,1.511.241,1.8h1.908c-.043-.234-.227-1.322-.44-2.587,1.359.075,2.722.091,3.992.071a.673.673,0,0,1,.1.347.632.632,0,0,1-.013.134.578.578,0,0,1-.243.388,1.242,1.242,0,0,1-.9.1,3.058,3.058,0,0,1-1.5-.962c-.248.4-.766,1.248-.935,1.524a4.386,4.386,0,0,0,2.346,1.181,3.1,3.1,0,0,0,2.292-.518,2.493,2.493,0,0,0,.984-1.679,2.661,2.661,0,0,0,.037-.575c1.36-.058,2.491-.143,3.218-.206a.761.761,0,0,1,.361.615,1.009,1.009,0,0,1-.012.134.583.583,0,0,1-.245.388,1.238,1.238,0,0,1-.9.1,3.035,3.035,0,0,1-1.5-.962l-.938,1.524a4.394,4.394,0,0,0,2.345,1.181,3.09,3.09,0,0,0,2.291-.518,2.48,2.48,0,0,0,.985-1.679,2.327,2.327,0,0,0-.041-1.057c.307-.045.6-.09.888-.136-.216,1.515-.42,2.935-.458,3.2h4.661c.045-.317.164-1.154.223-1.559h-2.825l.193-1.334h2.561c.04-.277.13-.908.19-1.32.35-.111.524-.177.524-.177s.867-.26,1.988-.676c-.161,1.13-.655,4.584-.725,5.065h2.02c.059-.428.778-5.423.778-5.423h1.46c.044-.311.183-1.3.248-1.752a25.706,25.706,0,0,1-4.231,1.752" transform="translate(-49.351 -439.603)" fill="#00427a"/>
      <path id="패스_17488" data-name="패스 17488" d="M101.285,451.738a2.989,2.989,0,0,0-.614-.363l-.522-.263-.01,0-.007-.005c-.17-.1-.565-.327-.565-.715a.6.6,0,0,1,.207-.461.837.837,0,0,1,.687-.14,2.535,2.535,0,0,1,1.166.645c.2-.394.6-1.144.734-1.414a3.338,3.338,0,0,0-1.685-.752,3.122,3.122,0,0,0-2.329.511,2.358,2.358,0,0,0-.9,1.632,2.753,2.753,0,0,0-.02.338,2.006,2.006,0,0,0,.17.845l.124.008c.9.069,2.14.125,3.565.136" transform="translate(-56.887 -439.311)" fill="#00427a"/>
      <path id="패스_17489" data-name="패스 17489" d="M121.324,450.383h2.749c.045-.316.166-1.153.223-1.555h-4.583c-.028.186-.206,1.414-.4,2.809.634-.079,1.263-.172,1.876-.281Z" transform="translate(-67.528 -439.603)" fill="#00427a"/>
      <path id="패스_17490" data-name="패스 17490" d="M60.82,467.212l-.865,4.9H57.42a.812.812,0,0,1-.583-.17.519.519,0,0,1-.112-.492l.747-4.242ZM58.31,468l-.59,3.322h1.392L59.7,468Zm4.457-.9-1,5.675h-.988l1-5.675Z" transform="translate(-37.087 -448.485)" fill="#00427a"/>
      <path id="패스_17491" data-name="패스 17491" d="M72.876,467.214l-.464,2.633h-1.29l-.273,1.54H72.6l.758-4.293h.987l-.4,2.254h.735l.4-2.254h.988l-1,5.674h-.982l.472-2.685h-.734l-.474,2.691h-.992l.117-.662H70.594a.923.923,0,0,1-.6-.159.5.5,0,0,1-.133-.491l.394-2.235h1.282l.224-1.3H70.48l.126-.716Z" transform="translate(-43.474 -448.485)" fill="#00427a"/>
      <path id="패스_17492" data-name="패스 17492" d="M86.049,469.734a4.753,4.753,0,0,1-.709,1.835,1.492,1.492,0,0,1-1.223.754.983.983,0,0,1-.973-.787,3.98,3.98,0,0,1-.032-1.893A4.621,4.621,0,0,1,83.8,467.8a1.524,1.524,0,0,1,1.249-.774.937.937,0,0,1,.894.59,2.914,2.914,0,0,1,.186,1.475,6.263,6.263,0,0,1-.081.642m-.364.311.143-.733h.652l.4-2.251h.955l-1,5.674h-.96l.476-2.691Zm-1.277-1.816a6.268,6.268,0,0,0-.388,1.415,6.179,6.179,0,0,0-.122,1.475q.043.59.323.59t.522-.59a6.681,6.681,0,0,0,.4-1.475,5.635,5.635,0,0,0,.109-1.415c-.032-.389-.138-.583-.315-.583s-.363.194-.529.583m4.88-1.167-1,5.675h-.961l1-5.675Z" transform="translate(-49.88 -448.453)" fill="#00427a"/>
      <path id="패스_17493" data-name="패스 17493" d="M98.686,467.139a4.472,4.472,0,0,0-.043,1.717,1.5,1.5,0,0,0,.632.945l-.585.414a2.139,2.139,0,0,1-.565-.572,3.926,3.926,0,0,1-.3-.518,5.581,5.581,0,0,1-.476.51,4.192,4.192,0,0,1-.77.592l-.434-.42a2.837,2.837,0,0,0,.939-.905,4.824,4.824,0,0,0,.611-1.763Zm2.349-.044-.571,3.237h-.973l.279-1.586h-.7l.113-.643h.707l.177-1.008Zm1.455,0-.57,3.239h-.974l.57-3.239Zm-2.056,4.594a2.972,2.972,0,0,0,1.376.538l-.513.565a4.214,4.214,0,0,1-1.281-.433,1.971,1.971,0,0,1-.79-.728,3.026,3.026,0,0,1-1.067.734,5.915,5.915,0,0,1-1.544.453l-.275-.557a4.221,4.221,0,0,0,1.6-.544,1.806,1.806,0,0,0,.98-1.18H99.9a1.14,1.14,0,0,0,.529,1.153" transform="translate(-56.268 -448.485)" fill="#00427a"/>
      <path id="패스_17494" data-name="패스 17494" d="M115.808,467.313l-.115.65h-2.046c-.043.245.153.459.59.639a5.36,5.36,0,0,0,1.664.336l-.517.514a8.437,8.437,0,0,1-1.531-.265,1.967,1.967,0,0,1-.837-.414,2.965,2.965,0,0,1-1.008.414,10.955,10.955,0,0,1-1.563.265l-.283-.52a5.807,5.807,0,0,0,1.749-.336c.459-.17.711-.381.754-.632h-1.953l.115-.65Zm-.047,2.5-.115.651h-5.8l.116-.651Zm-4.391,1.812c-.266.084-.408.189-.429.315s.084.227.319.311a3.611,3.611,0,0,0,1.158.145,4.014,4.014,0,0,0,1.19-.145c.267-.084.412-.188.435-.311s-.087-.231-.325-.315a3.683,3.683,0,0,0-1.139-.138,4.308,4.308,0,0,0-1.208.138m3.173-.447c.383.206.548.461.493.763s-.306.558-.761.764a4.792,4.792,0,0,1-1.973.348,4.033,4.033,0,0,1-1.871-.348c-.384-.206-.546-.461-.493-.764s.307-.557.763-.763a4.932,4.932,0,0,1,1.991-.344,4.013,4.013,0,0,1,1.852.344" transform="translate(-62.928 -448.592)" fill="#00427a"/>
      <path id="패스_17495" data-name="패스 17495" d="M129.145,467.094l-.759,4.3h-.99l.091-.521H126.35l.113-.639H127.6l.081-.449H125.5l-.227,1.289h-.815l-.178,1.014H128.3l-.114.651h-4.132a1.052,1.052,0,0,1-.657-.152.485.485,0,0,1-.109-.481l.229-1.292h.814l.181-1.029H123.07l.112-.638h2.483a2.625,2.625,0,0,0,.223-.553,7.282,7.282,0,0,0,.158-.737H123.67l.115-.651h3.356l-.146.826a3.975,3.975,0,0,1-.139.567,3.545,3.545,0,0,1-.232.548h1.168l.361-2.054Z" transform="translate(-69.358 -448.485)" fill="#00427a"/>
    </g>
  </g>
</svg>
