<svg xmlns="http://www.w3.org/2000/svg" width="96" height="34" viewBox="0 0 96 34">
  <g id="logo_daishin" transform="translate(0 -0.049)">
    <rect id="사각형_5320" data-name="사각형 5320" width="96" height="34" transform="translate(0 0.049)" fill="red" opacity="0"/>
    <g id="그룹_5078" data-name="그룹 5078" transform="translate(17.91 6.232)">
      <g id="그룹_5077" data-name="그룹 5077">
        <path id="패스_17415" data-name="패스 17415" d="M109.588,205.934h-5.356v10.178h10.71l5.353-5.353H109.588Z" transform="translate(-60.115 -200.049)" fill="#636363"/>
        <path id="패스_17416" data-name="패스 17416" d="M109.588,194.5l-5.356,5.355h10.71v4.823h5.353V194.5Z" transform="translate(-60.115 -194.5)" fill="#636363"/>
        <path id="패스_17417" data-name="패스 17417" d="M26.491,205.933v3.529H24.706v-3.529h-.739v7.74H19.255v-6.689h3.381v-.68H18.518v8.05h4.876l.573-.571v1.694h.739v-5.334h1.784v5.334h.739v-9.544Z" transform="translate(-18.518 -200.049)" fill="#636363"/>
        <path id="패스_17418" data-name="패스 17418" d="M47.238,205.933H46.5v7.577h.738Zm-4.874.831,1.944,4.675h.772l-.073-.175-2.14-5.18h-2.1l-2.21,5.355h.77l1.945-4.675Zm-1.189,8.669v-3.008h-.738v3.687h6.974v-.679Z" transform="translate(-28.243 -200.049)" fill="#636363"/>
        <path id="패스_17419" data-name="패스 17419" d="M65.45,212.735a3.984,3.984,0,0,0-1.095-.45,5.932,5.932,0,0,0-2.738,0,3.777,3.777,0,0,0-1.081.449,2.243,2.243,0,0,0-.724.737,1.868,1.868,0,0,0-.263.979,1.9,1.9,0,0,0,.263.99,2.252,2.252,0,0,0,.723.733,3.52,3.52,0,0,0,1.084.44,6.376,6.376,0,0,0,2.734,0,3.71,3.71,0,0,0,1.094-.438,2.339,2.339,0,0,0,.73-.735,1.964,1.964,0,0,0,0-1.971,2.333,2.333,0,0,0-.727-.735m0,2.51a1.753,1.753,0,0,1-.645.5,3.046,3.046,0,0,1-.885.279,5.94,5.94,0,0,1-.934.079,6.01,6.01,0,0,1-.964-.079,2.9,2.9,0,0,1-.865-.278,1.757,1.757,0,0,1-.621-.518,1.272,1.272,0,0,1-.238-.792,1.224,1.224,0,0,1,.242-.768,1.824,1.824,0,0,1,.628-.521,3.388,3.388,0,0,1,.88-.29,4.937,4.937,0,0,1,1.867,0,3.386,3.386,0,0,1,.887.29,1.976,1.976,0,0,1,.645.533,1.377,1.377,0,0,1,0,1.562m-6.043-5.286h.823l1.994-3.032h1.638l2.067,3.032h.837L64.7,206.927h2.209v-.681H59.25v.681H61.4Zm-1.4,1.4H68.1v-.679H58.01Z" transform="translate(-37.684 -200.2)" fill="#636363"/>
        <path id="패스_17420" data-name="패스 17420" d="M81.751,212.5h.739v-1.979H87.2v.987H84.286v.669H87.2v1.492h.744v-7.738H87.2v3.91H84.508l.634-.638v-3.111H80.018v.692H84.4v3.057H78.917v.68h2.834Zm.033,2.93v-2.557h-.738v3.236H88.09v-.679Z" transform="translate(-47.83 -200.049)" fill="#636363"/>
      </g>
    </g>
  </g>
</svg>
