<svg xmlns="http://www.w3.org/2000/svg" width="96" height="34" viewBox="0 0 96 34">
  <g id="logo_nh" transform="translate(0 -0.049)">
    <rect id="사각형_5320" data-name="사각형 5320" width="96" height="34" transform="translate(0 0.049)" fill="red" opacity="0"/>
    <g id="그룹_5075" data-name="그룹 5075" transform="translate(6.178 9.639)">
      <g id="그룹_5074" data-name="그룹 5074">
        <g id="그룹_5073" data-name="그룹 5073">
          <path id="패스_17407" data-name="패스 17407" d="M219.243,172.46l-2.343,1.176-2.34-1.176,2.34,4.453Z" transform="translate(-212.093 -172.46)" fill="#ffb301"/>
          <path id="패스_17408" data-name="패스 17408" d="M218.352,176.15l-.037-.03,1.672-.7v-2.35l-2.9,1.237s-1.573,2.979-1.608,3.048a2.442,2.442,0,1,1-.572,0c-.035-.069-1.605-3.048-1.605-3.048l-2.9-1.237v2.35l1.669.7-.035.03a4.807,4.807,0,1,0,6.322,0Z" transform="translate(-210.383 -172.709)" fill="#ffb301"/>
        </g>
      </g>
      <path id="패스_17409" data-name="패스 17409" d="M288.1,181.806h-4.156v2.582h-1.527v-2.582h-4.093l-.422-.658h10.2c.1,0,.128.129.128.33s-.024.328-.128.328m-9.378-2.336v-3.706h8.791c.1,0,.128.129.128.327s-.025.33-.128.33h-7.266v1.137h7.206c.1,0,.129.129.129.328s-.024.329-.129.329h-7.206v.951a.361.361,0,0,0,.353.35h7.029c.1,0,.129.131.129.33s-.024.327-.129.327h-8.2A.707.707,0,0,1,278.72,179.47Z" transform="translate(-238.028 -173.813)" fill="#0a57a4"/>
      <path id="패스_17410" data-name="패스 17410" d="M304.735,184.185v-8.919h1.173a.358.358,0,0,1,.35.351v2.348h1.164c.1,0,.128.129.128.328s-.024.33-.128.33h-1.164v5.563h-1.522m-1.456-.705a5.307,5.307,0,0,1-3.122-2.579,5.3,5.3,0,0,1-3.121,2.579l-.517-.481a4.482,4.482,0,0,0,2.874-4.261v-2.464h-2.218l-.423-.658h6.562c.105,0,.128.129.128.33s-.023.328-.128.328H300.92v2.464A4.48,4.48,0,0,0,303.794,183Z" transform="translate(-245.652 -173.609)" fill="#0a57a4"/>
      <path id="패스_17411" data-name="패스 17411" d="M324.837,182.55c0,1.137-1.244,1.632-2.876,1.632s-2.874-.495-2.874-1.632,1.245-1.631,2.874-1.631,2.876.493,2.876,1.631m1.586,0a1.948,1.948,0,0,0-1.362-1.759h1.816c.108,0,.13-.131.13-.33s-.022-.328-.13-.328h-10.2l.425.658h1.757a1.948,1.948,0,0,0-1.361,1.759c0,1.547,1.926,2.288,4.459,2.288s4.462-.741,4.462-2.288m-3.523-6.032h3.51c.106,0,.129-.129.129-.328s-.023-.33-.129-.33h-9.259l.422.658h3.45c0,1.3-2,2.265-4.107,2.265l.387.6c2.394,0,4.083-.7,4.657-1.609.576.9,2.264,1.609,4.662,1.609l.384-.6C324.9,178.783,322.9,177.821,322.9,176.518Z" transform="translate(-253.907 -173.852)" fill="#0a57a4"/>
      <path id="패스_17412" data-name="패스 17412" d="M338.148,184.185a.706.706,0,0,1-.7-.705v-1.995h1.173a.361.361,0,0,1,.354.352v1.338a.357.357,0,0,0,.35.35h5.28v-2.088h-2.393l-.42-.657H344.6v-1.174h-4.165v1.642h-1.525v-1.642h-1.984l-.423-.656h4.776a12.223,12.223,0,0,0,.155-1.81v-.867H337.28l-.425-.658h5.752a.362.362,0,0,1,.353.352v.94a11.67,11.67,0,0,1-.212,2.043H344.6v-3.686h1.175a.36.36,0,0,1,.351.351v8.568Z" transform="translate(-262.025 -173.609)" fill="#0a57a4"/>
      <path id="패스_17413" data-name="패스 17413" d="M266.165,175.267h-1.631v3.458h-6.657v-3.458h-1.63a.7.7,0,0,0-.7.7v7.516a.7.7,0,0,0,.7.7h1.63v-3.722h6.657v3.722h1.631a.7.7,0,0,0,.7-.7v-7.516A.7.7,0,0,0,266.165,175.267Z" transform="translate(-228.875 -173.609)" fill="#0a57a4"/>
      <path id="패스_17414" data-name="패스 17414" d="M243.643,175.267h-1.629v6.57l-5.131-5.2a3.406,3.406,0,0,0-2.675-1.375h-1.428v8.217a.7.7,0,0,0,.7.7h1.629v-6.605l5.083,5.162a3.816,3.816,0,0,0,2.781,1.443h1.368v-8.216A.7.7,0,0,0,243.643,175.267Z" transform="translate(-219.554 -173.609)" fill="#0a57a4"/>
    </g>
  </g>
</svg>
