<svg xmlns="http://www.w3.org/2000/svg" width="83.53" height="13.93" viewBox="0 0 83.53 13.93">
  <g id="그룹_2953" data-name="그룹 2953" transform="translate(-60.684 -220.778)">
    <path id="패스_5707" data-name="패스 5707" d="M201.2,224.832a.755.755,0,0,0-.831-.743h-8.937v.883h7.6v2.012a6.029,6.029,0,0,1-.3,2.126H189.8v.882H195v1.7h-3.76v.882h7.734v4.576h1.256c.609,0,.912-.225.912-.95v-3.749a.725.725,0,0,0-.757-.759h-3.218v-1.7h5.53v-.882h-2.111a4.19,4.19,0,0,0,.619-2.187Z" transform="translate(-114.122 -2.927)" fill="#333"/>
    <path id="패스_5708" data-name="패스 5708" d="M87.454,296.881H84.983A2.019,2.019,0,0,1,85.271,298v2.443c0,.814.288,1.044,1.133,1.044h7.673V300.6H87.454Z" transform="translate(-21.477 -67.265)" fill="#333"/>
    <path id="패스_5709" data-name="패스 5709" d="M68.666,221.932h-2.9v-1.154h-2.4a1.482,1.482,0,0,1,.228.913v.241H60.684v.883h1.9a3.173,3.173,0,0,0-1.424,2.638,3.512,3.512,0,0,0,7,0,3.17,3.17,0,0,0-1.431-2.638h1.932Zm-4.012,5.881c-.955,0-1.6-.963-1.6-2.35.01-1.384.65-2.347,1.6-2.347s1.612.963,1.622,2.347C66.266,226.85,65.617,227.813,64.653,227.813Z" fill="#333"/>
    <path id="패스_5710" data-name="패스 5710" d="M140.2,223.3h-2.471a1.647,1.647,0,0,1,.3,1.138v8.19h1.254c.615,0,.916-.271.916-.948v-4.354h2.137v-.885H140.2Z" transform="translate(-68.095 -2.232)" fill="#333"/>
    <path id="패스_5711" data-name="패스 5711" d="M529.821,223.425a1.466,1.466,0,0,1,.428,1.124v12.012h1.006c.689,0,.96-.439.96-1.132v-12Z" transform="translate(-414.657 -2.34)" fill="#333"/>
    <path id="패스_5712" data-name="패스 5712" d="M492.112,227.59h-2.118v.882h2.118v6.887h.941c.683,0,1.008-.4,1.008-1.193V223.425h-2.336a1.538,1.538,0,0,1,.387,1.124Z" transform="translate(-379.455 -2.34)" fill="#333"/>
    <path id="패스_5713" data-name="패스 5713" d="M323.956,228.756a.7.7,0,0,0-.721-.836h-5.78v.883h4.3c0,3.134-1.881,5.111-5.036,5.642l.391.591c4.075-.482,6.544-2.363,6.841-6.281" transform="translate(-226.306 -6.313)" fill="#333"/>
    <path id="패스_5714" data-name="패스 5714" d="M357.74,223.425h-2.491a1.6,1.6,0,0,1,.384,1.137v.976h-2.264v.885h2.264V227.7H353.3v.882h2.338v2.019a4.524,4.524,0,0,0-1.821-.373,3.442,3.442,0,1,0,3.927,3.407c0-.037,0-.075-.005-.112l.005,0Zm-3.928,12.7c-1.136,0-1.9-1.013-1.908-2.471.012-1.461.772-2.474,1.908-2.474s1.916,1.013,1.928,2.474C355.728,235.111,354.959,236.124,353.812,236.124Z" transform="translate(-255.633 -2.34)" fill="#333"/>
    <path id="패스_5715" data-name="패스 5715" d="M443.487,228.693a.71.71,0,0,0-.784-.773h-5.093v.883h3.755c0,2.718-1.9,4.43-4.686,5.438a10.113,10.113,0,0,1,6.883,4.207v-2.691a8.94,8.94,0,0,0-4.058-1.784c2.127-.8,3.983-3.434,3.983-5.281" transform="translate(-332.331 -6.313)" fill="#333"/>
    <path id="패스_5716" data-name="패스 5716" d="M687.912,223.425l3.424,10.4,3.321-10.4h1.76s-3.97,11.861-4.144,12.36a1.16,1.16,0,0,1-1.164.777h-1.266l-4.4-13.136Z" transform="translate(-552.204 -2.34)" fill="#333"/>
    <path id="패스_5717" data-name="패스 5717" d="M587.4,223.425H575.905v1.188h4.612v11.948h1.227a.937.937,0,0,0,1.042-.91V224.613h4.61Z" transform="translate(-455.389 -2.34)" fill="#333"/>
    <path id="패스_5718" data-name="패스 5718" d="M683.376,223.425h-1.352a2.02,2.02,0,0,1,.763,1.094" transform="translate(-549.184 -2.34)" fill="#333"/>
  </g>
</svg>
