<svg xmlns="http://www.w3.org/2000/svg" width="295.026" height="25.999" viewBox="0 0 295.026 25.999">
  <g id="그룹_2839" data-name="그룹 2839" transform="translate(-34.001 -163)">
    <g id="그룹_1483" data-name="그룹 1483" transform="translate(-1096.884 -330.733)">
      <g id="타원_312" data-name="타원 312" transform="translate(1130.885 493.733)">
        <path id="타원_319" data-name="타원 319" d="M1143.884,496.189a10.543,10.543,0,1,1-10.542,10.543,10.555,10.555,0,0,1,10.542-10.543m0-2.456a13,13,0,1,0,13,13,13,13,0,0,0-13-13Z" transform="translate(-1130.885 -493.733)" fill="#014b8d"/>
      </g>
      <g id="icon_-_heart_on" data-name="icon - heart on" transform="translate(1137.411 502.17)">
        <path id="Icon_feather-heart" data-name="Icon feather-heart" d="M14.271,5.5a3.406,3.406,0,0,0-4.819,0L8.8,6.152,8.14,5.5a3.407,3.407,0,1,0-4.819,4.819l.657.657L8.8,15.789l4.819-4.819.657-.657a3.406,3.406,0,0,0,0-4.819Z" transform="translate(-2.323 -4.497)" fill="#014b8d"/>
      </g>
    </g>
    <g id="그룹_1484" data-name="그룹 1484" transform="translate(-1036.801 -329.733)">
      <circle id="타원_323" data-name="타원 323" cx="2.4" cy="2.4" r="2.4" transform="translate(1165.801 494.734)" fill="#014b8d"/>
      <circle id="타원_324" data-name="타원 324" cx="2.4" cy="2.4" r="2.4" transform="translate(1165.801 503.054)" fill="#014b8d"/>
      <circle id="타원_325" data-name="타원 325" cx="2.4" cy="2.4" r="2.4" transform="translate(1165.801 511.374)" fill="#014b8d"/>
      <path id="사각형_2143" data-name="사각형 2143" d="M1188.233,495.694h-14.366a1.082,1.082,0,0,0-1.067,1.1v.046a1.083,1.083,0,0,0,1.067,1.1h14.366a1.083,1.083,0,0,0,1.067-1.1v-.046a1.082,1.082,0,0,0-1.067-1.1Z" fill="#014b8d"/>
      <path id="사각형_2144" data-name="사각형 2144" d="M1188.233,504.334h-14.366a1.082,1.082,0,0,0-1.067,1.1v.046a1.083,1.083,0,0,0,1.067,1.1h14.366a1.083,1.083,0,0,0,1.067-1.1v-.046a1.082,1.082,0,0,0-1.067-1.1Z" fill="#014b8d"/>
      <path id="사각형_2145" data-name="사각형 2145" d="M1188.233,512.654h-14.366a1.082,1.082,0,0,0-1.067,1.1v.046a1.083,1.083,0,0,0,1.067,1.1h14.366a1.083,1.083,0,0,0,1.067-1.1v-.046a1.082,1.082,0,0,0-1.067-1.1Z" fill="#014b8d"/>
    </g>
    <g id="그룹_1490" data-name="그룹 1490" transform="translate(-936.073 -329.678)">
      <path id="패스_3617" data-name="패스 3617" d="M1262,497.941h-2.005v3.922h-9.81v-3.922h-2.005a.848.848,0,0,0-.837.836V514.6a.848.848,0,0,0,.837.837H1262a.847.847,0,0,0,.836-.837V498.777A.847.847,0,0,0,1262,497.941Z" fill="none"/>
      <path id="패스_3618" data-name="패스 3618" d="M1262,495.673h-3.882a3.3,3.3,0,0,0-6.056,0h-3.882a3.113,3.113,0,0,0-3.1,3.1V514.6a3.113,3.113,0,0,0,3.1,3.1H1262a3.113,3.113,0,0,0,3.1-3.1V498.777A3.113,3.113,0,0,0,1262,495.673Zm-6.91.273a1.03,1.03,0,1,1-1.03,1.03A1.031,1.031,0,0,1,1255.087,495.946Zm7.746,18.654a.847.847,0,0,1-.836.837h-13.82a.848.848,0,0,1-.837-.837V498.777a.848.848,0,0,1,.837-.836h2.005v3.922h9.81v-3.922H1262a.847.847,0,0,1,.836.836Z" fill="#014b8d"/>
    </g>
    <path id="Icon_material-notifications" data-name="Icon material-notifications" d="M16.089,28.343a2.53,2.53,0,0,0,2.522-2.522H13.567A2.522,2.522,0,0,0,16.089,28.343Zm7.567-7.567V14.47c0-3.872-2.068-7.113-5.675-7.971V5.642a1.892,1.892,0,0,0-3.784,0V6.5c-3.62.858-5.675,4.086-5.675,7.971v6.306L6,23.3v1.261H26.179V23.3Z" transform="translate(217.91 159.683)" fill="#014b8d"/>
  </g>
</svg>
