<svg xmlns="http://www.w3.org/2000/svg" width="12" height="12" viewBox="0 0 12 12">
  <path id="Icon_awesome-info-circle" data-name="Icon awesome-info-circle" d="M6.563.563a6,6,0,1,0,6,6A6,6,0,0,0,6.563.563Zm0,2.661A1.016,1.016,0,1,1,5.546,4.24,1.016,1.016,0,0,1,6.563,3.224ZM7.917,9.369a.29.29,0,0,1-.29.29H5.5a.29.29,0,0,1-.29-.29V8.788A.29.29,0,0,1,5.5,8.5h.29V6.95H5.5a.29.29,0,0,1-.29-.29V6.079a.29.29,0,0,1,.29-.29H7.046a.29.29,0,0,1,.29.29V8.5h.29a.29.29,0,0,1,.29.29Z" transform="translate(-0.563 -0.563)" fill="#014b8d"/>
</svg>
