<svg id="배당매력주" xmlns="http://www.w3.org/2000/svg" width="70" height="70" viewBox="0 0 70 70">
  <rect id="사각형_2815" data-name="사각형 2815" width="70" height="70" fill="red" opacity="0"/>
  <g id="C_-_35_growth_Business_care_finance_grow_growing_money_raise" data-name="C - 35, growth, Business, care, finance, grow, growing, money, raise" transform="translate(16.391 16.429)">
    <g id="그룹_475" data-name="그룹 475" transform="translate(0 0)">
      <path id="패스_685" data-name="패스 685" d="M142.471,327.981h13.758a.654.654,0,0,1,0,1.308H142.982l2.413,6.176h16.653l4.851-12.414h-14.43a.654.654,0,1,1,0-1.308h14.941l2.9-7.423H137.133Z" transform="translate(-134.323 -288.024)" fill="#549ef4" fill-rule="evenodd"/>
      <path id="패스_686" data-name="패스 686" d="M135.745,125.9v14.942L132,137.495c.1-2.689-.644-4.717-2.172-5.875a5.348,5.348,0,0,0-3.309-1.021,10.163,10.163,0,0,0-3.261.6.654.654,0,0,0-.441.578c-.177,2.851.569,4.993,2.158,6.2A5.349,5.349,0,0,0,128.284,139h0a9.822,9.822,0,0,0,2.893-.485l4.567,4.082v4.479a.663.663,0,0,0,.013.131H117v3.682h38.8v-3.682H137.039a.652.652,0,0,0,.013-.131v-8.92L141.2,134.7a.641.641,0,0,0,.082.023,11.47,11.47,0,0,0,2.214.233,5.773,5.773,0,0,0,4.24-1.527c1.412-1.405,1.861-3.629,1.3-6.43a.653.653,0,0,0-.514-.513,11.466,11.466,0,0,0-2.214-.233,5.772,5.772,0,0,0-4.24,1.527c-1.283,1.278-1.768,3.233-1.426,5.682l-3.594,2.994V125.9" transform="translate(-117 -125.9)" fill="#549ef4" fill-rule="evenodd"/>
      <rect id="사각형_1042" data-name="사각형 1042" width="2.503" height="2.491" transform="translate(23.163 14.418)" fill="#549ef4"/>
      <rect id="사각형_1043" data-name="사각형 1043" width="2.503" height="2.491" transform="translate(28.176 14.418)" fill="#549ef4"/>
      <rect id="사각형_1044" data-name="사각형 1044" width="2.503" height="2.491" transform="translate(33.189 14.418)" fill="#549ef4"/>
      <rect id="사각형_1045" data-name="사각형 1045" width="2.503" height="2.491" transform="translate(0.603 14.418)" fill="#549ef4"/>
      <rect id="사각형_1046" data-name="사각형 1046" width="2.503" height="2.491" transform="translate(5.617 14.418)" fill="#549ef4"/>
      <rect id="사각형_1047" data-name="사각형 1047" width="2.503" height="2.491" transform="translate(10.63 14.418)" fill="#549ef4"/>
    </g>
  </g>
  <g id="그룹_476" data-name="그룹 476" transform="translate(30.087 5.606)">
    <path id="패스_687" data-name="패스 687" d="M254.275,78.648h.189l-.1-.582Z" transform="translate(-248.813 -73.919)" fill="#549ef4"/>
    <path id="패스_688" data-name="패스 688" d="M245.451,89.116l.175-1.046h-.351Z" transform="translate(-241.069 -82.528)" fill="#549ef4"/>
    <path id="패스_689" data-name="패스 689" d="M220.7,48.357a5.56,5.56,0,1,0,5.56,5.56A5.56,5.56,0,0,0,220.7,48.357Zm3.116,5.4a.18.18,0,0,1-.025.112q-.025.028-.123.028H222.9l-.54,2.379c-.01.051-.025.082-.046.091a.352.352,0,0,1-.123.014h-.61a.239.239,0,0,1-.116-.017.145.145,0,0,1-.039-.088L220.91,53.9h-.449l-.505,2.379a.146.146,0,0,1-.039.088.239.239,0,0,1-.116.017h-.618a.26.26,0,0,1-.123-.017.144.144,0,0,1-.039-.088l-.547-2.379h-.786a.18.18,0,0,1-.112-.025.162.162,0,0,1-.028-.116v-.533a.162.162,0,0,1,.028-.116.18.18,0,0,1,.112-.025h.6l-.365-1.67a.2.2,0,0,1,0-.14q.024-.035.151-.035h.561a.4.4,0,0,1,.105.01c.023.007.04.039.049.095l.372,1.74h.674l.351-1.74q.014-.077.049-.091a.331.331,0,0,1,.112-.014h.652a.331.331,0,0,1,.112.014q.035.014.049.091l.365,1.74h.688l.365-1.74q.014-.077.042-.091a.293.293,0,0,1,.112-.014h.569q.112,0,.13.032a.268.268,0,0,1,0,.144l-.344,1.67h.575c.066,0,.106.009.123.028a.181.181,0,0,1,.025.112Z" transform="translate(-215.139 -48.357)" fill="#549ef4"/>
    <path id="패스_690" data-name="패스 690" d="M262.3,89.123l.176-1.053h-.358Z" transform="translate(-255.563 -82.528)" fill="#549ef4"/>
  </g>
</svg>
