<svg xmlns="http://www.w3.org/2000/svg" width="20" height="43.448" viewBox="0 0 20 43.448">
  <g id="그룹_2283" data-name="그룹 2283" transform="translate(-314 -64.3)">
    <path id="Icon_feather-heart" data-name="Icon feather-heart" d="M20.781,6.039a5.262,5.262,0,0,0-7.444,0L12.323,7.054,11.309,6.039a5.264,5.264,0,1,0-7.444,7.444L4.879,14.5l7.444,7.444L19.767,14.5l1.014-1.014a5.262,5.262,0,0,0,0-7.444Z" transform="translate(311.677 59.803)" fill="#d3d3d3"/>
    <g id="icon_-_heart_on" data-name="icon - heart on" transform="translate(314 90.3)">
      <path id="Icon_feather-heart-2" data-name="Icon feather-heart" d="M20.781,6.039a5.262,5.262,0,0,0-7.444,0L12.323,7.054,11.309,6.039a5.264,5.264,0,1,0-7.444,7.444L4.879,14.5l7.444,7.444L19.767,14.5l1.014-1.014a5.262,5.262,0,0,0,0-7.444Z" transform="translate(-2.323 -4.497)" fill="#ff3178"/>
    </g>
  </g>
</svg>
