<svg xmlns="http://www.w3.org/2000/svg" width="17.634" height="16.165" viewBox="0 0 17.634 16.165">
  <path id="패스_639" data-name="패스 639" d="M208.792,544.841c.012,5.377,0,10.754,0,16.13,2.014.012,4.03.009,6.042,0,.031-2.666-.037-5.334.036-8,.661.922,1.264,1.886,1.938,2.8,1.127,1.751,2.4,3.4,3.487,5.183,2.028.053,4.055,0,6.083.031.022-.253.044-.5.044-.758-.03-5.131.024-10.263-.028-15.393-2.006-.016-4.01,0-6.014-.008-.016,2.68.016,5.363-.018,8.04-1.863-2.65-3.623-5.379-5.53-8C212.826,544.78,210.806,544.844,208.792,544.841Z" transform="translate(-208.792 -544.822)" fill="#fff"/>
</svg>
