<svg xmlns="http://www.w3.org/2000/svg" xmlns:xlink="http://www.w3.org/1999/xlink" width="50" height="50" viewBox="0 0 50 50">
  <defs>
    <clipPath id="clip-path">
      <circle id="타원_128" data-name="타원 128" cx="9.196" cy="9.196" r="9.196" transform="translate(0 0)" fill="#fff"/>
    </clipPath>
  </defs>
  <g id="icon_03" transform="translate(-131.589 -206.397)">
    <rect id="사각형_2242" data-name="사각형 2242" width="50" height="50" transform="translate(131.589 206.397)" fill="red" opacity="0"/>
    <g id="그룹_2807" data-name="그룹 2807" transform="translate(3.286 7.569)">
      <g id="그룹_1665" data-name="그룹 1665" transform="translate(136.928 223.925)">
        <circle id="타원_117" data-name="타원 117" cx="9.145" cy="9.145" r="9.145" fill="#9dc5f8"/>
      </g>
      <g id="그룹_2804" data-name="그룹 2804" transform="translate(137.113 228.376) rotate(-16)">
        <path id="패스_5477" data-name="패스 5477" d="M1.31.093l.229.464a.167.167,0,0,0,.126.092l.512.074a.167.167,0,0,1,.093.285l-.37.361a.167.167,0,0,0-.048.148l.087.51A.167.167,0,0,1,1.7,2.2l-.458-.241a.167.167,0,0,0-.156,0L.624,2.2a.167.167,0,0,1-.243-.176l.087-.51a.167.167,0,0,0-.048-.148l-.37-.361A.167.167,0,0,1,.143.723L.655.648A.167.167,0,0,0,.781.557L1.01.093A.167.167,0,0,1,1.31.093Z" transform="translate(0 3.156)" fill="#488be2"/>
        <path id="패스_5478" data-name="패스 5478" d="M1.31.093l.229.464a.167.167,0,0,0,.126.092l.512.074a.167.167,0,0,1,.093.285l-.37.361a.167.167,0,0,0-.048.148l.087.51A.167.167,0,0,1,1.7,2.2l-.458-.241a.167.167,0,0,0-.156,0L.624,2.2a.167.167,0,0,1-.243-.176l.087-.51a.167.167,0,0,0-.048-.148l-.37-.361A.167.167,0,0,1,.143.723L.655.648A.167.167,0,0,0,.781.557L1.01.093A.167.167,0,0,1,1.31.093Z" transform="translate(3.682 3.156)" fill="#488be2"/>
        <path id="패스_5479" data-name="패스 5479" d="M1.31.093l.229.464a.167.167,0,0,0,.126.092l.512.074a.167.167,0,0,1,.093.285l-.37.361a.167.167,0,0,0-.048.148l.087.51A.167.167,0,0,1,1.7,2.2l-.458-.241a.167.167,0,0,0-.156,0L.624,2.2a.167.167,0,0,1-.243-.176l.087-.51a.167.167,0,0,0-.048-.148l-.37-.361A.167.167,0,0,1,.143.723L.655.648A.167.167,0,0,0,.781.557L1.01.093A.167.167,0,0,1,1.31.093Z" transform="translate(7.365 3.156)" fill="#488be2"/>
        <path id="패스_5482" data-name="패스 5482" d="M1.31.093l.229.464a.167.167,0,0,0,.126.092l.512.074a.167.167,0,0,1,.093.285l-.37.361a.167.167,0,0,0-.048.148l.087.51A.167.167,0,0,1,1.7,2.2l-.458-.241a.167.167,0,0,0-.156,0L.624,2.2a.167.167,0,0,1-.243-.176l.087-.51a.167.167,0,0,0-.048-.148l-.37-.361A.167.167,0,0,1,.143.723L.655.648A.167.167,0,0,0,.781.557L1.01.093A.167.167,0,0,1,1.31.093Z" transform="translate(10.649 3.156)" fill="#488be2"/>
        <path id="패스_5480" data-name="패스 5480" d="M1.31.093l.229.464a.167.167,0,0,0,.126.092l.512.074a.167.167,0,0,1,.093.285l-.37.361a.167.167,0,0,0-.048.148l.087.51A.167.167,0,0,1,1.7,2.2l-.458-.241a.167.167,0,0,0-.156,0L.624,2.2a.167.167,0,0,1-.243-.176l.087-.51a.167.167,0,0,0-.048-.148l-.37-.361A.167.167,0,0,1,.143.723L.655.648A.167.167,0,0,0,.781.557L1.01.093A.167.167,0,0,1,1.31.093Z" transform="translate(5.787 0)" fill="#488be2"/>
        <path id="패스_5483" data-name="패스 5483" d="M1.31.093l.229.464a.167.167,0,0,0,.126.092l.512.074a.167.167,0,0,1,.093.285l-.37.361a.167.167,0,0,0-.048.148l.087.51A.167.167,0,0,1,1.7,2.2l-.458-.241a.167.167,0,0,0-.156,0L.624,2.2a.167.167,0,0,1-.243-.176l.087-.51a.167.167,0,0,0-.048-.148l-.37-.361A.167.167,0,0,1,.143.723L.655.648A.167.167,0,0,0,.781.557L1.01.093A.167.167,0,0,1,1.31.093Z" transform="translate(9.071 0)" fill="#488be2"/>
        <path id="패스_5481" data-name="패스 5481" d="M1.31.093l.229.464a.167.167,0,0,0,.126.092l.512.074a.167.167,0,0,1,.093.285l-.37.361a.167.167,0,0,0-.048.148l.087.51A.167.167,0,0,1,1.7,2.2l-.458-.241a.167.167,0,0,0-.156,0L.624,2.2a.167.167,0,0,1-.243-.176l.087-.51a.167.167,0,0,0-.048-.148l-.37-.361A.167.167,0,0,1,.143.723L.655.648A.167.167,0,0,0,.781.557L1.01.093A.167.167,0,0,1,1.31.093Z" transform="translate(2.104 0)" fill="#488be2"/>
      </g>
      <g id="마스크_그룹_2" data-name="마스크 그룹 2" transform="translate(134.773 226.75) rotate(-16)" clip-path="url(#clip-path)">
        <g id="그룹_2806" data-name="그룹 2806" transform="translate(-1.844 8.951)">
          <rect id="사각형_3048" data-name="사각형 3048" width="18.392" height="6.971" transform="translate(1.316 0.986)" fill="#488be2"/>
          <rect id="사각형_3046" data-name="사각형 3046" width="18.392" height="1.971" transform="translate(1.189)" fill="#fff"/>
          <rect id="사각형_3047" data-name="사각형 3047" width="18.392" height="1.971" transform="translate(1.161 3.613)" fill="#fff"/>
          <rect id="사각형_3050" data-name="사각형 3050" width="18.392" height="1.971" transform="translate(0 7.534)" fill="#fff"/>
        </g>
      </g>
    </g>
    <g id="그룹_1663" data-name="그룹 1663" transform="translate(159.927 213.665)">
      <circle id="타원_115" data-name="타원 115" cx="7.792" cy="7.792" r="7.792" transform="translate(0 0)" fill="#9dc5f8"/>
    </g>
    <g id="그룹_1684" data-name="그룹 1684" transform="translate(172.585 255.421)">
      <path id="패스_639" data-name="패스 639" d="M192.424,279.775h-1.951a.488.488,0,0,1,0-.976h1.951a.488.488,0,0,1,0,.976Z" transform="translate(-189.986 -278.799)" fill="#444"/>
    </g>
    <g id="그룹_2802" data-name="그룹 2802" transform="translate(-4.175 -9.584)">
      <g id="그룹_1705" data-name="그룹 1705" transform="translate(173.385 227.952)">
        <circle id="타원_123" data-name="타원 123" cx="1.301" cy="1.301" r="1.301" transform="translate(0 0)" fill="#fff"/>
      </g>
      <g id="그룹_1706" data-name="그룹 1706" transform="translate(172.897 227.464)">
        <path id="패스_655" data-name="패스 655" d="M194.775,239.391a1.789,1.789,0,1,1,1.789-1.789A1.79,1.79,0,0,1,194.775,239.391Zm0-2.6a.813.813,0,1,0,.813.813A.814.814,0,0,0,194.775,236.79Z" transform="translate(-192.986 -235.814)" fill="#444"/>
      </g>
    </g>
    <g id="그룹_2803" data-name="그룹 2803" transform="translate(1.639)">
      <g id="그룹_1709" data-name="그룹 1709" transform="translate(173.223 248.909)">
        <circle id="타원_125" data-name="타원 125" cx="1.301" cy="1.301" r="1.301" transform="translate(0 0)" fill="#fff"/>
      </g>
      <g id="그룹_1710" data-name="그룹 1710" transform="translate(172.735 248.421)">
        <path id="패스_657" data-name="패스 657" d="M197.775,273.4a1.789,1.789,0,1,1,1.789-1.789A1.79,1.79,0,0,1,197.775,273.4Zm0-2.6a.813.813,0,1,0,.813.813A.814.814,0,0,0,197.775,270.794Z" transform="translate(-195.986 -269.818)" fill="#444"/>
      </g>
    </g>
    <g id="그룹_2108" data-name="그룹 2108" transform="translate(152.567 213.21)">
      <path id="패스_5471" data-name="패스 5471" d="M-572.72-2477.209l.3-10.737-1.979-1.264,1.487-.975s-1.72-1.78-1.487-3.439a46.862,46.862,0,0,0,.153-7.613c-.012-.1-.611-.428-.611-.428v-1.627l-.206-1.522,1.454-1.126.8,3.093v1.085l.149.447.242,2.309.929,5.382.9,2.072.928.718v-3.727a1.827,1.827,0,0,1,1.937-1.616c1.773.028,1.747,2.552,1.747,2.552v2.791l-1.747,1.131,2.824,2.216v3.186l2.214,1.83,2.024-1.83,3.118,2.684-4.248,4.849-2.615-1.511-.492,2.493.492,9.082,1.721.366v2.242H-574.4l.153-2.242,1.826-.366-.492-6.052Z" transform="translate(576.821 2506.852)" fill="#fff"/>
      <g id="statue_liberty_landmark_york_symbol_america_new_freedom_nyc_tourism" data-name="statue, liberty, landmark, york, symbol, america, new, freedom, nyc, tourism" transform="translate(0.902 0.001)">
        <g id="그룹_2107" data-name="그룹 2107" transform="translate(0 0)">
          <path id="패스_3117" data-name="패스 3117" d="M43.269,79.3a.541.541,0,0,0,.53-.624,38.527,38.527,0,0,1-.409-5.417.538.538,0,0,0-.537-.529h-.006a.536.536,0,0,0-.528.544,40.241,40.241,0,0,0,.423,5.576A.538.538,0,0,0,43.269,79.3Z" transform="translate(-39.155 -65.595)" fill="#444"/>
          <path id="패스_3118" data-name="패스 3118" d="M14.181,50.427a.537.537,0,0,0-.536-.537H11.177a.537.537,0,1,0,0,1.073h2.468A.537.537,0,0,0,14.181,50.427Z" transform="translate(-10.584 -44.996)" fill="#444"/>
          <path id="패스_3119" data-name="패스 3119" d="M23.554,66.432a.535.535,0,0,0-.536.526L23,67.963a.536.536,0,0,0,.526.546h.011a.536.536,0,0,0,.536-.526l.02-1.007a.537.537,0,0,0-.526-.546Z" transform="translate(-21.73 -59.913)" fill="#444"/>
          <path id="패스_3120" data-name="패스 3120" d="M12.953.148a.536.536,0,0,0-.506-.13,3.624,3.624,0,0,0-2.188,1.864l-.018.037a1.9,1.9,0,0,0,.283,2.032.537.537,0,0,0,.82-.687.843.843,0,0,1-.126-.9l.012-.026a2.426,2.426,0,0,1,.8-.94,1.626,1.626,0,0,0,.2.567l.014.023c.2.332.564.948.334,1.339a.537.537,0,0,0,.925.543,2.428,2.428,0,0,0-.337-2.431l-.013-.023A1.4,1.4,0,0,1,13.108.65a.538.538,0,0,0-.155-.5Z" transform="translate(-10.068 0)" fill="#444"/>
          <path id="패스_3121" data-name="패스 3121" d="M71.6,211.83l.119-.115a.537.537,0,1,0-.747-.77l-.118.114a.537.537,0,1,0,.746.771Z" transform="translate(-64.728 -190.102)" fill="#444"/>
          <path id="패스_3122" data-name="패스 3122" d="M14.587,124.964v-.9a1.831,1.831,0,0,0-1.829-1.829h-.012l-.621-9.331a2.483,2.483,0,0,0,.655-1.681v-1.5h0l3.532-3.814,1.976,1.655a.652.652,0,0,1,.057.947l-3.031,3.237a.647.647,0,0,1-.91.04.537.537,0,1,0-.715.8,1.715,1.715,0,0,0,2.407-.107l3.031-3.237a1.724,1.724,0,0,0-.152-2.5l-2.365-1.985a.536.536,0,0,0-.738.047l-3.091,3.336v-1.75c.022.026.041.053.063.078a.536.536,0,0,0,.807-.705,6.181,6.181,0,0,1-.785-1.172.517.517,0,0,0-.081-.113V103.4a3.848,3.848,0,0,0-2.232-3.5c-.139-.064-.274-.128-.405-.2a2.273,2.273,0,0,0,.912-1.962V95.537l.724.009h.007a.537.537,0,0,0,.007-1.072l-.8-.011a2.141,2.141,0,0,0-.211-.544l.569-.7a.536.536,0,0,0-.832-.676l-.483.589a2.146,2.146,0,0,0-.613-.263v-.711a.537.537,0,1,0-1.072,0v.716a2.145,2.145,0,0,0-.613.263l-.483-.589a.537.537,0,0,0-.832.677l.569.7a2.177,2.177,0,0,0-.212.549l-.269.006a.537.537,0,0,0,.013,1.072h.194v1.962a5.4,5.4,0,0,1-.566-.58.537.537,0,0,0-.909.1,4.139,4.139,0,0,1-1.53,1.593,11.851,11.851,0,0,1-.534-3.63V92.513a.537.537,0,1,0-1.072,0v2.482a12.774,12.774,0,0,0,.657,4.166,1.536,1.536,0,0,0-.617,1.585,1.74,1.74,0,0,0,1.379,1.177v2.858a1.8,1.8,0,0,0,.2,2.391c-.01.994-.078,2.6-.2,4.774a.536.536,0,0,0,1.07.061c.127-2.22.2-3.854.2-4.864l1.518-1.478a.537.537,0,0,0-.747-.77L4.3,106.14a.75.75,0,0,1-.051-.2.732.732,0,0,1,.2-.579l.012-.012,3.181-3.172a.537.537,0,1,0-.757-.759L4.6,103.687v-2.209a.537.537,0,0,0-.491-.535c-.294-.025-.859-.2-.914-.434a.5.5,0,0,1,.258-.521,6.28,6.28,0,0,0,2.37-1.846,15.673,15.673,0,0,0,4.276,2.739,2.774,2.774,0,0,1,1.606,2.521v7.822a1.416,1.416,0,0,1-.491,1.066l-2.29,1.993,1.589-5.911a.537.537,0,0,0-1.036-.279L7.437,115.7a1.177,1.177,0,0,0,.452,1.538l.468.28a.1.1,0,0,1,.053.09.108.108,0,0,1-.048.1L4.373,120.38a.2.2,0,0,1-.31-.181c.069-.95.173-2.422.28-4.047a.49.49,0,0,0-.011-.138l3.31-6.161a.537.537,0,0,0-.945-.507l-3.969,7.387a.536.536,0,0,0,.219.726.544.544,0,0,0,.23.063c-.071,1.035-.135,1.943-.182,2.6a1.26,1.26,0,0,0,.629,1.189l.012.006-.062.918H3.557a1.831,1.831,0,0,0-1.829,1.829v.9C.239,124.964,16.6,124.956,14.587,124.964Zm-5.7-31.09a1.1,1.1,0,0,1,1.095,1.07,2.145,2.145,0,0,0-2.189,0A1.1,1.1,0,0,1,8.888,93.874Zm-1.1,4.416V96.813a1.1,1.1,0,1,1,2.191,0v.941c0,.829-.383,1.256-1.135,1.275-.4-.236-.756-.466-1.061-.68A.541.541,0,0,0,7.791,98.29ZM2.8,124.064a.756.756,0,0,1,.755-.756H8.136a.537.537,0,1,0,0-1.072H4.645l.062-.835a1.275,1.275,0,0,0,.264-.132L8.956,118.6a1.177,1.177,0,0,0-.052-2l-.468-.279a.108.108,0,0,1-.053-.083.1.1,0,0,1,.037-.091l2.69-2.34.56,8.427h-.634a.537.537,0,0,0,0,1.072h1.721a.756.756,0,0,1,.755.756v.9H2.8Z" transform="translate(-0.832 -82.61)" fill="#444"/>
        </g>
      </g>
    </g>
    <rect id="사각형_3044" data-name="사각형 3044" width="24" height="1" rx="0.5" transform="translate(135.228 255.397)" fill="#444"/>
    <rect id="사각형_3045" data-name="사각형 3045" width="11" height="1" rx="0.5" transform="translate(161.228 255.397)" fill="#444"/>
    <path id="패스_5475" data-name="패스 5475" d="M289.813,399.906l.435.881a.318.318,0,0,0,.239.174l.973.141a.318.318,0,0,1,.176.542l-.7.686a.318.318,0,0,0-.092.281l.166.969a.318.318,0,0,1-.461.335l-.87-.457a.317.317,0,0,0-.3,0l-.87.457a.318.318,0,0,1-.461-.335l.166-.969a.318.318,0,0,0-.092-.281l-.7-.686a.318.318,0,0,1,.176-.542l.973-.141a.318.318,0,0,0,.239-.174l.435-.881A.318.318,0,0,1,289.813,399.906Z" transform="translate(-142.3 -176.469)" fill="#fff"/>
    <path id="패스_5476" data-name="패스 5476" d="M288.88,399.84l.272.551a.2.2,0,0,0,.15.109l.608.088a.2.2,0,0,1,.11.339l-.44.429a.2.2,0,0,0-.057.176l.1.605a.2.2,0,0,1-.288.21l-.544-.286a.2.2,0,0,0-.185,0l-.544.286a.2.2,0,0,1-.288-.21l.1-.605a.2.2,0,0,0-.057-.176l-.44-.429a.2.2,0,0,1,.11-.339l.608-.088a.2.2,0,0,0,.15-.109l.272-.551A.2.2,0,0,1,288.88,399.84Z" transform="translate(-147.529 -178.726)" fill="#9dc5f8"/>
  </g>
</svg>
