<svg id="logo_shinhan" xmlns="http://www.w3.org/2000/svg" xmlns:xlink="http://www.w3.org/1999/xlink" width="72" height="14" viewBox="0 0 72 14">
  <defs>
    <radialGradient id="radial-gradient" cx="0.548" cy="-0.446" r="0.469" gradientTransform="matrix(0.988, 0, 0, -1, -0.168, 18.051)" gradientUnits="objectBoundingBox">
      <stop offset="0" stop-color="#fff"/>
      <stop offset="1" stop-color="#c8883c"/>
    </radialGradient>
    <radialGradient id="radial-gradient-2" cx="0.467" cy="-0.42" r="1.034" gradientTransform="matrix(0.988, 0, 0, -1, -0.163, 17.291)" gradientUnits="objectBoundingBox">
      <stop offset="0" stop-color="#00b5f1"/>
      <stop offset="0.219" stop-color="#0087ce"/>
      <stop offset="0.284" stop-color="#0074bf"/>
      <stop offset="0.371" stop-color="#0063b0"/>
      <stop offset="0.465" stop-color="#0058a7"/>
      <stop offset="0.573" stop-color="#0055a5"/>
      <stop offset="1" stop-color="#0055a5"/>
    </radialGradient>
    <clipPath id="clip-path">
      <path id="SVGID" d="M463.75,517.867a6.018,6.018,0,1,0,.278-.006c-.092,0-.184,0-.278.006" transform="translate(-458.014 -517.861)" fill="url(#radial-gradient)"/>
    </clipPath>
    <clipPath id="clip-path-2">
      <path id="SVGID-2" data-name="SVGID" d="M462.572,528.95a3.814,3.814,0,0,1-2.174-.882,4.213,4.213,0,0,1-1.237-1.993c-.2-.688-.278-1.492.047-1.429.1.02.275.463.462.784a2.061,2.061,0,0,0,.5.628c.068.052.3-.459.632-.75.193-.16.405-.215.44.263.041.585-.065,1.285.106,1.285s.522-.122,1.315-.188c.3-.026.466.029.182.431a3.019,3.019,0,0,1-.78.8c.673.63,1.482.556,1.5.823.009.154-.292.239-.688.239a3.01,3.01,0,0,1-.305-.016m2.27-5.669a.97.97,0,0,1-.745-.691,2.05,2.05,0,0,1-.022-.763,5.155,5.155,0,0,1,.469-1.492c.275-.692-.394-1.1-.284-1.352.151-.344.628.093,1.162.124.459.026.733,0,1.089.051a2.216,2.216,0,0,1,1.293.52c.231.271-.121.6-.547.4-.311-.152-.7-.06-.473.265a1.062,1.062,0,0,0,.691.391.714.714,0,0,1,.266,1.33c-.6.438-1.2.257-1.446-.6-.121-.427-.421-.644-.732-.521s-.124.681.108,1.2c.407,1.039-.416,1.146-.729,1.146a.925.925,0,0,1-.1,0m-.447,5.864c0-.138.2-.173.2-.173,1.8-.354,1.274-1.535.636-2.137-.267-.254-2.773-2.417-2.773-2.417-2.392-2.058-2.2-3.665-2.2-3.665.116-1.977,1.847-2.466,3.156-2.353.154.013.238.106.213.234s-.233.149-.233.149a2.147,2.147,0,0,0-1.072.259c-1.057.71-.743,1.919.663,3.26.178.171.365.349.559.53,0,0,.283.248.843.784,1.085,1,1.677,1.536,1.677,1.536,1.908,1.587,1.258,3.039.526,3.545a3.624,3.624,0,0,1-1.979.608l-.025,0a.176.176,0,0,1-.186-.16m-.726-11.437a6.081,6.081,0,1,0,.281-.007q-.139,0-.281.007" transform="translate(-457.857 -517.701)" fill="url(#radial-gradient-2)"/>
    </clipPath>
  </defs>
  <g id="그룹_10" data-name="그룹 10" transform="translate(1.841 0.98)">
    <g id="그룹_9" data-name="그룹 9" clip-path="url(#clip-path)">
      <rect id="사각형_4" data-name="사각형 4" width="12.301" height="12.157" transform="translate(-0.144 0)" fill="url(#radial-gradient)"/>
    </g>
  </g>
  <g id="그룹_12" data-name="그룹 12" transform="translate(1.76 0.898)">
    <g id="그룹_11" data-name="그룹 11" clip-path="url(#clip-path-2)">
      <rect id="사각형_5" data-name="사각형 5" width="12.468" height="12.322" transform="translate(-0.146 0)" fill="url(#radial-gradient-2)"/>
    </g>
  </g>
  <path id="패스_42" data-name="패스 42" d="M487.657,524.584a3.588,3.588,0,0,0,2.846,1.479l.106-.006v-.589l-.1-.015c-1.357-.167-2.146-1.272-2.162-3.038V522.3h-1.814c-.081,0-.293,0-.293.166,0,.057.023.189.233.189a.9.9,0,0,1,.24.026c.073.017.149.054.169.284a2.321,2.321,0,0,1-2.063,2.487l-.1.007v.6h.11a3.088,3.088,0,0,0,2.831-1.479" transform="translate(-469.095 -519.03)" fill="#6b6d70"/>
  <path id="패스_43" data-name="패스 43" d="M488.863,533.629c-.527,0-.772-.275-.772-.867v-1.615H486.4c-.081,0-.293,0-.293.168,0,.058.023.188.233.188a1.06,1.06,0,0,1,.241.024c.077.019.155.059.171.316v.567c0,.2.044,1.917,1.584,1.917h5v-.7Z" transform="translate(-469.768 -523.31)" fill="#6b6d70"/>
  <path id="패스_44" data-name="패스 44" d="M496.506,522.173c-.081,0-.293,0-.293.17,0,.056.024.184.233.184a.908.908,0,0,1,.239.028c.074.016.145.049.169.261v4.451h1.339v-5.094Z" transform="translate(-474.659 -518.967)" fill="#6b6d70"/>
  <path id="패스_45" data-name="패스 45" d="M502.915,524.183c0,1.025,1.154,1.856,2.57,1.856s2.571-.831,2.571-1.856a1.676,1.676,0,0,0-.831-1.363h1.1v-.692h-2.1v-.758h-1.694c-.08,0-.293,0-.293.169,0,.057.024.188.233.188a.92.92,0,0,1,.241.026c.075.019.152.055.17.3v.075H502.4l.408.692h.934a1.677,1.677,0,0,0-.831,1.363m2.577,1.131a1.188,1.188,0,1,1,1.263-1.184,1.226,1.226,0,0,1-1.263,1.184" transform="translate(-477.656 -518.579)" fill="#6b6d70"/>
  <path id="패스_46" data-name="패스 46" d="M506.877,533.634c-.693,0-.77-.277-.77-.868v-1.616h-1.691c-.08,0-.292,0-.292.172,0,.056.022.186.233.186a.9.9,0,0,1,.241.027c.075.017.153.055.17.3v.571c0,1.254.548,1.917,1.584,1.917h5.011v-.695Z" transform="translate(-478.488 -523.312)" fill="#6b6d70"/>
  <path id="패스_47" data-name="패스 47" d="M517.475,524.231v-.7h-1.12v-1.359h-1.685c-.078,0-.292,0-.292.17,0,.056.022.184.232.184a.874.874,0,0,1,.24.028c.065.014.129.044.159.2v4.513h1.346v-3.036Z" transform="translate(-483.451 -518.967)" fill="#6b6d70"/>
  <path id="패스_48" data-name="패스 48" d="M557.111,530.994l.407.673h3.421v2.589h1.383v-2.589h3.195v-.673Z" transform="translate(-504.131 -523.236)" fill="#6b6d70"/>
  <path id="패스_49" data-name="패스 49" d="M557.808,522.871a.983.983,0,0,1,.236.026c.077.018.155.057.171.311v1.2a1.594,1.594,0,0,0,1.56,1.755h5.634v-.689h-5.115c-.7,0-.759-.37-.759-.718v-.087h5.738v-.68h-5.738V523.2h5.874v-.68h-7.543c-.086,0-.287,0-.287.165,0,.055.021.184.229.184" transform="translate(-504.358 -519.137)" fill="#6b6d70"/>
  <path id="패스_50" data-name="패스 50" d="M578.049,523.322h1.477v-.751h-4.865l.4.751H576.6c.083,3.016-.546,4.7-1.979,5.37l-.065.031v.587l.13-.019c.747-.106,1.717-.5,2.673-2.538.585,1.266,1.643,2.542,2.724,2.542h.113v-.578l-.075-.027c-1.45-.527-2.277-2.655-2.075-5.366" transform="translate(-512.576 -519.16)" fill="#6b6d70"/>
  <path id="패스_51" data-name="패스 51" d="M588.4,524.29H587.27v-2.117h-1.685c-.08,0-.293,0-.293.169,0,.058.021.189.232.189a.922.922,0,0,1,.24.027c.071.014.146.048.168.26v7.169h1.338V525.01H588.4Z" transform="translate(-517.77 -518.967)" fill="#6b6d70"/>
  <path id="패스_52" data-name="패스 52" d="M544.566,524.634c1.956,0,3.49-.67,3.49-1.529s-1.534-1.53-3.49-1.53-3.491.673-3.491,1.53,1.533,1.529,3.491,1.529m.011-2.351c1.2,0,2.1.353,2.1.821s-.921.822-2.1.822-2.1-.362-2.1-.822.9-.821,2.1-.821" transform="translate(-496.371 -518.678)" fill="#6b6d70"/>
  <path id="패스_53" data-name="패스 53" d="M539.247,528.081l.413.683h1.893v.995c-.9.329-1.484.866-1.484,1.484,0,1.025,1.589,1.826,3.615,1.826s3.616-.8,3.616-1.826c0-.593-.534-1.112-1.379-1.443v-1.035h1.842v-.683Zm4.447,4.261c-1.277,0-2.239-.475-2.239-1.105s.962-1.1,2.239-1.1,2.24.474,2.24,1.1-.963,1.105-2.24,1.105m-.009-2.924a7.267,7.267,0,0,0-.868.052v-.7h1.843v.717a7.29,7.29,0,0,0-.975-.064" transform="translate(-495.486 -521.827)" fill="#6b6d70"/>
  <path id="패스_54" data-name="패스 54" d="M522.474,530.529c-.078,0-.293,0-.293.173,0,.055.025.186.233.186a.947.947,0,0,1,.24.027c.075.017.151.053.17.29v1.068c0,.9.186,1.7,1.581,1.7h5.031v-3.443Zm5.625,2.759H524.93c-.721,0-.768-.108-.768-.865v-1.187H528.1Z" transform="translate(-487.227 -523.011)" fill="#6b6d70"/>
  <path id="패스_55" data-name="패스 55" d="M528.78,525.213l.2-1.6a1.144,1.144,0,0,0-.287-.847,1.541,1.541,0,0,0-1.128-.294H522l.408.7H527.4c.169,0,.233,0,.233.289l-.2,1.751h-6.164l.393.725h8.119v-.725Z" transform="translate(-486.787 -519.114)" fill="#6b6d70"/>
  <rect id="사각형_14" data-name="사각형 14" width="72" height="14" fill="none"/>
</svg>
