<svg id="logo_mirae" xmlns="http://www.w3.org/2000/svg" width="83" height="29" viewBox="0 0 83 29">
  <rect id="사각형_30" data-name="사각형 30" width="83" height="29" fill="red" opacity="0"/>
  <g id="그룹_37" data-name="그룹 37" transform="translate(1.5 0.5)">
    <path id="패스_150" data-name="패스 150" d="M38.149,448.828c-.074.5-1.088,7.583-1.183,8.244h2.269c.071-.5,1.087-7.585,1.183-8.244Z" transform="translate(-26.138 -438.291)" fill="#00427a"/>
    <path id="패스_151" data-name="패스 151" d="M69.819,448.828c-.072.5-1.087,7.583-1.182,8.244h5.324c.05-.363.186-1.318.253-1.78H70.989l.218-1.524h2.926c.051-.353.175-1.21.239-1.661H71.445l.217-1.5H74.8c.053-.361.19-1.317.256-1.776Z" transform="translate(-39.227 -438.291)" fill="#00427a"/>
    <path id="패스_152" data-name="패스 152" d="M23.814,453.551s1.9-4.345,2.048-4.723H28.72c0,.577-.381,7.658-.376,8.244H26.288l.34-5.773s-2.313,5.4-2.468,5.773H22.535L21.8,451.3c-.053.262-.824,4.117-1.245,5.773H18.512c.214-.735,1.78-7.822,1.9-8.244h2.753Z" transform="translate(-18.512 -438.291)" fill="#00427a"/>
    <path id="패스_153" data-name="패스 153" d="M60.007,455.4s.148,1.342.2,1.669h2.178c-.121-.68-1.309-7.762-1.4-8.244H58.23c-.159.344-3.3,7.432-3.677,8.244h2.21c.119-.278.679-1.668.679-1.668Zm-1.942-1.7,1.3-3.059.425,3.059Z" transform="translate(-33.407 -438.291)" fill="#00427a"/>
    <path id="패스_154" data-name="패스 154" d="M46.114,450.374h.506a1.23,1.23,0,0,1,.974.315,1,1,0,0,1,.18.825s-.07.631-.483.83a1.575,1.575,0,0,1-.759.2H45.506l1.938,4.529h2.2L47.981,453.6a2.044,2.044,0,0,0,2-2.051,4.174,4.174,0,0,0,.043-.56,2.054,2.054,0,0,0-.454-1.395,2.878,2.878,0,0,0-2.18-.763H44.274c-.073.5-1.087,7.583-1.185,8.243h2.069c.068-.461.956-6.7.956-6.7" transform="translate(-28.669 -438.291)" fill="#00427a"/>
    <path id="패스_155" data-name="패스 155" d="M150.352,430.87c-1.324,5.484-6.08,8.474-8.877,10.071l-.12-.161c1.149-.932,5.083-3.837,6.34-8.647Z" transform="translate(-69.279 -430.87)" fill="#f48120"/>
    <path id="패스_156" data-name="패스 156" d="M119.094,455.421h0l-.072.012.072-.012" transform="translate(-60.05 -441.016)" fill="#00427a"/>
    <path id="패스_157" data-name="패스 157" d="M124.213,454.4l.121-.028-.126.028Z" transform="translate(-62.193 -440.581)" fill="#00427a"/>
    <path id="패스_158" data-name="패스 158" d="M117.942,455.6l-.142.022.142-.022" transform="translate(-59.545 -441.091)" fill="#00427a"/>
    <path id="패스_159" data-name="패스 159" d="M125.373,454.062l-.478.114.478-.114" transform="translate(-62.477 -440.455)" fill="#00427a"/>
    <path id="패스_160" data-name="패스 160" d="M116.677,455.806l.045-.007-.045.007" transform="translate(-59.08 -441.172)" fill="#00427a"/>
    <path id="패스_161" data-name="패스 161" d="M127.349,453.59l-.3.079.3-.079" transform="translate(-63.367 -440.259)" fill="#00427a"/>
    <path id="패스_162" data-name="패스 162" d="M110.6,456.517h0" transform="translate(-56.56 -441.469)" fill="#00427a"/>
    <path id="패스_163" data-name="패스 163" d="M131.339,452.322h0c-.228.075-.461.148-.7.224.24-.075.476-.149.7-.224" transform="translate(-64.849 -439.735)" fill="#00427a"/>
    <path id="패스_164" data-name="패스 164" d="M130.181,452.778c-.1.03-.194.059-.292.089.1-.029.2-.058.292-.089" transform="translate(-64.541 -439.924)" fill="#00427a"/>
    <path id="패스_165" data-name="패스 165" d="M128.907,453.009c-.327.1-.667.192-1.016.288.349-.1.689-.192,1.016-.288" transform="translate(-63.715 -440.019)" fill="#00427a"/>
    <path id="패스_166" data-name="패스 166" d="M126.469,453.823c-.1.024-.2.048-.3.075.1-.027.2-.051.3-.075" transform="translate(-63.004 -440.356)" fill="#00427a"/>
    <path id="패스_167" data-name="패스 167" d="M94.234,456.771h.019a.066.066,0,0,1-.019,0Z" transform="translate(-49.805 -441.573)" fill="#00427a"/>
    <path id="패스_168" data-name="패스 168" d="M100.611,456.944h0" transform="translate(-52.404 -441.645)" fill="#00427a"/>
    <path id="패스_169" data-name="패스 169" d="M99.14,456.933l-.158,0,.158,0" transform="translate(-51.768 -441.64)" fill="#00427a"/>
    <path id="패스_170" data-name="패스 170" d="M109.557,456.6l-.06.005.06-.005" transform="translate(-56.113 -441.503)" fill="#00427a"/>
    <path id="패스_171" data-name="패스 171" d="M107.356,456.749l-.045,0,.045,0" transform="translate(-55.21 -441.565)" fill="#00427a"/>
    <path id="패스_172" data-name="패스 172" d="M108.467,456.681c-.019,0-.038,0-.055,0,.017,0,.036,0,.055,0" transform="translate(-55.665 -441.537)" fill="#00427a"/>
    <path id="패스_173" data-name="패스 173" d="M106.217,456.811l.022,0a.1.1,0,0,0-.022,0" transform="translate(-54.758 -441.59)" fill="#00427a"/>
    <path id="패스_174" data-name="패스 174" d="M112.123,451.823c-.015-.006-.6-.3-.6-.3l-.008,0-.008-.005c-.193-.111-.646-.374-.646-.817a.678.678,0,0,1,.238-.527.949.949,0,0,1,.784-.16,2.88,2.88,0,0,1,1.329.736c.235-.45.682-1.307.841-1.615a3.821,3.821,0,0,0-1.926-.858,3.564,3.564,0,0,0-2.66.583,2.686,2.686,0,0,0-1.027,1.863,3.269,3.269,0,0,0-.023.386,2.171,2.171,0,0,0,.27,1.111c1.228-.028,2.519-.089,3.824-.2a3.842,3.842,0,0,0-.387-.2" transform="translate(-55.667 -438.044)" fill="#00427a"/>
    <path id="패스_175" data-name="패스 175" d="M130.194,448.828c-.049.345-.209,1.429-.285,1.96a32.755,32.755,0,0,0,5.332-1.96Z" transform="translate(-64.549 -438.291)" fill="#00427a"/>
    <path id="패스_176" data-name="패스 176" d="M111.208,450.878h0c-.225.075-.461.148-.7.224l-.147.044c-.1.031-.194.059-.292.089l-.156.047c-.327.1-.667.192-1.016.287-.063.018-.129.037-.194.054l-.3.079-.218.058c-.1.024-.2.049-.3.075s-.179.045-.269.065l-.478.114c-.093.022-.182.045-.277.065l-.121.028h0c-.931.211-1.922.411-2.972.59l-.072.012c-.189.032-.381.062-.575.094l-.142.022c-.2.031-.408.063-.614.093l-.045.008q-1.692.246-3.561.414h-.017c-.188.016-.38.033-.574.047l-.06.005-.582.043-.055,0-.6.037-.045,0c-.206.011-.411.022-.62.031l-.022,0q-1.574.076-3.255.077h-.087c-.246,0-.495,0-.745,0l-.158,0q-1.351-.018-2.767-.093h-.019v0q-2.147-.114-4.439-.368l1.757-1.653a24.611,24.611,0,0,0,2.435.56c-.267-1.594-.5-3-.539-3.2H85.605c-.16.344-3.3,7.432-3.677,8.244h2.211c.117-.278.861-2.049.861-2.049l2.3,0s.225,1.726.276,2.052h2.18c-.049-.268-.259-1.51-.5-2.955,1.552.086,3.109.1,4.559.082a.768.768,0,0,1,.111.4.722.722,0,0,1-.015.153.66.66,0,0,1-.278.443,1.418,1.418,0,0,1-1.027.113,3.493,3.493,0,0,1-1.713-1.1c-.283.462-.875,1.426-1.068,1.741a5.009,5.009,0,0,0,2.68,1.348,3.535,3.535,0,0,0,2.617-.591,2.847,2.847,0,0,0,1.124-1.918,3.039,3.039,0,0,0,.043-.657c1.554-.066,2.845-.163,3.675-.236a.869.869,0,0,1,.412.7,1.153,1.153,0,0,1-.014.153.666.666,0,0,1-.28.443,1.415,1.415,0,0,1-1.026.113,3.466,3.466,0,0,1-1.712-1.1l-1.071,1.741a5.018,5.018,0,0,0,2.678,1.348,3.53,3.53,0,0,0,2.617-.591,2.833,2.833,0,0,0,1.125-1.918,2.658,2.658,0,0,0-.047-1.207c.351-.052.689-.1,1.014-.155-.247,1.73-.479,3.352-.523,3.65h5.323c.052-.363.188-1.318.255-1.78H105.49l.22-1.524h2.925c.045-.316.149-1.037.216-1.507.4-.127.6-.2.6-.2s.99-.3,2.271-.772c-.184,1.291-.749,5.236-.828,5.785H113.2c.067-.489.889-6.194.889-6.194h1.667c.05-.355.209-1.487.283-2a29.369,29.369,0,0,1-4.832,2" transform="translate(-44.72 -438.291)" fill="#00427a"/>
    <path id="패스_177" data-name="패스 177" d="M101.834,452.237a3.412,3.412,0,0,0-.7-.414l-.6-.3-.012,0-.008-.006c-.194-.11-.645-.374-.645-.816a.681.681,0,0,1,.236-.527.956.956,0,0,1,.784-.16,2.9,2.9,0,0,1,1.332.736c.233-.45.681-1.307.838-1.615a3.811,3.811,0,0,0-1.925-.859,3.566,3.566,0,0,0-2.66.584,2.693,2.693,0,0,0-1.028,1.863,3.143,3.143,0,0,0-.022.386,2.291,2.291,0,0,0,.194.965l.141.009c1.033.079,2.444.143,4.072.155" transform="translate(-51.125 -438.044)" fill="#00427a"/>
    <path id="패스_178" data-name="패스 178" d="M121.61,450.6h3.14c.052-.361.19-1.317.255-1.776H119.77c-.032.213-.235,1.615-.462,3.209.724-.09,1.442-.2,2.143-.322Z" transform="translate(-60.168 -438.291)" fill="#00427a"/>
    <path id="패스_179" data-name="패스 179" d="M61.4,467.229l-.988,5.6H57.521a.927.927,0,0,1-.666-.194.593.593,0,0,1-.128-.561l.854-4.845Zm-2.867.9-.674,3.794h1.59l.667-3.794Zm5.091-1.031-1.142,6.482H61.358l1.143-6.482Z" transform="translate(-34.298 -445.84)" fill="#00427a"/>
    <path id="패스_180" data-name="패스 180" d="M73.307,467.231l-.53,3.008H71.3L70.992,472h2l.866-4.9h1.128l-.455,2.574h.84l.454-2.574H76.95l-1.143,6.48H74.686l.539-3.067h-.838l-.541,3.073H72.712l.133-.756H70.7a1.055,1.055,0,0,1-.689-.182.566.566,0,0,1-.152-.56l.45-2.552h1.464l.256-1.482H70.57l.144-.817Z" transform="translate(-39.726 -445.84)" fill="#00427a"/>
    <path id="패스_181" data-name="패스 181" d="M86.48,470.118a5.429,5.429,0,0,1-.81,2.1,1.7,1.7,0,0,1-1.4.861,1.123,1.123,0,0,1-1.112-.9,4.545,4.545,0,0,1-.036-2.162,5.279,5.279,0,0,1,.787-2.1,1.74,1.74,0,0,1,1.426-.884,1.07,1.07,0,0,1,1.021.674,3.328,3.328,0,0,1,.212,1.685,7.151,7.151,0,0,1-.093.733m-.416.355.164-.837h.745l.455-2.571h1.091l-1.142,6.481h-1.1l.543-3.073ZM84.606,468.4a7.159,7.159,0,0,0-.444,1.616,7.057,7.057,0,0,0-.139,1.685q.049.674.369.674.3,0,.6-.674a7.629,7.629,0,0,0,.456-1.685,6.437,6.437,0,0,0,.125-1.616c-.036-.444-.157-.666-.36-.666s-.414.222-.6.666m5.573-1.333-1.144,6.482h-1.1l1.142-6.482Z" transform="translate(-45.169 -445.813)" fill="#00427a"/>
    <path id="패스_182" data-name="패스 182" d="M99.046,467.146A5.107,5.107,0,0,0,99,469.106a1.714,1.714,0,0,0,.722,1.08l-.668.473a2.443,2.443,0,0,1-.645-.653,4.487,4.487,0,0,1-.337-.592,6.377,6.377,0,0,1-.543.583,4.788,4.788,0,0,1-.879.676l-.5-.479a3.24,3.24,0,0,0,1.073-1.034,5.51,5.51,0,0,0,.7-2.014Zm2.683-.05-.652,3.7H99.965l.319-1.811h-.8l.128-.735h.807l.2-1.152Zm1.662,0-.651,3.7h-1.112l.651-3.7Zm-2.349,5.247a3.4,3.4,0,0,0,1.572.614l-.586.645a4.814,4.814,0,0,1-1.463-.494,2.251,2.251,0,0,1-.9-.831,3.456,3.456,0,0,1-1.219.838,6.755,6.755,0,0,1-1.764.517l-.314-.637a4.821,4.821,0,0,0,1.827-.622,2.062,2.062,0,0,0,1.119-1.348h1.125a1.3,1.3,0,0,0,.6,1.317" transform="translate(-50.598 -445.84)" fill="#00427a"/>
    <path id="패스_183" data-name="패스 183" d="M116.655,467.313l-.131.743h-2.336c-.049.28.175.524.674.729a6.123,6.123,0,0,0,1.9.384l-.591.587a9.64,9.64,0,0,1-1.749-.3,2.246,2.246,0,0,1-.956-.473,3.386,3.386,0,0,1-1.152.473,12.512,12.512,0,0,1-1.785.3l-.323-.594a6.634,6.634,0,0,0,2-.384c.524-.194.812-.435.861-.722h-2.23l.131-.743Zm-.053,2.859-.131.744h-6.622l.133-.744Zm-5.015,2.069c-.3.1-.466.215-.491.36s.1.259.364.355a4.125,4.125,0,0,0,1.322.165,4.585,4.585,0,0,0,1.359-.165c.3-.1.471-.215.5-.355s-.1-.264-.371-.36a4.208,4.208,0,0,0-1.3-.157,4.921,4.921,0,0,0-1.379.157m3.624-.511c.437.235.626.526.563.871s-.35.637-.87.873a5.475,5.475,0,0,1-2.254.4,4.608,4.608,0,0,1-2.137-.4c-.438-.236-.623-.527-.563-.873s.35-.636.871-.871a5.633,5.633,0,0,1,2.274-.393,4.583,4.583,0,0,1,2.115.393" transform="translate(-56.259 -445.931)" fill="#00427a"/>
    <path id="패스_184" data-name="패스 184" d="M130.009,467.094l-.867,4.913H128.01l.1-.6h-1.3l.129-.729h1.3l.093-.513h-2.483l-.259,1.473h-.931l-.2,1.158h4.589l-.13.743H124.2a1.2,1.2,0,0,1-.75-.173.554.554,0,0,1-.125-.55l.261-1.476h.929l.207-1.175H123.07l.129-.729h2.836a3,3,0,0,0,.255-.631,8.314,8.314,0,0,0,.18-.842h-2.715l.131-.744h3.833l-.167.943a4.536,4.536,0,0,1-.158.648,4.044,4.044,0,0,1-.265.626h1.334l.412-2.346Z" transform="translate(-61.722 -445.84)" fill="#00427a"/>
  </g>
</svg>
