<svg xmlns="http://www.w3.org/2000/svg" xmlns:xlink="http://www.w3.org/1999/xlink" width="87" height="19" viewBox="0 0 87 19">
  <defs>
    <radialGradient id="radial-gradient" cx="0.561" cy="0.339" r="0.854" gradientTransform="translate(-0.019) scale(1.037 1)" gradientUnits="objectBoundingBox">
      <stop offset="0" stop-color="#e82721"/>
      <stop offset="0.59" stop-color="#ae081a"/>
      <stop offset="1" stop-color="#650810"/>
    </radialGradient>
    <radialGradient id="radial-gradient-2" cx="0.66" cy="0.884" r="0.795" gradientTransform="translate(0.08) scale(0.84 1)" gradientUnits="objectBoundingBox">
      <stop offset="0" stop-color="#e0e1e3"/>
      <stop offset="1" stop-color="#778086"/>
    </radialGradient>
  </defs>
  <g id="logo_eugene" transform="translate(0.328)">
    <rect id="사각형_12" data-name="사각형 12" width="87" height="19" transform="translate(-0.328)" fill="none"/>
    <path id="패스_13" data-name="패스 13" d="M589.773,41.454c-.182.442-.987.753-1.377,1.169-.961.961-.7,2.754.26,3.092.909.286.052-1.351.909-2.079.909-.675,3.274.546,1.377,2.131a4.3,4.3,0,0,0-.779.7c-1.533,1.559.961,3.3,2.78,3.066,1.637-.182,2.079-1.247,2.287-2.78.208-1.377-.052-1.845.156-2.858.676-1.9,2.91-.286,3.222.649,0-.1.026-.208.026-.312a5.921,5.921,0,0,0-5.924-5.924,5.852,5.852,0,0,0-4.6,2.234C589.357,39.765,590.163,40.519,589.773,41.454Z" transform="translate(-514.549 -37.549)" fill="url(#radial-gradient)"/>
    <path id="패스_14" data-name="패스 14" d="M594.725,51.144a5.889,5.889,0,0,0,2.962-4.807c-.286-.831-2.1-2.208-2.962-1.143v5.95Zm0-6.989V42.284a2.145,2.145,0,0,1,.493.234c.572.416.806,1.066.52,1.429A.863.863,0,0,1,594.725,44.154Zm-.26,1.533c-.208,1.013.052,1.481-.156,2.858-.208,1.533-.65,2.6-2.287,2.78-1.818.234-4.312-1.507-2.78-3.066a4.3,4.3,0,0,1,.779-.7c1.9-1.585-.467-2.806-1.377-2.131-.857.728,0,2.364-.909,2.079-.961-.337-1.221-2.131-.26-3.092.39-.416,1.2-.728,1.377-1.169.39-.935-.416-1.688-1.663-.909a5.9,5.9,0,0,0,7.535,8.808v-5.95a2.183,2.183,0,0,0-.26.494Zm.26-3.4v1.871a2.243,2.243,0,0,1-.494-.26c-.572-.416-.806-1.039-.52-1.429A.86.86,0,0,1,594.725,42.284Z" transform="translate(-513.629 -39.341)" fill="url(#radial-gradient-2)"/>
    <path id="패스_15" data-name="패스 15" d="M452.961,56.783h0a5.17,5.17,0,0,0,2.936-.753,1.872,1.872,0,0,0,.936-1.585,1.954,1.954,0,0,0-.936-1.637,5.17,5.17,0,0,0-2.936-.753h0v.779h0a2.4,2.4,0,0,1,1.533.468,1.392,1.392,0,0,1,.546,1.144,1.344,1.344,0,0,1-.546,1.117,2.553,2.553,0,0,1-1.533.442h0v.779Zm0,1.507v-.857h5.066v.857h-1.949v2.728h-1.793V58.29ZM450,52.808h0a1.955,1.955,0,0,0-.935,1.637A1.873,1.873,0,0,0,450,56.03a5.088,5.088,0,0,0,2.962.753V56a2.529,2.529,0,0,1-1.559-.442,1.321,1.321,0,0,1-.52-1.117,1.369,1.369,0,0,1,.52-1.144,2.375,2.375,0,0,1,1.559-.468v-.779a5.088,5.088,0,0,0-2.962.753Zm2.962,4.625v.857h-1.429v2.728h-1.819V58.29h-1.975v-.857Z" transform="translate(-446.769 -44.201)" fill="#ae081a"/>
    <path id="패스_16" data-name="패스 16" d="M485.8,52.508v6h1.9v-6Z" transform="translate(-465.19 -44.42)" fill="#ae081a"/>
    <path id="패스_17" data-name="패스 17" d="M470.324,52.81v.857h2.13v.052a2.622,2.622,0,0,1-2.26,2.65v.987a3.429,3.429,0,0,0,3.43-2.495l.078-.13.052.13a3.428,3.428,0,0,0,3.429,2.495V56.37a2.622,2.622,0,0,1-2.26-2.65v-.052h2.157V52.81Z" transform="translate(-457.636 -44.567)" fill="#ae081a"/>
    <path id="패스_18" data-name="패스 18" d="M472.409,63.232v2.234a1.031,1.031,0,0,0,.936.961h7.9V65.57H474.2V63.232Z" transform="translate(-458.708 -49.61)" fill="#ae081a"/>
    <path id="패스_19" data-name="패스 19" d="M496.833,66.7V64.617H492.6v-.831h10.289v.831H498.7V66.7Z" transform="translate(-468.479 -49.878)" fill="#ae081a"/>
    <path id="패스_20" data-name="패스 20" d="M562.379,52.81v.831h4.547V57.3h1.793V53.771a1.063,1.063,0,0,0-1.013-.961Z" transform="translate(-502.25 -44.567)" fill="#ae081a"/>
    <path id="패스_21" data-name="패스 21" d="M532.33,52.558v2.157h1.481v.936H532.33v5.612h-1.871v-8.7Z" transform="translate(-486.802 -44.445)" fill="#ae081a"/>
    <path id="패스_22" data-name="패스 22" d="M564.565,64.232V62.7h1.481V61.243h2.6v-.831h-7.171v.831h2.754v1.066h-1.481V64.05h0a1.066,1.066,0,0,0,.987,1.014h7.69v-.831Z" transform="translate(-501.812 -48.246)" fill="#ae081a"/>
    <path id="패스_23" data-name="패스 23" d="M573.254,57.928v.858h2v.572h1.871V52.81h-1.871v5.118Z" transform="translate(-507.513 -44.567)" fill="#ae081a"/>
    <path id="패스_24" data-name="패스 24" d="M495.978,56.655V55.486h6.547v-.858h-6.547v-.961h6.911V52.81h-8.729v3.638a1.093,1.093,0,0,0,.987,1.065h7.742v-.858Z" transform="translate(-469.234 -44.567)" fill="#ae081a"/>
    <path id="패스_25" data-name="패스 25" d="M545.413,66.467h0a7,7,0,0,0,3.065-.572c.65-.338.988-.753.988-1.221a1.516,1.516,0,0,0-.988-1.273,7.159,7.159,0,0,0-3.065-.572h0v.65h0a2.684,2.684,0,0,1,1.455.337,1.038,1.038,0,0,1,.52.858.928.928,0,0,1-.52.806,2.684,2.684,0,0,1-1.455.337h0ZM542.321,63.4h0a1.472,1.472,0,0,0-.987,1.273c0,.468.312.883.987,1.221a7.05,7.05,0,0,0,3.092.572v-.65a2.662,2.662,0,0,1-1.481-.337h0a.93.93,0,0,1-.52-.806,1.039,1.039,0,0,1,.52-.858,2.721,2.721,0,0,1,1.481-.337v-.65A7.05,7.05,0,0,0,542.321,63.4Z" transform="translate(-492.065 -49.415)" fill="#ae081a"/>
    <path id="패스_26" data-name="패스 26" d="M540.662,52.81v.935h2.832l-.052.078c-.649,1.3-2.676,1.35-3.014,1.377v.857c2.806,0,3.975-.883,4.495-1.611l.052-.078.026.078c.52.727,1.689,1.611,4.495,1.611V55.2c-.338-.026-2.364-.078-3.014-1.377l-.052-.078h2.832V52.81Z" transform="translate(-491.627 -44.567)" fill="#ae081a"/>
    <path id="패스_27" data-name="패스 27" d="M539.572,60.412v.858h9.951v-.858Z" transform="translate(-491.213 -48.246)" fill="#ae081a"/>
    <path id="패스_28" data-name="패스 28" d="M520.524,53.719v-.078h1.818V52.81h-6.6v.831h1.845v.078c0,3.9-1.845,4.6-2.182,4.677v.883c2.91,0,3.637-4.417,3.637-4.417h0s.728,4.417,3.638,4.417V58.4C522.343,58.318,520.524,57.616,520.524,53.719Z" transform="translate(-479.517 -44.567)" fill="#ae081a"/>
  </g>
</svg>
