<svg id="hide" xmlns="http://www.w3.org/2000/svg" width="67" height="26" viewBox="0 0 67 26">
  <rect id="사각형_1522" data-name="사각형 1522" width="67" height="26" rx="11" fill="#f6f7fa"/>
  <path id="Icon_material-lock" data-name="Icon material-lock" d="M14.441,5.72h-.6V4.515a3.015,3.015,0,1,0-6.029,0V5.72h-.6A1.209,1.209,0,0,0,6,6.926v6.029a1.209,1.209,0,0,0,1.206,1.206h7.235a1.209,1.209,0,0,0,1.206-1.206V6.926A1.209,1.209,0,0,0,14.441,5.72Zm-3.618,5.426a1.206,1.206,0,1,1,1.206-1.206A1.209,1.209,0,0,1,10.823,11.147ZM12.692,5.72H8.954V4.515a1.869,1.869,0,1,1,3.738,0Z" transform="translate(23.1 4.355)" fill="#c0d0de"/>
</svg>
