<svg xmlns="http://www.w3.org/2000/svg" width="54.873" height="58.263" viewBox="0 0 54.873 58.263">
  <g id="그룹_2077" data-name="그룹 2077" transform="translate(-135.45 -44.463)">
    <path id="패스_4356" data-name="패스 4356" d="M176.957,96.976a1.14,1.14,0,0,1,0-2.281,3.5,3.5,0,1,0-1-6.852,1.141,1.141,0,0,1-.64-2.19,5.851,5.851,0,0,1,1.636-.233,5.777,5.777,0,1,1,0,11.555Z" transform="translate(5.483 5.751)" fill="#c7cbe9"/>
    <path id="패스_4357" data-name="패스 4357" d="M177.034,89.823a1.14,1.14,0,0,1-1.14-1.14,3.5,3.5,0,1,0-7,0,1.14,1.14,0,1,1-2.281,0,5.78,5.78,0,1,1,11.559,0A1.141,1.141,0,0,1,177.034,89.823Z" transform="translate(4.376 5.397)" fill="#c7cbe9"/>
    <path id="패스_4358" data-name="패스 4358" d="M143.031,96.976a5.777,5.777,0,1,1,1.635-11.321,1.141,1.141,0,1,1-.648,2.187,3.457,3.457,0,0,0-.988-.14,3.5,3.5,0,1,0,0,6.993,1.14,1.14,0,0,1,0,2.281Z" transform="translate(0.253 5.751)" fill="#c7cbe9"/>
    <path id="패스_4359" data-name="패스 4359" d="M152.636,89.823a1.142,1.142,0,0,1-1.14-1.14,3.5,3.5,0,1,0-6.991,0,1.14,1.14,0,0,1-2.281,0,5.776,5.776,0,1,1,11.552,0A1.14,1.14,0,0,1,152.636,89.823Z" transform="translate(0.951 5.397)" fill="#c7cbe9"/>
    <path id="패스_4360" data-name="패스 4360" d="M148.99,80.565a1.139,1.139,0,0,1-1.14-1.14V73.846a1.136,1.136,0,0,1,.318-.791l4.139-4.3a1.14,1.14,0,0,1,1.643,1.582l-3.819,3.97v2.743l.887-.713a1.141,1.141,0,0,1,1.428,1.779l-2.742,2.2A1.14,1.14,0,0,1,148.99,80.565Z" transform="translate(1.741 3.362)" fill="#c7cbe9"/>
    <path id="패스_4361" data-name="패스 4361" d="M170.655,80.565a1.133,1.133,0,0,1-.714-.251l-2.743-2.2a1.141,1.141,0,0,1,1.428-1.779l.888.713V74.305l-3.821-3.97a1.141,1.141,0,0,1,1.644-1.582l4.14,4.3a1.147,1.147,0,0,1,.318.791v5.579a1.14,1.14,0,0,1-1.14,1.14Z" transform="translate(4.202 3.362)" fill="#c7cbe9"/>
    <path id="패스_4362" data-name="패스 4362" d="M166.117,82.6a1.181,1.181,0,0,1-.217-.021,1.268,1.268,0,0,1-.147-.039H155.3l-.041.008a1.119,1.119,0,0,1-1.275-.663,37.4,37.4,0,0,1-2.876-15.527c0-12.491,5.743-21.892,9.468-21.892s9.466,9.4,9.466,21.892a37.524,37.524,0,0,1-2.869,15.527A1.141,1.141,0,0,1,166.117,82.6Zm-10.322-2.34h9.569a35.448,35.448,0,0,0,2.4-13.9c0-12.471-5.647-19.611-7.186-19.611s-7.187,7.14-7.187,19.611A35.341,35.341,0,0,0,155.795,80.256Z" transform="translate(2.199 0)" fill="#c7cbe9"/>
    <path id="패스_4363" data-name="패스 4363" d="M160.039,68.237a5.094,5.094,0,1,1,5.1-5.092A5.1,5.1,0,0,1,160.039,68.237Zm0-7.908a2.813,2.813,0,1,0,2.817,2.816A2.817,2.817,0,0,0,160.039,60.33Z" transform="translate(2.737 1.908)" fill="#c7cbe9"/>
    <path id="패스_4364" data-name="패스 4364" d="M165.648,83.144H154.659a1.141,1.141,0,0,1-1.12-1.357l.962-4.963a1.141,1.141,0,0,1,1.12-.923h9.205a1.14,1.14,0,0,1,1.126.959l.764,4.742a1.143,1.143,0,0,1-1.069,1.542Zm-9.607-2.281h8.246l-.432-2.681h-7.294Z" transform="translate(2.537 4.414)" fill="#c7cbe9"/>
    <path id="패스_4365" data-name="패스 4365" d="M161.363,74.577c0,2.7-.8,4.9-1.811,4.9s-1.81-2.194-1.81-4.9.809-4.9,1.81-4.9S161.363,71.868,161.363,74.577Z" transform="translate(3.13 3.54)" fill="#c7cbe9"/>
    <path id="패스_4366" data-name="패스 4366" d="M159.692,80.754c-2.038,0-2.95-3.032-2.95-6.037s.912-6.044,2.95-6.044,2.951,3.035,2.951,6.044S161.73,80.754,159.692,80.754Zm0-9.593a9.745,9.745,0,0,0,0,7.1,9.76,9.76,0,0,0,0-7.1Z" transform="translate(2.989 3.399)" fill="#c7cbe9"/>
    <rect id="사각형_2503" data-name="사각형 2503" width="11.779" height="2.281" transform="translate(157.197 52.637)" fill="#c7cbe9"/>
    <path id="패스_4367" data-name="패스 4367" d="M160.1,93.475a1.136,1.136,0,0,1-.76-.29,10.087,10.087,0,0,1-2.8-4.024l-.33.242a1.14,1.14,0,0,1-1.708-.437c-1.983-4.254-.014-7.255,1.306-8.247a1.141,1.141,0,0,1,1.372,1.822,3.9,3.9,0,0,0-1.091,4.123l.471-.347a1.141,1.141,0,0,1,1.814.853,6.645,6.645,0,0,0,1.729,3.558,6.294,6.294,0,0,0,1.713-3.544,1.145,1.145,0,0,1,1.82-.863l.862.643a5.207,5.207,0,0,0,.211-1.563,1.142,1.142,0,0,1,1.127-1.154A1.153,1.153,0,0,1,167,85.371a7.4,7.4,0,0,1-1.062,3.945,1.142,1.142,0,0,1-1.656.323l-.611-.455a9.783,9.783,0,0,1-2.816,4.009A1.138,1.138,0,0,1,160.1,93.475Z" transform="translate(2.558 5.058)" fill="#c7cbe9"/>
    <path id="패스_4368" data-name="패스 4368" d="M189.182,95.834H136.59a1.14,1.14,0,1,1,0-2.281h52.592a1.14,1.14,0,1,1,0,2.281Z" transform="translate(0 6.892)" fill="#c7cbe9"/>
  </g>
</svg>
