<svg xmlns="http://www.w3.org/2000/svg" width="12" height="12" viewBox="0 0 12 12">
  <path id="Icon_awesome-question-circle" data-name="Icon awesome-question-circle" d="M12.563,6.563a6,6,0,1,1-6-6A6,6,0,0,1,12.563,6.563ZM6.724,2.546A3.134,3.134,0,0,0,3.9,4.089a.291.291,0,0,0,.066.393l.839.637a.29.29,0,0,0,.4-.051C5.644,4.519,5.941,4.2,6.6,4.2c.494,0,1.106.318,1.106.8,0,.362-.3.548-.787.822-.569.319-1.322.716-1.322,1.709v.1a.29.29,0,0,0,.29.29H7.24a.29.29,0,0,0,.29-.29V7.595c0-.689,2.013-.717,2.013-2.581A2.76,2.76,0,0,0,6.724,2.546Zm-.161,6A1.113,1.113,0,1,0,7.675,9.659,1.114,1.114,0,0,0,6.563,8.546Z" transform="translate(-0.563 -0.563)" fill="#d3d3d3"/>
</svg>
