<svg id="슈퍼스톡" xmlns="http://www.w3.org/2000/svg" width="70" height="70" viewBox="0 0 70 70">
  <rect id="사각형_2818" data-name="사각형 2818" width="70" height="70" fill="red" opacity="0"/>
  <g id="그룹_2639" data-name="그룹 2639" transform="translate(-76.814 -104.938)">
    <path id="패스_675" data-name="패스 675" d="M126.242,193.558a6.139,6.139,0,1,1-6.139-6.14A6.139,6.139,0,0,1,126.242,193.558Z" transform="translate(-24.511 -57.046)" fill="#549ef4"/>
    <path id="패스_676" data-name="패스 676" d="M92.043,248.222l3.549,3.871,4.137-4.137a26.739,26.739,0,0,0,15.025-5.045s2.857-1.948,4.246,1.095c0,0,1.226,3.577-3.071,5.151,0,0-9.5,5.524-12.543,5.711v9.5H84.97v-9.527S85.129,248.97,92.043,248.222Z" transform="translate(0 -103.438)" fill="#549ef4"/>
    <path id="패스_677" data-name="패스 677" d="M175.256,129.812l-2.428-1.388v-6.592s.452-1.84,2.106-1.894H211.02s2.028.267,1.974,2.162v27.143a1.827,1.827,0,0,1-2.026,1.627c-1.841-.133-24.422,0-24.422,0l4.243-2.135h19.671V122.285H175.283Z" transform="translate(-74.272)" fill="#549ef4"/>
    <path id="패스_678" data-name="패스 678" d="M234.811,188.608l-1.227-2.054,7.043-4.3a1.3,1.3,0,0,1,2.03,0l4.458,3.443,5.737-4.884-1.6-1.468,5.2-.562-.293,5.2-1.63-1.627-6.645,5.552s-.8.908-1.869-.216l-4.457-3.468Z" transform="translate(-125.633 -49.749)" fill="#549ef4"/>
  </g>
</svg>
