<svg id="소비자독점" xmlns="http://www.w3.org/2000/svg" width="70" height="70" viewBox="0 0 70 70">
  <rect id="사각형_2817" data-name="사각형 2817" width="70" height="70" fill="red" opacity="0"/>
  <path id="패스_680" data-name="패스 680" d="M193.871,53.824a1.564,1.564,0,1,0,.455,1.106,1.564,1.564,0,0,0-.455-1.106m-39.006-.032a1.558,1.558,0,0,0-2.211,0,1.56,1.56,0,0,0,2.139,2.27h0l.018-.013,0-.009h0l.013-.013v0l.009-.009h0l0,0,.009-.009.009-.009v0l.009,0a1.564,1.564,0,0,0-.018-2.189Zm29.767,19.825a90.883,90.883,0,0,0-22.217,0c-2.568.379-4.161.781-4.161,1.11s1.593.731,4.161,1.11a80.043,80.043,0,0,0,11.111.682,80.06,80.06,0,0,0,11.106-.682c2.568-.379,4.161-.781,4.161-1.11S187.2,74,184.633,73.618ZM173.31,49.83l.181.014.23-.018h.009l0,0,.189-.041a1.563,1.563,0,0,0-.433-3.064,1.561,1.561,0,0,0-1.079.433l-.022.027a1.546,1.546,0,0,0-.46,1.1,1.564,1.564,0,0,0,.456,1.106,1.589,1.589,0,0,0,.736.415l.018,0,.018,0,.077.014.018,0Zm11.766-.37a.555.555,0,1,1,0,1.11h-1.859a.555.555,0,0,1,0-1.11Zm-23.143,1.11a.555.555,0,0,1,0-1.11h1.859a.555.555,0,1,1,0,1.11Zm-10.267,0a.555.555,0,0,1,0-1.11h3.507a.555.555,0,0,1,0,1.11Zm21.283-24.013a.555.555,0,0,1,1.11,0v5.4a.555.555,0,0,1-1.11,0v-5.4ZM194.864,37.8a.554.554,0,1,1,.528.975l-4.978,2.7a.554.554,0,1,1-.528-.975Zm-43.247.975a.554.554,0,0,1,.528-.975l4.978,2.7a.554.554,0,1,1-.528.975Zm32.335-6.819a.56.56,0,0,1,.763-.181.552.552,0,0,1,.18.763l-1.751,2.857a.556.556,0,0,1-.947-.582Zm-21.838.582a.552.552,0,0,1,.181-.763.559.559,0,0,1,.763.181l1.755,2.857a.554.554,0,0,1-.943.582Zm10.836,4.251a.555.555,0,1,1,1.11,0v3.046a.555.555,0,0,1-1.11,0V36.788Zm11.734,6.133a.553.553,0,1,1,.555.957L182.6,45.4a.553.553,0,1,1-.555-.957Zm-22.912.957a.553.553,0,0,1,.555-.957l2.64,1.525a.553.553,0,0,1-.555.957Zm17.04-4.161a.558.558,0,0,1,.753-.2.55.55,0,0,1,.2.754l-.93,1.611a.548.548,0,0,1-.754.2.556.556,0,0,1-.2-.753Zm-11.571.551a.552.552,0,0,1,.956-.551l.93,1.611a.552.552,0,0,1-.956.551Zm28.1,9.192a.555.555,0,1,1,0,1.11h-3.506a.555.555,0,1,1,0-1.11Zm-21.491,1.467h-.013l0,0H173.8l0,0h-.036l0,0h-.045l-.009,0h-.058l0,0h-.148c-.1,0-.2,0-.294-.013l-7.013,11.4-10.474-5.619-.063.063a2.532,2.532,0,0,1-.194.181l2.636,16.675.04-.022h0l.04-.022.032-.014.009,0,.045-.022.022-.009c3.642-1.719,14.161-1.719,15.245-1.719,1.421,0,11.3,0,15.127,1.665l.036.018.009,0,.045.018.023.013.022.009.045.022.009,0,.031.014.041.022h0l.04.022L191.543,57.3a2.443,2.443,0,0,1-.564-.393L180.87,62.34Z" transform="translate(-138.71 -16.002)" fill="#549ef4" fill-rule="evenodd"/>
</svg>
