<svg xmlns="http://www.w3.org/2000/svg" width="72" height="15" viewBox="0 0 72 15">
  <g id="logo_hana" transform="translate(0.34)">
    <path id="패스_29" data-name="패스 29" d="M697.611,19.025c-.108-.2-.108-.407-.215-.5a3.765,3.765,0,0,0-1.125-1.425,2.966,2.966,0,0,0-2.766.1,2.5,2.5,0,0,0-.826.921.773.773,0,0,0-.2.408,2.818,2.818,0,0,0,.2,2.227,1.323,1.323,0,0,0,.515.514.65.65,0,0,0,.718-.107c.311-.1.311-.5.311-.706a1.381,1.381,0,0,1,0-1.114c0-.107.1-.2.2-.31,0-.1.108-.1.2-.1a.6.6,0,0,1,.407-.108.657.657,0,0,1,.623.514,1.976,1.976,0,0,1,.2.8,13.353,13.353,0,0,1-.515,3.556.822.822,0,0,0-.1.407.375.375,0,0,0-.108.312.1.1,0,0,1,.108.1.721.721,0,0,0,.5-.2,6.118,6.118,0,0,0,1.437-2.539,2.306,2.306,0,0,0,.311-1.113A4.275,4.275,0,0,0,697.611,19.025Z" transform="translate(-687.473 -10.376)" fill="#2a6b5f"/>
    <path id="패스_30" data-name="패스 30" d="M701.606,12.506a.458.458,0,0,0-.407-.3,1.537,1.537,0,0,0-.515.2,19.36,19.36,0,0,1-9.949.909c-.623-.1-1.125-.2-1.748-.3-.3,0-.718-.107-1.018-.107s-.718-.1-.934.2c-.407.2-.3.815-.2,1.126a5.2,5.2,0,0,0,1.03,1.017,3.522,3.522,0,0,0,1.329.4c1.341-.1,2.574-.2,3.8-.4a23.573,23.573,0,0,0,6.465-1.328,10.585,10.585,0,0,0,1.844-1.018C701.4,12.817,701.606,12.71,701.606,12.506Z" transform="translate(-686.343 -9.448)" fill="#2a6b5f"/>
    <path id="패스_31" data-name="패스 31" d="M694.054,10.985a1.243,1.243,0,0,0,1.233,1.21,1.324,1.324,0,0,0,1.233-1.21.372.372,0,0,0-.108-.311,1.032,1.032,0,0,1-.2-.61c0-.407-.407-.407-.718-.407a3.559,3.559,0,0,0-.826.2.842.842,0,0,0-.407.407.863.863,0,0,0-.2.718Z" transform="translate(-687.818 -8.934)" fill="#ac1535"/>
    <path id="패스_32" data-name="패스 32" d="M753.392,18.713h5.843V17.9H754a.319.319,0,0,1-.311-.3v-.718h5.543v-.815h-5.543V15.06h5.543v-.813h-6.979v3.244A1.158,1.158,0,0,0,753.392,18.713Z" transform="translate(-699.565 -9.86)" fill="#1a1818"/>
    <path id="패스_33" data-name="패스 33" d="M751.609,21.8H754.9v2.741h1.533V21.8h3.281v-.815h-8.106Z" transform="translate(-699.434 -11.219)" fill="#1a1818"/>
    <path id="패스_34" data-name="패스 34" d="M715.786,13.992h-1.437v9.039h1.437V17.236h1.341v-.814h-1.341Z" transform="translate(-691.914 -9.809)" fill="#1a1818"/>
    <path id="패스_35" data-name="패스 35" d="M771.652,16.422v-2.43h-1.533v9.039h1.533V17.236h1.341v-.814Z" transform="translate(-703.17 -9.809)" fill="#1a1818"/>
    <path id="패스_36" data-name="패스 36" d="M709.189,20.238c-.623,0-1.137-1.018-1.137-2.239s.515-2.24,1.137-2.24c.718,0,1.221,1.018,1.221,2.24S709.907,20.238,709.189,20.238Zm.814-6.5H708.47v.815h-1.951v.813h1.329A3.4,3.4,0,0,0,706.615,18a2.87,2.87,0,0,0,2.574,3.052A2.935,2.935,0,0,0,711.847,18a3.394,3.394,0,0,0-1.221-2.635h1.329v-.813H710Z" transform="translate(-690.334 -9.757)" fill="#1a1818"/>
    <path id="패스_37" data-name="패스 37" d="M725.7,13.992H724.26v5.483a1.889,1.889,0,0,1-1.125.5h-2.359a.647.647,0,0,1-.611-.611V14.4h-1.437v4.968a1.453,1.453,0,0,0,1.437,1.425h2.562a2.594,2.594,0,0,0,1.533-.61v2.849H725.7V17.236h1.329v-.813H725.7Z" transform="translate(-692.799 -9.809)" fill="#1a1818"/>
    <path id="패스_38" data-name="패스 38" d="M737.212,15.467v-1.22h-7.076v.813h5.639v.8a2.7,2.7,0,0,1-.311,1.532h-5.951v.815h8.31V17.4H737S737.212,17.287,737.212,15.467Z" transform="translate(-694.975 -9.86)" fill="#1a1818"/>
    <path id="패스_39" data-name="패스 39" d="M731.732,20.911h4.2v2.335h-3.9a.261.261,0,0,1-.3-.3Zm-1.438,1.832c0,.813.407,1.316,1.018,1.316h6.154V20.1h-7.172Z" transform="translate(-695.133 -11.041)" fill="#1a1818"/>
    <path id="패스_40" data-name="패스 40" d="M744.931,18.717a3.389,3.389,0,0,0-1.03.1v-.706h2.047v.706A3.3,3.3,0,0,0,744.931,18.717Zm0,3.748c-1.03,0-1.952-.6-1.952-1.414a1.766,1.766,0,0,1,1.952-1.532,1.833,1.833,0,0,1,1.939,1.532C746.87,21.758,746.057,22.465,744.931,22.465Zm0-7.914a1.256,1.256,0,0,1,1.22,1.316,1.176,1.176,0,0,1-1.125,1.317,1.205,1.205,0,0,1-1.233-1.317A1.254,1.254,0,0,1,744.931,14.551Zm2.658,1.208c0-1.113-1.222-2.023-2.658-2.023s-2.671.911-2.671,2.023a1.7,1.7,0,0,0,.922,1.532h-2.359v.815h1.533v1.412a1.938,1.938,0,0,0-.815,1.425c0,1.329,1.533,2.335,3.39,2.335s3.375-1.006,3.375-2.335a2.073,2.073,0,0,0-.814-1.521V18.107h1.532v-.815h-2.358A1.677,1.677,0,0,0,747.589,15.759Z" transform="translate(-697.258 -9.757)" fill="#1a1818"/>
    <path id="패스_41" data-name="패스 41" d="M765.77,16.27V15.06h1.736v-.813H762.49v.813h1.737V16.27a5.174,5.174,0,0,1-1.952,4.371v.813a4.885,4.885,0,0,0,2.778-2.43s1.017,2.131,2.873,2.43h.1v-.706S765.77,20.138,765.77,16.27Z" transform="translate(-701.587 -9.86)" fill="#1a1818"/>
    <rect id="사각형_13" data-name="사각형 13" width="72" height="15" transform="translate(-0.34)" fill="none"/>
  </g>
</svg>
