<svg id="icon-morning" xmlns="http://www.w3.org/2000/svg" width="26" height="26" viewBox="0 0 26 26">
  <g id="그룹_1585" data-name="그룹 1585" transform="translate(-1794 4228)">
    <g id="빼기_11" data-name="빼기 11" transform="translate(1797 -4225)" fill="none">
      <path d="M14,20H2a2,2,0,0,1-2-2V2A2,2,0,0,1,2,0H14a2,2,0,0,1,2,2V18A2,2,0,0,1,14,20ZM2.4,1.4a1,1,0,0,0-1,1V17.6a1,1,0,0,0,1,1H14.6V2.4a1,1,0,0,0-1-1Z" stroke="none"/>
      <path d="M 14.00040054321289 19.99979972839355 L 1.999800086021423 19.99979972839355 C 0.8971101641654968 19.99979972839355 1.358032193365943e-07 19.10268974304199 1.358032193365943e-07 18 L 1.358032193365943e-07 1.999799847602844 C 1.358032193365943e-07 0.8971098661422729 0.8971101641654968 -1.358032193365943e-07 1.999800086021423 -1.358032193365943e-07 L 14.00040054321289 -1.358032193365943e-07 C 15.10309028625488 -1.358032193365943e-07 16.00020027160645 0.8971098661422729 16.00020027160645 1.999799847602844 L 16.00020027160645 18 C 16.00020027160645 19.10268974304199 15.10309028625488 19.99979972839355 14.00040054321289 19.99979972839355 Z M 2.400300025939941 1.399499893188477 C 1.848950147628784 1.399499893188477 1.400400161743164 1.848459839820862 1.400400161743164 2.400299787521362 L 1.400400161743164 17.59950065612793 C 1.400400161743164 18.15134048461914 1.848950147628784 18.60029983520508 2.400300025939941 18.60029983520508 L 14.59980010986328 18.60029983520508 L 14.59980010986328 2.400299787521362 C 14.59980010986328 1.848459839820862 14.15124988555908 1.399499893188477 13.5999002456665 1.399499893188477 L 2.400300025939941 1.399499893188477 Z" stroke="none" fill="#333"/>
    </g>
    <g id="패스_4283" data-name="패스 4283" transform="translate(1811.6 -4217)" fill="none">
      <path d="M0,0H5V9.5a2.5,2.5,0,0,1-5,0Z" stroke="none"/>
      <path d="M 1.400000095367432 1.399999618530273 L 1.400000095367432 9.5 C 1.400000095367432 10.10653972625732 1.893460035324097 10.60000038146973 2.5 10.60000038146973 C 3.106539964675903 10.60000038146973 3.599999904632568 10.10653972625732 3.599999904632568 9.5 L 3.599999904632568 1.399999618530273 L 1.400000095367432 1.399999618530273 M 0 0 L 5 0 L 5 9.5 C 5 10.88070964813232 3.880710124969482 12 2.5 12 C 1.119290113449097 12 0 10.88070964813232 0 9.5 L 0 0 Z" stroke="none" fill="#333"/>
    </g>
    <g id="패스_4285" data-name="패스 4285" transform="translate(1811 -4206)" fill="none">
      <path d="M0,0H3V1H0Z" stroke="none"/>
      <path d="M 0 0 L 3 0 L 3 1 L 0 1 L 0 0 Z" stroke="none" fill="#333"/>
    </g>
    <g id="패스_4286" data-name="패스 4286" transform="translate(1801 -4221)" fill="none">
      <path d="M0,0H6V6H0Z" stroke="none"/>
      <path d="M 1.400000095367432 1.400000095367432 L 1.400000095367432 4.599999904632568 L 4.599999904632568 4.599999904632568 L 4.599999904632568 1.400000095367432 L 1.400000095367432 1.400000095367432 M 0 0 L 6 0 L 6 6 L 0 6 L 0 0 Z" stroke="none" fill="#333"/>
    </g>
    <g id="패스_4287" data-name="패스 4287" transform="translate(1801 -4213.6)" fill="none">
      <path d="M0,0H8V1.4H0Z" stroke="none"/>
      <path d="M 0 0 L 8 0 L 8 1.399999976158142 L 0 1.399999976158142 L 0 0 Z" stroke="none" fill="#333"/>
    </g>
    <g id="패스_4288" data-name="패스 4288" transform="translate(1801 -4211)" fill="none">
      <path d="M0,0H8V1.4H0Z" stroke="none"/>
      <path d="M 0 0 L 8 0 L 8 1.399999976158142 L 0 1.399999976158142 L 0 0 Z" stroke="none" fill="#333"/>
    </g>
  </g>
  <rect id="사각형_2326" data-name="사각형 2326" width="26" height="26" fill="none"/>
</svg>
