<svg xmlns="http://www.w3.org/2000/svg" width="20" height="20" viewBox="0 0 20 20">
  <g id="heart_fill_on" data-name="heart fill_on" transform="translate(-3113 -58)">
    <rect id="사각형_4397" data-name="사각형 4397" width="20" height="20" transform="translate(3113 58)" fill="#aaa" opacity="0"/>
    <path id="heart_fill" data-name="heart fill" d="M8.117,1.233A4.7,4.7,0,0,1,10.276.121a4.943,4.943,0,0,1,2.4.057,4.729,4.729,0,0,1,2.135,1.25,4.824,4.824,0,0,1,1.242,2.127,4.943,4.943,0,0,1,.057,2.4A4.7,4.7,0,0,1,15,8.117L8.117,15,1.233,8.117A4.7,4.7,0,0,1,.121,5.957a4.943,4.943,0,0,1,.057-2.4A4.729,4.729,0,0,1,1.428,1.42,4.824,4.824,0,0,1,3.555.178a4.943,4.943,0,0,1,2.4-.057A4.7,4.7,0,0,1,8.117,1.233Z" transform="translate(3114.5 60.5)" fill="none" stroke="#404fc3" stroke-width="2"/>
  </g>
</svg>
