<svg xmlns="http://www.w3.org/2000/svg" width="26" height="39.045" viewBox="0 0 26 39.045">
  <g id="그룹_477" data-name="그룹 477" transform="translate(-117 -48.357)">
    <g id="C_-_35_growth_Business_care_finance_grow_growing_money_raise" data-name="C - 35, growth, Business, care, finance, grow, growing, money, raise" transform="translate(117 55.609)">
      <g id="그룹_475" data-name="그룹 475" transform="translate(0 0)">
        <path id="패스_685" data-name="패스 685" d="M140.71,323.475h9.22a.438.438,0,0,1,0,.877h-8.877l1.617,4.139h11.16l3.251-8.319h-9.67a.438.438,0,1,1,0-.876h10.013l1.944-4.975H137.133Z" transform="translate(-135.25 -296.698)" fill="#c7cbe9" fill-rule="evenodd"/>
        <path id="패스_686" data-name="패스 686" d="M129.562,125.9v10.013l-2.51-2.243a4.473,4.473,0,0,0-1.455-3.937,3.584,3.584,0,0,0-2.218-.685,6.81,6.81,0,0,0-2.185.4.438.438,0,0,0-.3.387c-.119,1.91.382,3.346,1.446,4.153a3.585,3.585,0,0,0,2.218.685h0a6.581,6.581,0,0,0,1.939-.325l3.061,2.736v3a.444.444,0,0,0,.009.088H117v2.468h26v-2.468H130.429a.437.437,0,0,0,.009-.088v-5.978l2.781-2.318a.428.428,0,0,0,.055.015,7.687,7.687,0,0,0,1.484.156,3.869,3.869,0,0,0,2.842-1.023c.946-.942,1.247-2.432.872-4.309a.438.438,0,0,0-.345-.344,7.684,7.684,0,0,0-1.484-.156,3.868,3.868,0,0,0-2.842,1.023,4.318,4.318,0,0,0-.955,3.808l-2.408,2.007V125.9" transform="translate(-117 -125.9)" fill="#c7cbe9" fill-rule="evenodd"/>
        <rect id="사각형_1042" data-name="사각형 1042" width="1.677" height="1.669" transform="translate(15.523 9.662)" fill="#c7cbe9"/>
        <rect id="사각형_1043" data-name="사각형 1043" width="1.677" height="1.669" transform="translate(18.882 9.662)" fill="#c7cbe9"/>
        <rect id="사각형_1044" data-name="사각형 1044" width="1.677" height="1.669" transform="translate(22.242 9.662)" fill="#c7cbe9"/>
        <rect id="사각형_1045" data-name="사각형 1045" width="1.677" height="1.669" transform="translate(0.404 9.662)" fill="#c7cbe9"/>
        <rect id="사각형_1046" data-name="사각형 1046" width="1.677" height="1.669" transform="translate(3.764 9.662)" fill="#c7cbe9"/>
        <rect id="사각형_1047" data-name="사각형 1047" width="1.677" height="1.669" transform="translate(7.124 9.662)" fill="#c7cbe9"/>
      </g>
    </g>
    <g id="그룹_476" data-name="그룹 476" transform="translate(126.178 48.357)">
      <path id="패스_687" data-name="패스 687" d="M254.275,78.456h.127l-.066-.39Z" transform="translate(-250.615 -75.287)" fill="#c7cbe9"/>
      <path id="패스_688" data-name="패스 688" d="M245.393,88.771l.118-.7h-.235Z" transform="translate(-242.457 -84.356)" fill="#c7cbe9"/>
      <path id="패스_689" data-name="패스 689" d="M218.865,48.357a3.726,3.726,0,1,0,3.726,3.726A3.726,3.726,0,0,0,218.865,48.357Zm2.088,3.62a.12.12,0,0,1-.017.075c-.011.013-.038.019-.082.019h-.517l-.362,1.594c-.006.034-.017.055-.031.061a.235.235,0,0,1-.082.009h-.409a.16.16,0,0,1-.078-.012.1.1,0,0,1-.026-.059l-.343-1.594h-.3l-.339,1.594a.1.1,0,0,1-.026.059.16.16,0,0,1-.078.012h-.414a.174.174,0,0,1-.082-.012.1.1,0,0,1-.026-.059l-.367-1.594h-.527a.12.12,0,0,1-.075-.016.109.109,0,0,1-.019-.078V51.62a.109.109,0,0,1,.019-.078.121.121,0,0,1,.075-.016h.4l-.244-1.119a.135.135,0,0,1,0-.094q.016-.023.1-.023h.376a.265.265,0,0,1,.071.007c.016,0,.027.026.033.064l.249,1.166h.452l.235-1.166q.009-.052.033-.061a.221.221,0,0,1,.075-.009h.437a.222.222,0,0,1,.075.009q.023.01.033.061l.245,1.166h.461l.245-1.166c.006-.034.016-.055.028-.061a.2.2,0,0,1,.075-.009h.381q.075,0,.087.021a.18.18,0,0,1,0,.1l-.23,1.119h.385c.044,0,.071.006.082.019a.121.121,0,0,1,.017.075Z" transform="translate(-215.139 -48.357)" fill="#c7cbe9"/>
      <path id="패스_690" data-name="패스 690" d="M262.241,88.776l.118-.705h-.24Z" transform="translate(-257.725 -84.356)" fill="#c7cbe9"/>
    </g>
  </g>
</svg>
