<svg xmlns="http://www.w3.org/2000/svg" xmlns:xlink="http://www.w3.org/1999/xlink" width="105" height="100" viewBox="0 0 105 100">
  <defs>
    <clipPath id="clip-path">
      <path id="사각형_2193" data-name="사각형 2193" d="M25,0H80a25,25,0,0,1,25,25v75a0,0,0,0,1,0,0H25A25,25,0,0,1,0,75V25A25,25,0,0,1,25,0Z" transform="translate(-106.339 1790.301)" fill="#fcc0cc"/>
    </clipPath>
    <clipPath id="clip-path-2">
      <rect id="SVGID" width="21.294" height="42.719" rx="4.487" transform="matrix(0.938, 0.345, -0.345, 0.938, 14.759, 0)" fill="none"/>
    </clipPath>
    <filter id="타원_208" x="26.735" y="43.437" width="11.324" height="19.965" filterUnits="userSpaceOnUse">
      <feOffset dy="8.641" input="SourceAlpha"/>
      <feGaussianBlur result="blur"/>
      <feFlood flood-color="#000a49" flood-opacity="0.2"/>
      <feComposite operator="in" in2="blur"/>
      <feComposite in="SourceGraphic"/>
    </filter>
    <filter id="패스_4529" x="36.418" y="21.546" width="34.916" height="43.557" filterUnits="userSpaceOnUse">
      <feOffset dy="8.641" input="SourceAlpha"/>
      <feGaussianBlur result="blur-2"/>
      <feFlood flood-color="#000a49" flood-opacity="0.2"/>
      <feComposite operator="in" in2="blur-2"/>
      <feComposite in="SourceGraphic"/>
    </filter>
    <clipPath id="clip-path-3">
      <circle id="타원_209" data-name="타원 209" cx="4.527" cy="4.527" r="4.527" transform="translate(0 8.007) rotate(-62.171)" fill="#404fc3"/>
    </clipPath>
    <clipPath id="clip-path-4">
      <path id="SVGID-2" data-name="SVGID" d="M0,0S1.986,7.9,9.2,7.814s10.912-4.688,16.508,4.254H0Z" fill="none"/>
    </clipPath>
  </defs>
  <g id="그룹_2030" data-name="그룹 2030" transform="translate(106.339 -1790.301)" clip-path="url(#clip-path)">
    <g id="그룹_2029" data-name="그룹 2029" transform="translate(-106.046 1842.2) rotate(-45)">
      <g id="그룹_2022" data-name="그룹 2022" transform="translate(0 0)">
        <g id="그룹_1991" data-name="그룹 1991" transform="translate(3.725 18.228)">
          <g id="그룹_1990" data-name="그룹 1990" transform="translate(9.839 12.22)">
            <path id="패스_4503" data-name="패스 4503" d="M19.5.846C15.075-4.078-.089,14,0,16.134.3,23.278,5.291,28.827,8.9,32.3c3.863,1.008,9.086.585,12.983.287C23.92,22.3,26.844,9.021,19.5.846Z" fill="#f8b586"/>
          </g>
          <path id="패스_4504" data-name="패스 4504" d="M2.773,4.908c2.94.809,5.532,1.78,7.738,3.96,1.619,1.6,6.217-4.437,3.794-5.383A101.858,101.858,0,0,0,4.536.236C1.951-.484.361.559.052,1.778-.222,2.862.567,4.3,2.773,4.908Z" transform="translate(0.27 17.406)" fill="#f8b586"/>
          <path id="패스_4505" data-name="패스 4505" d="M2.878,4.652C6.3,5.29,9.044,5.945,11.6,9.621c1.431,2.06,7.137-4.6,4.383-5.653C12.407,2.6,8.7,1.373,4.893.3,1.962-.534.106.506.007,1.837-.077,2.968.589,4.359,2.878,4.652Z" transform="translate(0 25.632)" fill="#f8b586"/>
          <path id="패스_4506" data-name="패스 4506" d="M3.526,5.1c2.923.866,5.5,1.887,7.66,4.109,1.588,1.631,5.244-.42,6.271-1.5h0c1.023-1.073.03-2.82-2.374-3.813A101.908,101.908,0,0,0,5.378.468C2.808-.3.475-.247.042,1.587-.286,2.979,1.331,4.452,3.526,5.1Z" transform="translate(0.452 9.765)" fill="#f8b586"/>
          <path id="패스_4507" data-name="패스 4507" d="M15.462,9.512C13.415,7.606,4.835.065,2.205,0A1.942,1.942,0,0,0,.047,2.369a8.087,8.087,0,0,0,2.06,3.256c1.636,1.929,4,3.551,5.509,5.314.809.947,2.625,3.572,3.751,4.194C13.123,16.1,17.607,11.511,15.462,9.512Z" transform="translate(9.787)" fill="#f8b586"/>
          <path id="패스_4508" data-name="패스 4508" d="M19.2,56.943c2.429-14.859,8.428-45.072,9.662-55.18-4.272-3.623-8-.56-13.038-.439C12.3,12.4,4.685,35.035,0,49.543,0,49.543,12.076,59.623,19.2,56.943Z" transform="translate(2.866 43.082)" fill="#f8b586"/>
        </g>
        <g id="그룹_2017" data-name="그룹 2017" transform="translate(7.397 0)">
          <g id="그룹_1993" data-name="그룹 1993" transform="translate(0 1.204)">
            <g id="그룹_1992" data-name="그룹 1992">
              <path id="패스_4509" data-name="패스 4509" d="M18.991,53.635l-16.843-6.2A3.28,3.28,0,0,1,.2,43.223L15.326,2.147A3.279,3.279,0,0,1,19.536.2L36.38,6.4a3.279,3.279,0,0,1,1.944,4.21L23.2,51.691A3.279,3.279,0,0,1,18.991,53.635Z" fill="#1d2769"/>
            </g>
          </g>
          <g id="그룹_1996" data-name="그룹 1996" transform="translate(0.443 0)">
            <g id="그룹_1995" data-name="그룹 1995">
              <g id="그룹_1994" data-name="그룹 1994">
                <path id="패스_4510" data-name="패스 4510" d="M18.991,53.635l-16.844-6.2A3.279,3.279,0,0,1,.2,43.223L15.326,2.147A3.279,3.279,0,0,1,19.536.2L36.38,6.4a3.28,3.28,0,0,1,1.945,4.211L23.2,51.69A3.279,3.279,0,0,1,18.991,53.635Z" fill="#fff"/>
              </g>
            </g>
          </g>
          <g id="그룹_2003" data-name="그룹 2003" transform="translate(24.879 4.051)">
            <g id="그룹_2002" data-name="그룹 2002">
              <g id="그룹_1999" data-name="그룹 1999" transform="translate(1.834 0.675)">
                <g id="그룹_1998" data-name="그룹 1998">
                  <g id="그룹_1997" data-name="그룹 1997">
                    <path id="패스_4511" data-name="패스 4511" d="M3.17,1.858.266.789A.407.407,0,0,1,.025.266h0A.407.407,0,0,1,.548.025l2.9,1.069a.407.407,0,0,1,.241.523h0A.407.407,0,0,1,3.17,1.858Z" fill="#1d2769"/>
                  </g>
                </g>
              </g>
              <g id="그룹_2001" data-name="그룹 2001">
                <g id="그룹_2000" data-name="그룹 2000">
                  <path id="패스_4512" data-name="패스 4512" d="M.789.548A.407.407,0,1,1,.548.025.407.407,0,0,1,.789.548Z" fill="#1d2769"/>
                </g>
              </g>
            </g>
          </g>
          <g id="그룹_2004" data-name="그룹 2004" transform="translate(10.658 46.841)">
            <circle id="타원_207" data-name="타원 207" cx="1.253" cy="1.253" r="1.253" fill="#1d2769"/>
          </g>
          <g id="그룹_2016" data-name="그룹 2016" transform="translate(2.526 2.682)">
            <g id="그룹_2015" data-name="그룹 2015" transform="translate(0 0)" clip-path="url(#clip-path-2)">
              <g id="그룹_2014" data-name="그룹 2014" transform="translate(-1.593 -0.321)">
                <g id="그룹_2013" data-name="그룹 2013" transform="translate(0 0)">
                  <g id="그룹_2005" data-name="그룹 2005" transform="translate(0 0)">
                    <rect id="사각형_2191" data-name="사각형 2191" width="24.364" height="43.358" transform="translate(14.756 0) rotate(19.897)" fill="#c1e4ff"/>
                  </g>
                  <g id="그룹_2006" data-name="그룹 2006" transform="translate(4.449 8.665)">
                    <rect id="사각형_2192" data-name="사각형 2192" width="24.364" height="21.07" transform="translate(7.171 0) rotate(19.897)" fill="#e8e8e8"/>
                  </g>
                  <g id="그룹_2007" data-name="그룹 2007" transform="translate(15.542 4.627)">
                    <path id="패스_4513" data-name="패스 4513" d="M17.952,7.2a.439.439,0,0,1-.147-.026L.284.835A.43.43,0,0,1,.577.026L18.1,6.368a.43.43,0,0,1-.147.834Z" fill="#82a4c3"/>
                  </g>
                  <g id="그룹_2008" data-name="그룹 2008" transform="translate(14.713 6.919)">
                    <path id="패스_4514" data-name="패스 4514" d="M17.952,7.2a.43.43,0,0,1-.147-.026L.284.835A.43.43,0,1,1,.577.026L18.1,6.367a.43.43,0,0,1-.146.834Z" fill="#82a4c3"/>
                  </g>
                  <path id="패스_4515" data-name="패스 4515" d="M3.2,2.21A1.648,1.648,0,1,1,2.21.1,1.648,1.648,0,0,1,3.2,2.21Z" transform="translate(5.594 30.965)" fill="#82a4c3"/>
                  <g id="그룹_2012" data-name="그룹 2012" transform="translate(8.517 33.263)">
                    <g id="그룹_2009" data-name="그룹 2009" transform="translate(0.744 2.055)">
                      <path id="패스_4516" data-name="패스 4516" d="M13.639,5.641a.424.424,0,0,1-.147-.026L.284.835A.43.43,0,1,1,.577.026l13.209,4.78a.43.43,0,0,1-.147.835Z" fill="#82a4c3"/>
                    </g>
                    <g id="그룹_2010" data-name="그룹 2010" transform="translate(0 4.111)">
                      <path id="패스_4517" data-name="패스 4517" d="M13.639,5.641a.425.425,0,0,1-.147-.026L.284.835A.43.43,0,1,1,.576.026L13.785,4.807a.43.43,0,0,1-.146.834Z" fill="#82a4c3"/>
                    </g>
                    <g id="그룹_2011" data-name="그룹 2011" transform="translate(1.488 0)">
                      <path id="패스_4518" data-name="패스 4518" d="M13.638,5.641a.425.425,0,0,1-.146-.026L.284.835A.43.43,0,0,1,.576.026l13.208,4.78a.43.43,0,0,1-.146.835Z" fill="#82a4c3"/>
                    </g>
                  </g>
                </g>
              </g>
            </g>
          </g>
        </g>
        <g id="그룹_2019" data-name="그룹 2019" transform="translate(18.969 38.546)">
          <path id="패스_4519" data-name="패스 4519" d="M6.179,21.677c-1.53-.143-4.04-8.13.7-15.515C3.1,5.109-1.569,2.242.515.447,1.945-.785,9.5.811,11.461,1.835a35.374,35.374,0,0,1,5.571,8.4S6.632,19.618,6.179,21.677Z" fill="#f8b586"/>
          <g id="그룹_2018" data-name="그룹 2018" transform="translate(3.757 6.213)">
            <path id="패스_4520" data-name="패스 4520" d="M3.133,0C2.622,1.333,2.1,2.64,1.693,3.969A16.594,16.594,0,0,0,.93,8a11.617,11.617,0,0,0,.5,4.022,19.916,19.916,0,0,0,1.734,3.81A11.266,11.266,0,0,1,.758,12.271,9.867,9.867,0,0,1,.014,7.959a12.715,12.715,0,0,1,1.008-4.23A18,18,0,0,1,3.133,0Z" fill="#ff9549"/>
          </g>
        </g>
        <g id="그룹_2021" data-name="그룹 2021" transform="translate(0 65.936)">
          <path id="패스_4521" data-name="패스 4521" d="M2.117.077C6.332-.441,14.1,1.8,15.93,2.665c1.342.52.527,6.2-.657,6.871L.024,6.911C-.117,5.819.349,1.851,2.117.077Z" transform="translate(18.806)" fill="#003665"/>
          <path id="패스_4522" data-name="패스 4522" d="M0,53.258C5.62,34.446,14.441,12.7,18.83.106A33.315,33.315,0,0,1,34.079,2.731c-1.012,15.107-3.124,46.576-5.487,66.052A90,90,0,0,1,0,53.258Z" transform="translate(0 6.804)" fill="#267ecc"/>
          <path id="패스_4523" data-name="패스 4523" d="M14.85,62.984A84.3,84.3,0,0,1,0,53.256C5.62,34.444,14.441,12.7,18.83.1A25.024,25.024,0,0,1,21.391,0C15.423,20.818,14.32,50.121,14.85,62.984Z" transform="translate(0 6.806)" fill="#0a6cc3"/>
          <g id="그룹_2020" data-name="그룹 2020" transform="translate(5.634 5.313)">
            <path id="패스_4524" data-name="패스 4524" d="M8.624.07Q5.571,25.249,2.517,50.427,1.253,50.386,0,50.268,4.756,25.194,8.444,0Z" transform="translate(15.253 0.482)" fill="#003665"/>
            <path id="패스_4525" data-name="패스 4525" d="M15.551,0Q8.915,22.948,2.278,45.9,1.128,45.37,0,44.77,8.071,22.628,15.279.007Z" transform="translate(0 0.145)" fill="#003665"/>
            <path id="패스_4526" data-name="패스 4526" d="M5.868.079q-1.648,24.763-3.3,49.527Q1.282,49.732,0,49.78,3.362,24.879,5.665,0Z" transform="translate(20.691 1.514)" fill="#003665"/>
            <path id="패스_4527" data-name="패스 4527" d="M13.557,0Q7.963,24.143,2.37,48.285,1.177,47.918,0,47.476,7.144,23.93,13.332.006Z" transform="translate(4.88 0.071)" fill="#003665"/>
            <path id="패스_4528" data-name="패스 4528" d="M11.248,0,2.45,49.984Q1.218,49.778,0,49.5,6.044,24.88,11.054.005Z" transform="translate(9.973)" fill="#003665"/>
          </g>
        </g>
      </g>
      <g id="그룹_2024" data-name="그룹 2024" transform="translate(18.564 14.604)">
        <g id="그룹_2023" data-name="그룹 2023" transform="translate(0 0)">
          <g transform="matrix(0.71, 0.71, -0.71, 0.71, 17.93, -51.51)" filter="url(#타원_208)">
            <circle id="타원_208-2" data-name="타원 208" cx="4.527" cy="4.527" r="4.527" transform="translate(29.41 54.76) rotate(-107.17)" fill="#040c40"/>
          </g>
        </g>
        <g transform="matrix(0.71, 0.71, -0.71, 0.71, 17.93, -51.51)" filter="url(#패스_4529)">
          <path id="패스_4529-2" data-name="패스 4529" d="M25.94,17.1,2.987,8.785a4.527,4.527,0,0,1-2.715-5.8h0A4.527,4.527,0,0,1,6.07.272L29.023,8.584a4.527,4.527,0,0,1,2.715,5.8h0A4.527,4.527,0,0,1,25.94,17.1Z" transform="translate(36.42 44.18) rotate(-45)" fill="#ffe200"/>
        </g>
      </g>
      <path id="패스_4530" data-name="패스 4530" d="M1.1,1.254l.127,1.114L1.48,1.254Zm1.8,0,.229,1.108.153-1.108ZM2.668,4.712,2.085,1.78,1.41,4.712h-.8L.331,2.394H0V1.885H.271l-.08-.63H0V.745H.131L.038,0H.949l.092.745H1.6L1.77,0h.872L2.8.745h.554L3.461,0h.723L4.078.745h.143v.509H4.008l-.086.63h.3v.509H3.849L3.528,4.712Z" transform="translate(34.948 21.749) rotate(19)" fill="#014b8d"/>
      <path id="패스_4531" data-name="패스 4531" d="M1.744,0a1.755,1.755,0,0,1,.588.093A1.343,1.343,0,0,1,2.781.35a1.128,1.128,0,0,1,.285.386,1.157,1.157,0,0,1,.1.479,1.4,1.4,0,0,1-.051.4.922.922,0,0,1-.147.3.889.889,0,0,1-.235.215,1.424,1.424,0,0,1-.315.147,1.231,1.231,0,0,1,.632.408,1.1,1.1,0,0,1,.209.688,1.418,1.418,0,0,1-.13.623,1.338,1.338,0,0,1-.352.455,1.534,1.534,0,0,1-.513.279,1.992,1.992,0,0,1-.618.095,2.108,2.108,0,0,1-.619-.082A1.345,1.345,0,0,1,.567,4.5,1.457,1.457,0,0,1,.235,4.1,2.64,2.64,0,0,1,0,3.57l.355-.147a.468.468,0,0,1,.186-.039.316.316,0,0,1,.152.036.244.244,0,0,1,.1.1q.059.114.129.225a.913.913,0,0,0,.168.2.8.8,0,0,0,.23.14.832.832,0,0,0,.315.054A.891.891,0,0,0,2,4.074.779.779,0,0,0,2.251,3.9.715.715,0,0,0,2.4,3.66a.738.738,0,0,0,.051-.266,1.23,1.23,0,0,0-.036-.308.457.457,0,0,0-.15-.236A.815.815,0,0,0,1.941,2.7a2.363,2.363,0,0,0-.572-.055V2.067a2.037,2.037,0,0,0,.492-.055.838.838,0,0,0,.311-.145.492.492,0,0,0,.161-.223.863.863,0,0,0,.046-.287A.662.662,0,0,0,2.2.849.7.7,0,0,0,1.7.678.737.737,0,0,0,1.223.83a.793.793,0,0,0-.264.39A.355.355,0,0,1,.851,1.4a.282.282,0,0,1-.179.054.676.676,0,0,1-.111-.01L.137,1.366A1.748,1.748,0,0,1,.326.771,1.427,1.427,0,0,1,.677.344,1.452,1.452,0,0,1,1.159.086,1.924,1.924,0,0,1,1.744,0ZM3.749,4.271a.429.429,0,0,1,.13-.311.441.441,0,0,1,.15-.095.526.526,0,0,1,.192-.034.491.491,0,0,1,.215.044A.44.44,0,0,1,4.59,4a.5.5,0,0,1,.091.176.739.739,0,0,1,.029.21,1.248,1.248,0,0,1-.047.329,1.7,1.7,0,0,1-.139.346,2.026,2.026,0,0,1-.531.636l-.14-.127a.151.151,0,0,1-.059-.121.124.124,0,0,1,.018-.059.259.259,0,0,1,.044-.059l.088-.1a1.369,1.369,0,0,0,.1-.13,1.27,1.27,0,0,0,.1-.16.711.711,0,0,0,.064-.184.454.454,0,0,1-.186-.037.434.434,0,0,1-.145-.1.478.478,0,0,1-.095-.153A.526.526,0,0,1,3.749,4.271ZM8.574,2.409A3.863,3.863,0,0,1,8.442,3.48a2.194,2.194,0,0,1-.365.751,1.477,1.477,0,0,1-.551.442,1.633,1.633,0,0,1-.686.145,1.611,1.611,0,0,1-.683-.145,1.47,1.47,0,0,1-.546-.442,2.191,2.191,0,0,1-.362-.751,3.908,3.908,0,0,1-.13-1.071,3.9,3.9,0,0,1,.13-1.073,2.192,2.192,0,0,1,.362-.75A1.47,1.47,0,0,1,6.157.145,1.611,1.611,0,0,1,6.84,0a1.633,1.633,0,0,1,.686.145,1.477,1.477,0,0,1,.551.442,2.2,2.2,0,0,1,.365.75A3.859,3.859,0,0,1,8.574,2.409Zm-.831,0a3.986,3.986,0,0,0-.075-.848,1.705,1.705,0,0,0-.2-.535A.732.732,0,0,0,7.179.748.762.762,0,0,0,6.84.668a.745.745,0,0,0-.334.08.725.725,0,0,0-.285.279,1.709,1.709,0,0,0-.2.535,4.072,4.072,0,0,0-.073.848,4.072,4.072,0,0,0,.073.848,1.709,1.709,0,0,0,.2.535.725.725,0,0,0,.285.279.745.745,0,0,0,.334.08.762.762,0,0,0,.339-.08.732.732,0,0,0,.289-.279,1.705,1.705,0,0,0,.2-.535A3.986,3.986,0,0,0,7.743,2.409Zm4.613,0a3.863,3.863,0,0,1-.132,1.071,2.194,2.194,0,0,1-.365.751,1.477,1.477,0,0,1-.551.442,1.633,1.633,0,0,1-.686.145,1.611,1.611,0,0,1-.683-.145,1.47,1.47,0,0,1-.546-.442,2.191,2.191,0,0,1-.362-.751A3.908,3.908,0,0,1,8.9,2.409a3.9,3.9,0,0,1,.13-1.073,2.192,2.192,0,0,1,.362-.75A1.47,1.47,0,0,1,9.939.145,1.611,1.611,0,0,1,10.622,0a1.633,1.633,0,0,1,.686.145,1.477,1.477,0,0,1,.551.442,2.2,2.2,0,0,1,.365.75A3.859,3.859,0,0,1,12.356,2.409Zm-.831,0a3.986,3.986,0,0,0-.075-.848,1.705,1.705,0,0,0-.2-.535.732.732,0,0,0-.289-.279.762.762,0,0,0-.339-.08.745.745,0,0,0-.334.08A.725.725,0,0,0,10,1.027a1.709,1.709,0,0,0-.2.535,4.072,4.072,0,0,0-.073.848,4.072,4.072,0,0,0,.073.848,1.709,1.709,0,0,0,.2.535.725.725,0,0,0,.285.279.745.745,0,0,0,.334.08.762.762,0,0,0,.339-.08.732.732,0,0,0,.289-.279,1.705,1.705,0,0,0,.2-.535A3.986,3.986,0,0,0,11.525,2.409Zm4.613,0a3.863,3.863,0,0,1-.132,1.071,2.194,2.194,0,0,1-.365.751,1.477,1.477,0,0,1-.551.442,1.633,1.633,0,0,1-.686.145,1.611,1.611,0,0,1-.683-.145,1.47,1.47,0,0,1-.546-.442,2.191,2.191,0,0,1-.362-.751,3.908,3.908,0,0,1-.13-1.071,3.9,3.9,0,0,1,.13-1.073,2.192,2.192,0,0,1,.362-.75,1.47,1.47,0,0,1,.546-.442A1.611,1.611,0,0,1,14.4,0a1.633,1.633,0,0,1,.686.145,1.477,1.477,0,0,1,.551.442,2.2,2.2,0,0,1,.365.75A3.859,3.859,0,0,1,16.138,2.409Zm-.831,0a3.986,3.986,0,0,0-.075-.848,1.705,1.705,0,0,0-.2-.535.732.732,0,0,0-.289-.279A.762.762,0,0,0,14.4.668a.745.745,0,0,0-.334.08.725.725,0,0,0-.285.279,1.709,1.709,0,0,0-.2.535,4.072,4.072,0,0,0-.073.848,4.072,4.072,0,0,0,.073.848,1.709,1.709,0,0,0,.2.535.725.725,0,0,0,.285.279.745.745,0,0,0,.334.08.762.762,0,0,0,.339-.08.732.732,0,0,0,.289-.279,1.705,1.705,0,0,0,.2-.535A3.986,3.986,0,0,0,15.307,2.409Z" transform="translate(45.434 25.934) rotate(19)" fill="#014b8d"/>
      <g id="마스크_그룹_18" data-name="마스크 그룹 18" transform="translate(18.564 14.604)" clip-path="url(#clip-path-3)">
        <g id="그룹_2028" data-name="그룹 2028" transform="translate(-1.777 -1.129)">
          <g id="그룹_2027" data-name="그룹 2027" transform="translate(0 0)" clip-path="url(#clip-path-4)">
            <path id="패스_4532" data-name="패스 4532" d="M0,0S1.986,7.9,9.2,7.814s10.912-4.688,16.508,4.254H0Z" fill="#fff"/>
            <g id="그룹_2025" data-name="그룹 2025" transform="translate(7.299 7.204)">
              <path id="패스_4533" data-name="패스 4533" d="M18.083,5.569C15.936,1.851,13.329-.124,8.549,1.456,2.871,3.334.183,2.792.024,2.775L0,1.295a7.691,7.691,0,0,0,2.969.229c1.477-.136,3.872-.91,5.873-1.3,7.175-1.386,8.576,3.951,9.4,5.509Z" fill="#e6131a"/>
            </g>
            <g id="그룹_2026" data-name="그룹 2026" transform="translate(7.299 9.215)">
              <path id="패스_4534" data-name="패스 4534" d="M18.083,5.644C15.936,1.926,14.624-.376,9.3,1.891,3.725,4.267.183,2.867.024,2.85L0,1.37a4.147,4.147,0,0,0,2.815.613A49.39,49.39,0,0,0,10.075.34c5.393-1.726,7.845,3.609,8.665,5.167Z" fill="#e6131a"/>
            </g>
            <path id="패스_4535" data-name="패스 4535" d="M11.64,6.56,9.117,15.491,0,14.2,1.007,0Z" transform="translate(-2.005 -1.411)" fill="#1c3a60"/>
            <path id="패스_4536" data-name="패스 4536" d="M.539,0l.1.349L.967.5.688.662l0,.352L.419.768.1.837.2.519,0,.211l.342.05Z" transform="translate(6.513 8.428)" fill="#fff"/>
            <path id="패스_4537" data-name="패스 4537" d="M.546,0l.09.355L.957.524.672.672l-.008.352L.4.759.073.808.194.5,0,.176.34.248Z" transform="translate(6.016 11.282)" fill="#fff"/>
            <path id="패스_4538" data-name="패스 4538" d="M.546,0l.09.355L.957.524.672.671l-.007.352L.4.759.073.808.194.5,0,.175.34.247Z" transform="translate(4.542 9.698)" fill="#fff"/>
            <path id="패스_4539" data-name="패스 4539" d="M.635.072l0,.376L.9.748.6.763l-.088.33L.32.727,0,.632.186.39.076,0,.382.217Z" transform="translate(1.968 8.155)" fill="#fff"/>
            <path id="패스_4540" data-name="패스 4540" d="M.693.2.651.57.876.926.575.872l-.127.306L.3.773,0,.606l.213-.2L.152,0,.427.283Z" transform="translate(0.101 5.957)" fill="#fff"/>
            <path id="패스_4541" data-name="패스 4541" d="M.557,0,.615.368l.3.221-.3.1-.039.348L.344.729.017.722.164.434,0,.082.331.211Z" transform="translate(4.017 7.548)" fill="#fff"/>
            <path id="패스_4542" data-name="패스 4542" d="M.557,0,.615.368l.3.221-.3.1-.039.348L.344.729.017.722.164.434,0,.082.331.211Z" transform="translate(2.817 10.523)" fill="#fff"/>
            <path id="패스_4543" data-name="패스 4543" d="M.644.089l0,.376L.9.773.6.779.5,1.107.319.735,0,.629.19.393.087,0l.3.226Z" transform="translate(1.984 5.728)" fill="#fff"/>
            <path id="패스_4544" data-name="패스 4544" d="M.644.089l0,.376L.9.773.6.779.5,1.107.319.735,0,.629.19.393.087,0l.3.226Z" transform="translate(0.116 9.455)" fill="#fff"/>
            <path id="패스_4545" data-name="패스 4545" d="M.71.242.651.609l.21.374L.562.905.422,1.2.3.784,0,.592.221.413.178,0,.44.305Z" transform="translate(0.301 3.204)" fill="#fff"/>
            <path id="패스_4546" data-name="패스 4546" d="M0,0S1.986,7.9,9.2,7.814s10.912-4.688,16.508,4.254H0Z" fill="#111955" style="mix-blend-mode: overlay;isolation: isolate"/>
          </g>
        </g>
        <g id="statue_liberty_landmark_york_symbol_america_new_freedom_nyc_tourism" data-name="statue, liberty, landmark, york, symbol, america, new, freedom, nyc, tourism" transform="translate(3.187 3.353)">
          <path id="패스_4547" data-name="패스 4547" d="M.176,1.217a.1.1,0,0,0,.1-.116A7.133,7.133,0,0,1,.2.1.1.1,0,0,0,.1,0h0A.1.1,0,0,0,0,.1,7.45,7.45,0,0,0,.078,1.133.1.1,0,0,0,.176,1.217Z" transform="translate(0.769 1.321)" fill="#fff"/>
          <path id="패스_4548" data-name="패스 4548" d="M.656.1a.1.1,0,0,0-.1-.1H.1A.1.1,0,0,0,.1.2H.556A.1.1,0,0,0,.656.1Z" transform="translate(0.193 0.906)" fill="#fff"/>
          <path id="패스_4549" data-name="패스 4549" d="M.1,0A.1.1,0,0,0,0,.1L0,.284a.1.1,0,0,0,.1.1h0a.1.1,0,0,0,.1-.1L.2.1A.1.1,0,0,0,.1,0Z" transform="translate(0.418 1.207)" fill="#fff"/>
          <path id="패스_4550" data-name="패스 4550" d="M.534.027A.1.1,0,0,0,.441,0,.671.671,0,0,0,.035.348l0,.007A.353.353,0,0,0,.085.732.1.1,0,0,0,.236.6.156.156,0,0,1,.213.438l0,0A.449.449,0,0,1,.364.259.3.3,0,0,0,.4.364l0,0c.036.061.1.175.062.248a.1.1,0,0,0,.171.1A.45.45,0,0,0,.573.267l0,0A.26.26,0,0,1,.563.12.1.1,0,0,0,.534.027Z" transform="translate(0.183 0)" fill="#fff"/>
          <path id="패스_4551" data-name="패스 4551" d="M.171.194.193.173A.1.1,0,1,0,.055.031L.033.052A.1.1,0,1,0,.171.194Z" transform="translate(1.284 3.829)" fill="#fff"/>
          <path id="패스_4552" data-name="패스 4552" d="M0,6.278a.1.1,0,0,0,.1.1H3.067a.1.1,0,1,0,0-.2H2.73V6.012a.339.339,0,0,0-.339-.339h0L2.274,3.946A.46.46,0,0,0,2.4,3.634V3.356h0l.654-.706.366.306a.121.121,0,0,1,.011.175l-.561.6a.12.12,0,0,1-.169.007.1.1,0,0,0-.132.148.318.318,0,0,0,.446-.02l.561-.6A.319.319,0,0,0,3.542,2.8L3.1,2.437a.1.1,0,0,0-.137.009L2.4,3.064V2.74l.012.014a.1.1,0,1,0,.15-.131,1.144,1.144,0,0,1-.145-.217A.1.1,0,0,0,2.4,2.385v-.2a.712.712,0,0,0-.413-.647L1.908,1.5a.421.421,0,0,0,.169-.363V.73l.134,0h0a.1.1,0,0,0,0-.2l-.148,0a.4.4,0,0,0-.039-.1L2.132.3A.1.1,0,1,0,1.977.175L1.888.284A.4.4,0,0,0,1.775.235V.1a.1.1,0,1,0-.2,0V.236a.4.4,0,0,0-.114.049L1.373.176A.1.1,0,0,0,1.219.3l.105.13a.4.4,0,0,0-.039.1h-.05a.1.1,0,0,0,0,.2h.036V1.1a1,1,0,0,1-.1-.107A.1.1,0,0,0,1,1.006a.766.766,0,0,1-.283.3,2.195,2.195,0,0,1-.1-.672V.17a.1.1,0,1,0-.2,0v.46A2.365,2.365,0,0,0,.542,1.4a.284.284,0,0,0-.114.294.322.322,0,0,0,.255.218v.529a.333.333,0,0,0,.037.443c0,.184-.014.481-.036.884a.1.1,0,0,0,.2.011c.023-.411.036-.714.038-.9L1.2,2.6a.1.1,0,0,0-.138-.143l-.238.231a.139.139,0,0,1-.009-.036A.136.136,0,0,1,.851,2.55l0,0,.589-.587A.1.1,0,1,0,1.3,1.82l-.421.419V1.83a.1.1,0,0,0-.091-.1c-.054,0-.159-.036-.169-.08a.093.093,0,0,1,.048-.1,1.163,1.163,0,0,0,.439-.342,2.9,2.9,0,0,0,.792.507.514.514,0,0,1,.3.467V3.634a.262.262,0,0,1-.091.2L1.682,4.2l.294-1.094a.1.1,0,0,0-.192-.052L1.406,4.464a.218.218,0,0,0,.084.285l.087.052a.019.019,0,0,1,.01.017.02.02,0,0,1-.009.018L.839,5.33A.036.036,0,0,1,.781,5.3c.013-.176.032-.448.052-.749a.091.091,0,0,0,0-.026l.613-1.141a.1.1,0,0,0-.175-.094L.534,4.655a.1.1,0,0,0,.041.134A.1.1,0,0,0,.617,4.8c-.013.192-.025.36-.034.481A.233.233,0,0,0,.7,5.5h0l-.011.17h0a.339.339,0,0,0-.339.339v.167H.1a.1.1,0,0,0-.1.1ZM1.674.422a.2.2,0,0,1,.2.2.4.4,0,0,0-.405,0A.2.2,0,0,1,1.674.422Zm-.2.818V.966a.2.2,0,1,1,.406,0V1.14c0,.153-.071.232-.21.236-.075-.044-.14-.086-.2-.126A.1.1,0,0,0,1.471,1.239ZM.547,6.012a.14.14,0,0,1,.14-.14h.848a.1.1,0,1,0,0-.2H.889L.9,5.519a.235.235,0,0,0,.049-.025L1.687,5a.218.218,0,0,0-.01-.369l-.087-.052a.02.02,0,0,1-.01-.015.019.019,0,0,1,.007-.017l.5-.433.1,1.56H2.072a.1.1,0,0,0,0,.2h.319a.14.14,0,0,1,.14.14v.167H.547Z" transform="translate(0 1.664)" fill="#fff"/>
          <path id="패스_4553" data-name="패스 4553" d="M0,.1A.1.1,0,0,0,.1.2H.142a.1.1,0,0,0,0-.2H.1A.1.1,0,0,0,0,.1Z" transform="translate(3.456 7.842)" fill="#fff"/>
        </g>
      </g>
    </g>
    <path id="패스_4554" data-name="패스 4554" d="M1.533,0A1.533,1.533,0,1,1,0,1.533,1.533,1.533,0,0,1,1.533,0Z" transform="translate(-85.647 1811.394)" fill="#ffda0d"/>
    <path id="패스_4555" data-name="패스 4555" d="M1.009,0A1.009,1.009,0,1,1,0,1.009,1.009,1.009,0,0,1,1.009,0Z" transform="translate(-15.068 1871.6)" fill="#ffda0d"/>
    <path id="패스_4556" data-name="패스 4556" d="M.632,0A.632.632,0,1,1,0,.632.632.632,0,0,1,.632,0Z" transform="translate(-94.844 1808.926)" fill="#c1c9e7"/>
    <path id="패스_4557" data-name="패스 4557" d="M2.546,0A2.546,2.546,0,1,1,0,2.546,2.546,2.546,0,0,1,2.546,0Z" transform="translate(-97.138 1828.085)" fill="#fff" opacity="0.178"/>
  </g>
</svg>
