<svg width="197" height="144" viewBox="0 0 197 144" fill="none" xmlns="http://www.w3.org/2000/svg">
<path d="M20.5859 38V37.082L23.0859 34.6699C23.7988 33.957 24.1699 33.5371 24.1699 32.9414C24.1699 32.2822 23.6475 31.8672 22.959 31.8672C22.2314 31.8672 21.7627 32.3213 21.7676 33.0391H20.5566C20.5518 31.7012 21.5576 30.832 22.9688 30.832C24.4141 30.832 25.3857 31.6963 25.3906 32.8828C25.3857 33.6787 25.0049 34.3232 23.6133 35.6367L22.3535 36.8867V36.9355H25.498V38H20.5859ZM29.1211 38.0977C27.71 38.0977 26.6699 37.2529 26.6309 36.0859H27.8711C27.9102 36.6572 28.4521 37.0674 29.1211 37.0723C29.9121 37.0674 30.4834 36.4961 30.4785 35.7148C30.4834 34.9043 29.8975 34.333 29.082 34.3281C28.5303 34.3232 28.1299 34.5186 27.9102 34.9336H26.7285L27.1582 30.9297H31.3379V31.9941H28.2031L27.9883 33.8691H28.0566C28.3301 33.5615 28.8428 33.3369 29.4238 33.332C30.7373 33.3369 31.7139 34.3135 31.709 35.6758C31.7139 37.0869 30.6494 38.0977 29.1211 38.0977Z" fill="#939393" fill-opacity="0.7"/>
<path d="M163.85 39L166.916 33.043V32.9941H163.361V31.9297H168.234V33.0137L165.168 39H163.85ZM171.672 39.0977C170.256 39.0977 169.221 38.2578 169.182 37.0859H170.422C170.461 37.6621 170.998 38.0723 171.672 38.0723C172.463 38.0723 173.029 37.4961 173.029 36.7148C173.029 35.9043 172.443 35.3281 171.633 35.3281C171.086 35.3184 170.686 35.5137 170.461 35.9336H169.279L169.709 31.9297H173.889V32.9941H170.754L170.539 34.8691H170.607C170.881 34.5566 171.398 34.332 171.975 34.332C173.293 34.332 174.26 35.3184 174.26 36.6758C174.26 38.0918 173.195 39.0977 171.672 39.0977Z" fill="#939393" fill-opacity="0.7"/>
<path d="M93.0957 10.0977C91.6846 10.0977 90.6445 9.25293 90.6055 8.08594H91.8457C91.8848 8.65723 92.4268 9.06738 93.0957 9.07227C93.8867 9.06738 94.458 8.49609 94.4531 7.71484C94.458 6.9043 93.8721 6.33301 93.0566 6.32812C92.5049 6.32324 92.1045 6.51855 91.8848 6.93359H90.7031L91.1328 2.92969H95.3125V3.99414H92.1777L91.9629 5.86914H92.0312C92.3047 5.56152 92.8174 5.33691 93.3984 5.33203C94.7119 5.33691 95.6885 6.31348 95.6836 7.67578C95.6885 9.08691 94.624 10.0977 93.0957 10.0977ZM99.3652 10.0977C97.6611 10.0977 96.6455 8.7793 96.6504 6.46484C96.6455 4.16016 97.6709 2.83203 99.3652 2.83203C101.06 2.83203 102.08 4.16016 102.08 6.46484C102.08 8.78418 101.064 10.0977 99.3652 10.0977ZM97.9297 6.46484C97.9297 8.16406 98.4766 9.02832 99.3652 9.0332C100.249 9.02832 100.801 8.16406 100.801 6.46484C100.796 4.78027 100.249 3.8916 99.3652 3.88672C98.4814 3.8916 97.9346 4.78027 97.9297 6.46484Z" fill="#939393" fill-opacity="0.7"/>
<path d="M3.19336 103.098C1.48926 103.098 0.473633 101.779 0.478516 99.4648C0.473633 97.1602 1.49902 95.832 3.19336 95.832C4.8877 95.832 5.9082 97.1602 5.9082 99.4648C5.9082 101.784 4.89258 103.098 3.19336 103.098ZM1.75781 99.4648C1.75781 101.164 2.30469 102.028 3.19336 102.033C4.07715 102.028 4.62891 101.164 4.62891 99.4648C4.62402 97.7803 4.07715 96.8916 3.19336 96.8867C2.30957 96.8916 1.7627 97.7803 1.75781 99.4648Z" fill="#939393" fill-opacity="0.7"/>
<path d="M182.457 95.9297V103H181.178V97.1699H181.139L179.488 98.2246V97.0625L181.236 95.9297H182.457ZM186.783 103.098C185.079 103.098 184.063 101.779 184.068 99.4648C184.063 97.1602 185.089 95.832 186.783 95.832C188.478 95.832 189.498 97.1602 189.498 99.4648C189.498 101.784 188.482 103.098 186.783 103.098ZM185.348 99.4648C185.348 101.164 185.895 102.028 186.783 102.033C187.667 102.028 188.219 101.164 188.219 99.4648C188.214 97.7803 187.667 96.8916 186.783 96.8867C185.899 96.8916 185.353 97.7803 185.348 99.4648ZM193.17 103.098C191.466 103.098 190.45 101.779 190.455 99.4648C190.45 97.1602 191.476 95.832 193.17 95.832C194.864 95.832 195.885 97.1602 195.885 99.4648C195.885 101.784 194.869 103.098 193.17 103.098ZM191.734 99.4648C191.734 101.164 192.281 102.028 193.17 102.033C194.054 102.028 194.605 101.164 194.605 99.4648C194.601 97.7803 194.054 96.8916 193.17 96.8867C192.286 96.8916 191.739 97.7803 191.734 99.4648Z" fill="#939393" fill-opacity="0.7"/>
<g filter="url(#filter0_d_2130_49)">
<circle cx="96" cy="103" r="40" fill="white"/>
</g>
<defs>
<filter id="filter0_d_2130_49" x="50" y="52" width="92" height="92" filterUnits="userSpaceOnUse" color-interpolation-filters="sRGB">
<feFlood flood-opacity="0" result="BackgroundImageFix"/>
<feColorMatrix in="SourceAlpha" type="matrix" values="0 0 0 0 0 0 0 0 0 0 0 0 0 0 0 0 0 0 127 0" result="hardAlpha"/>
<feOffset dy="-5"/>
<feGaussianBlur stdDeviation="3"/>
<feComposite in2="hardAlpha" operator="out"/>
<feColorMatrix type="matrix" values="0 0 0 0 0.780392 0 0 0 0 0.8 0 0 0 0 0.819608 0 0 0 0.3 0"/>
<feBlend mode="normal" in2="BackgroundImageFix" result="effect1_dropShadow_2130_49"/>
<feBlend mode="normal" in="SourceGraphic" in2="effect1_dropShadow_2130_49" result="shape"/>
</filter>
</defs>
</svg>
