<svg width="261" height="150" viewBox="0 0 261 150" fill="none" xmlns="http://www.w3.org/2000/svg">
<path d="M244.5 0C253.337 0 260.5 7.16344 260.5 16V56C250.28 56.0155 242 64.3049 242 74.5283C242 84.7519 250.28 93.0412 260.5 93.0566V134C260.5 142.837 253.337 150 244.5 150H16.5C7.66344 150 0.5 142.837 0.5 134V93.0566C0.509439 93.0567 0.518878 93.0576 0.52832 93.0576C10.7614 93.0576 19.0576 84.7614 19.0576 74.5283C19.0575 64.2954 10.7613 56 0.52832 56C0.518879 56 0.509438 56 0.5 56V16C0.500001 7.16345 7.66344 8.05323e-09 16.5 0H244.5Z" fill="#BFD1FE"/>
<path d="M244.5 0C253.337 0 260.5 7.16344 260.5 16V56C250.28 56.0155 242 64.3049 242 74.5283C242 84.7519 250.28 93.0412 260.5 93.0566V134C260.5 142.837 253.337 150 244.5 150H16.5C7.66344 150 0.5 142.837 0.5 134V93.0566C0.509439 93.0567 0.518878 93.0576 0.52832 93.0576C10.7614 93.0576 19.0576 84.7614 19.0576 74.5283C19.0575 64.2954 10.7613 56 0.52832 56C0.518879 56 0.509438 56 0.5 56V16C0.500001 7.16345 7.66344 8.05323e-09 16.5 0H244.5Z" fill="#608CFA"/>
</svg>
