<svg width="117" height="66" viewBox="0 0 117 66" fill="none" xmlns="http://www.w3.org/2000/svg">
<g filter="url(#filter0_d_7390_4445)">
<path d="M58.5 10L54 16H63L58.5 10Z" fill="#FFDA4D"/>
<rect x="15" y="16" width="87" height="30" rx="8" fill="#FFDA4D"/>
<mask id="path-4-outside-1_7390_4445" maskUnits="userSpaceOnUse" x="27" y="24" width="64" height="15" fill="black">
<rect fill="white" x="27" y="24" width="64" height="15"/>
<path d="M37.118 25.4609V31.6367H35.8055V31.2031H33.825V30.4062H35.8055V25.4609H37.118ZM28.2234 29.2812C30.2742 29.2812 32.8289 29.2578 35.1023 29.0352L35.1727 29.8555C34.2059 29.9902 33.2098 30.0723 32.2313 30.1133V31.6484H30.9422V30.1719C30.034 30.1953 29.1609 30.2012 28.3641 30.1953L28.2234 29.2812ZM37.118 31.9648V34.3438H31.0945V35.0234H37.3992V35.9492H29.8172V33.4883H35.8289V32.8555H29.7703V31.9648H37.118ZM31.6453 25.625C33.2156 25.625 34.2938 26.2578 34.2938 27.2188C34.2938 28.2031 33.2156 28.8008 31.6453 28.8008C30.0398 28.8008 28.9734 28.2031 28.9734 27.2188C28.9734 26.2578 30.0398 25.625 31.6453 25.625ZM31.6453 26.4922C30.7547 26.4922 30.2039 26.7734 30.2156 27.2188C30.2039 27.6641 30.7547 27.9336 31.6453 27.9336C32.5125 27.9336 33.075 27.6641 33.075 27.2188C33.075 26.7734 32.5125 26.4922 31.6453 26.4922ZM44.6508 26.5156V35H43.1156V28.0039H43.0688L41.0883 29.2695V27.875L43.1859 26.5156H44.6508ZM49.5891 35.1172C47.9367 35.1055 46.2727 34.1211 46.2844 30.9922C46.2844 28.0859 47.6086 26.3984 49.6828 26.3984C51.3234 26.3984 52.4484 27.4297 52.6359 28.8008H51.1242C50.9719 28.1562 50.4563 27.7227 49.6828 27.7227C48.4523 27.7227 47.7609 28.8125 47.7609 30.5938H47.843C48.2766 29.8672 49.0969 29.4336 50.0227 29.4336C51.5461 29.4336 52.718 30.582 52.718 32.1875C52.718 33.875 51.4641 35.1289 49.5891 35.1172ZM49.5891 33.8867C50.5383 33.8867 51.2414 33.1484 51.2414 32.2227C51.2414 31.3203 50.55 30.5938 49.6125 30.5938C48.6633 30.5938 47.9367 31.3438 47.925 32.2344C47.9367 33.125 48.6281 33.8867 49.5891 33.8867ZM55.0547 34.168L54.0703 37.4492H52.957L53.5664 34.168H55.0547ZM56.4188 35L60.0984 27.8516V27.793H55.8328V26.5156H61.6805V27.8164L58.0008 35H56.4188ZM65.5523 35.1172C63.5133 35.1172 62.2945 33.5352 62.2945 30.7578C62.2945 27.9922 63.5133 26.3984 65.5523 26.3984C67.5797 26.3984 68.8102 27.9922 68.8102 30.7578C68.8102 33.5352 67.5914 35.1172 65.5523 35.1172ZM65.5523 33.8398C66.6188 33.8398 67.275 32.7969 67.275 30.7578C67.275 28.7305 66.607 27.6641 65.5523 27.6641C64.4977 27.6641 63.8297 28.7305 63.8297 30.7578C63.8297 32.7969 64.4859 33.8398 65.5523 33.8398ZM72.9164 35.1172C70.8773 35.1172 69.6586 33.5352 69.6586 30.7578C69.6586 27.9922 70.8773 26.3984 72.9164 26.3984C74.9438 26.3984 76.1742 27.9922 76.1742 30.7578C76.1742 33.5352 74.9555 35.1172 72.9164 35.1172ZM72.9164 33.8398C73.9828 33.8398 74.6391 32.7969 74.6391 30.7578C74.6391 28.7305 73.9711 27.6641 72.9164 27.6641C71.8617 27.6641 71.1938 28.7305 71.1938 30.7578C71.1938 32.7969 71.85 33.8398 72.9164 33.8398ZM85.6828 25.4609V33.4766H84.3703V32.5508H82.2961V31.6367H84.3703V25.4609H85.6828ZM85.9289 34.7773V35.832H78.1594V32.7031H79.4602V34.7773H85.9289ZM76.7531 30.2188C78.7102 30.207 81.3352 30.1836 83.5852 29.9023L83.6555 30.8398C82.7824 30.9863 81.8801 31.0859 80.9836 31.1445V33.1836H79.6828V31.2148C78.6926 31.2559 77.7492 31.2617 76.9172 31.2617L76.7531 30.2188ZM80.2102 25.8477C81.757 25.8477 82.8352 26.6094 82.8469 27.7227C82.8352 28.8594 81.757 29.5859 80.2102 29.5859C78.6398 29.5859 77.5617 28.8594 77.5617 27.7227C77.5617 26.6094 78.6398 25.8477 80.2102 25.8477ZM80.2102 26.8086C79.3664 26.8086 78.7922 27.1484 78.7922 27.7227C78.7922 28.2969 79.3664 28.6367 80.2102 28.6367C81.0187 28.6367 81.593 28.2969 81.6047 27.7227C81.593 27.1484 81.0187 26.8086 80.2102 26.8086ZM89.0508 26.5156L88.9219 32.5039H87.5977L87.457 26.5156H89.0508ZM88.2656 35.0938C87.7617 35.0938 87.3516 34.6836 87.3516 34.1797C87.3516 33.6875 87.7617 33.2773 88.2656 33.2773C88.7461 33.2773 89.168 33.6875 89.168 34.1797C89.168 34.6836 88.7461 35.0938 88.2656 35.0938Z"/>
</mask>
<path d="M37.118 25.4609H38.118V24.4609H37.118V25.4609ZM37.118 31.6367V32.6367H38.118V31.6367H37.118ZM35.8055 31.6367H34.8055V32.6367H35.8055V31.6367ZM35.8055 31.2031H36.8055V30.2031H35.8055V31.2031ZM33.825 31.2031H32.825V32.2031H33.825V31.2031ZM33.825 30.4062V29.4062H32.825V30.4062H33.825ZM35.8055 30.4062V31.4062H36.8055V30.4062H35.8055ZM35.8055 25.4609V24.4609H34.8055V25.4609H35.8055ZM28.2234 29.2812V28.2812H27.0578L27.2351 29.4333L28.2234 29.2812ZM35.1023 29.0352L36.0987 28.9498L36.0122 27.9413L35.0049 28.0399L35.1023 29.0352ZM35.1727 29.8555L35.3107 30.8459L36.25 30.715L36.169 29.7701L35.1727 29.8555ZM32.2313 30.1133L32.1894 29.1142L31.2313 29.1543V30.1133H32.2313ZM32.2313 31.6484V32.6484H33.2313V31.6484H32.2313ZM30.9422 31.6484H29.9422V32.6484H30.9422V31.6484ZM30.9422 30.1719H31.9422V29.1457L30.9164 29.1722L30.9422 30.1719ZM28.3641 30.1953L27.3757 30.3474L27.5052 31.189L28.3567 31.1953L28.3641 30.1953ZM37.118 31.9648H38.118V30.9648H37.118V31.9648ZM37.118 34.3438V35.3438H38.118V34.3438H37.118ZM31.0945 34.3438V33.3438H30.0945V34.3438H31.0945ZM31.0945 35.0234H30.0945V36.0234H31.0945V35.0234ZM37.3992 35.0234H38.3992V34.0234H37.3992V35.0234ZM37.3992 35.9492V36.9492H38.3992V35.9492H37.3992ZM29.8172 35.9492H28.8172V36.9492H29.8172V35.9492ZM29.8172 33.4883V32.4883H28.8172V33.4883H29.8172ZM35.8289 33.4883V34.4883H36.8289V33.4883H35.8289ZM35.8289 32.8555H36.8289V31.8555H35.8289V32.8555ZM29.7703 32.8555H28.7703V33.8555H29.7703V32.8555ZM29.7703 31.9648V30.9648H28.7703V31.9648H29.7703ZM30.2156 27.2188L31.2153 27.2451L31.216 27.2188L31.2153 27.1924L30.2156 27.2188ZM37.118 25.4609H36.118V31.6367H37.118H38.118V25.4609H37.118ZM37.118 31.6367V30.6367H35.8055V31.6367V32.6367H37.118V31.6367ZM35.8055 31.6367H36.8055V31.2031H35.8055H34.8055V31.6367H35.8055ZM35.8055 31.2031V30.2031H33.825V31.2031V32.2031H35.8055V31.2031ZM33.825 31.2031H34.825V30.4062H33.825H32.825V31.2031H33.825ZM33.825 30.4062V31.4062H35.8055V30.4062V29.4062H33.825V30.4062ZM35.8055 30.4062H36.8055V25.4609H35.8055H34.8055V30.4062H35.8055ZM35.8055 25.4609V26.4609H37.118V25.4609V24.4609H35.8055V25.4609ZM28.2234 29.2812V30.2812C30.2741 30.2812 32.8727 30.2583 35.1998 30.0304L35.1023 29.0352L35.0049 28.0399C32.7852 28.2573 30.2743 28.2812 28.2234 28.2812V29.2812ZM35.1023 29.0352L34.106 29.1206L34.1763 29.9409L35.1727 29.8555L36.169 29.7701L36.0987 28.9498L35.1023 29.0352ZM35.1727 29.8555L35.0346 28.865C34.1049 28.9946 33.1414 29.0743 32.1894 29.1142L32.2313 30.1133L32.2731 31.1124C33.2781 31.0703 34.3068 30.9858 35.3107 30.8459L35.1727 29.8555ZM32.2313 30.1133H31.2313V31.6484H32.2313H33.2313V30.1133H32.2313ZM32.2313 31.6484V30.6484H30.9422V31.6484V32.6484H32.2313V31.6484ZM30.9422 31.6484H31.9422V30.1719H30.9422H29.9422V31.6484H30.9422ZM30.9422 30.1719L30.9164 29.1722C30.0202 29.1953 29.1582 29.2011 28.3714 29.1953L28.3641 30.1953L28.3567 31.1953C29.1636 31.2012 30.0478 31.1953 30.968 31.1715L30.9422 30.1719ZM28.3641 30.1953L29.3524 30.0433L29.2118 29.1292L28.2234 29.2812L27.2351 29.4333L27.3757 30.3474L28.3641 30.1953ZM37.118 31.9648H36.118V34.3438H37.118H38.118V31.9648H37.118ZM37.118 34.3438V33.3438H31.0945V34.3438V35.3438H37.118V34.3438ZM31.0945 34.3438H30.0945V35.0234H31.0945H32.0945V34.3438H31.0945ZM31.0945 35.0234V36.0234H37.3992V35.0234V34.0234H31.0945V35.0234ZM37.3992 35.0234H36.3992V35.9492H37.3992H38.3992V35.0234H37.3992ZM37.3992 35.9492V34.9492H29.8172V35.9492V36.9492H37.3992V35.9492ZM29.8172 35.9492H30.8172V33.4883H29.8172H28.8172V35.9492H29.8172ZM29.8172 33.4883V34.4883H35.8289V33.4883V32.4883H29.8172V33.4883ZM35.8289 33.4883H36.8289V32.8555H35.8289H34.8289V33.4883H35.8289ZM35.8289 32.8555V31.8555H29.7703V32.8555V33.8555H35.8289V32.8555ZM29.7703 32.8555H30.7703V31.9648H29.7703H28.7703V32.8555H29.7703ZM29.7703 31.9648V32.9648H37.118V31.9648V30.9648H29.7703V31.9648ZM31.6453 25.625V26.625C32.3129 26.625 32.7811 26.762 33.0455 26.92C33.2885 27.0652 33.2938 27.1737 33.2938 27.2188H34.2938H35.2938C35.2938 26.3028 34.7599 25.6145 34.0713 25.2031C33.4041 24.8044 32.5481 24.625 31.6453 24.625V25.625ZM34.2938 27.2188H33.2938C33.2938 27.2784 33.2859 27.3798 33.0535 27.5157C32.7914 27.6691 32.3224 27.8008 31.6453 27.8008V28.8008V29.8008C32.5385 29.8008 33.3938 29.6337 34.0633 29.2421C34.7626 28.8331 35.2938 28.1435 35.2938 27.2188H34.2938ZM31.6453 28.8008V27.8008C30.9472 27.8008 30.4731 27.6679 30.211 27.515C29.9817 27.3813 29.9734 27.2816 29.9734 27.2188H28.9734H27.9734C27.9734 28.1403 28.4984 28.8316 29.2036 29.2428C29.8761 29.6349 30.738 29.8008 31.6453 29.8008V28.8008ZM28.9734 27.2188H29.9734C29.9734 27.1705 29.979 27.0636 30.219 26.9207C30.4833 26.7633 30.9567 26.625 31.6453 26.625V25.625V24.625C30.7285 24.625 29.866 24.8031 29.1956 25.2024C28.5011 25.616 27.9734 26.306 27.9734 27.2188H28.9734ZM31.6453 26.4922V25.4922C31.1163 25.4922 30.5803 25.5724 30.1386 25.7972C29.676 26.0326 29.1966 26.5108 29.216 27.2451L30.2156 27.2188L31.2153 27.1924C31.2182 27.3047 31.1813 27.4168 31.1211 27.5007C31.069 27.5732 31.025 27.5902 31.0456 27.5797C31.0653 27.5697 31.1222 27.5461 31.2299 27.5258C31.3353 27.5059 31.4736 27.4922 31.6453 27.4922V26.4922ZM30.2156 27.2188L29.216 27.1924C29.1965 27.9322 29.6826 28.4078 30.147 28.6386C30.5879 28.8578 31.1217 28.9336 31.6453 28.9336V27.9336V26.9336C31.4713 26.9336 31.3311 26.9203 31.224 26.9007C31.1144 26.8808 31.0568 26.8574 31.0372 26.8477C31.0165 26.8374 31.0631 26.8552 31.1176 26.9302C31.181 27.0174 31.2182 27.1323 31.2153 27.2451L30.2156 27.2188ZM31.6453 27.9336V28.9336C32.1617 28.9336 32.6897 28.8564 33.1283 28.6397C33.5824 28.4153 34.075 27.953 34.075 27.2188H33.075H32.075C32.075 27.1043 32.1158 26.9949 32.1752 26.9162C32.2261 26.8487 32.2665 26.8347 32.2424 26.8466C32.2196 26.8579 32.1605 26.8813 32.0531 26.9011C31.9479 26.9205 31.8119 26.9336 31.6453 26.9336V27.9336ZM33.075 27.2188H34.075C34.075 26.49 33.5892 26.025 33.1368 25.7962C32.6973 25.5738 32.1672 25.4922 31.6453 25.4922V26.4922V27.4922C31.8096 27.4922 31.9437 27.5056 32.0472 27.5254C32.1527 27.5455 32.2111 27.5693 32.2339 27.5808C32.258 27.593 32.22 27.5798 32.1716 27.5147C32.1153 27.4392 32.075 27.3325 32.075 27.2188H33.075ZM44.6508 26.5156H45.6508V25.5156H44.6508V26.5156ZM44.6508 35V36H45.6508V35H44.6508ZM43.1156 35H42.1156V36H43.1156V35ZM43.1156 28.0039H44.1156V27.0039H43.1156V28.0039ZM43.0688 28.0039V27.0039H42.7765L42.5303 27.1613L43.0688 28.0039ZM41.0883 29.2695H40.0883V31.0953L41.6268 30.1122L41.0883 29.2695ZM41.0883 27.875L40.5444 27.0358L40.0883 27.3314V27.875H41.0883ZM43.1859 26.5156V25.5156H42.8902L42.6421 25.6764L43.1859 26.5156ZM44.6508 26.5156H43.6508V35H44.6508H45.6508V26.5156H44.6508ZM44.6508 35V34H43.1156V35V36H44.6508V35ZM43.1156 35H44.1156V28.0039H43.1156H42.1156V35H43.1156ZM43.1156 28.0039V27.0039H43.0688V28.0039V29.0039H43.1156V28.0039ZM43.0688 28.0039L42.5303 27.1613L40.5498 28.4269L41.0883 29.2695L41.6268 30.1122L43.6072 28.8465L43.0688 28.0039ZM41.0883 29.2695H42.0883V27.875H41.0883H40.0883V29.2695H41.0883ZM41.0883 27.875L41.6321 28.7142L43.7298 27.3548L43.1859 26.5156L42.6421 25.6764L40.5444 27.0358L41.0883 27.875ZM43.1859 26.5156V27.5156H44.6508V26.5156V25.5156H43.1859V26.5156ZM49.5891 35.1172L49.582 36.1172L49.5828 36.1172L49.5891 35.1172ZM46.2844 30.9922L47.2844 30.9959V30.9922H46.2844ZM52.6359 28.8008V29.8008H53.782L53.6267 28.6653L52.6359 28.8008ZM51.1242 28.8008L50.151 29.0308L50.333 29.8008H51.1242V28.8008ZM47.7609 30.5938H46.7609V31.5938H47.7609V30.5938ZM47.843 30.5938V31.5938H48.4107L48.7017 31.1062L47.843 30.5938ZM47.925 32.2344L46.9251 32.2212L46.9249 32.2344L46.9251 32.2475L47.925 32.2344ZM49.5891 35.1172L49.5962 34.1172C48.9599 34.1127 48.4162 33.924 48.0296 33.5265C47.6446 33.1306 47.2792 32.3874 47.2844 30.9959L46.2844 30.9922L45.2844 30.9884C45.2779 32.7259 45.7386 34.0393 46.5958 34.9208C47.4514 35.8006 48.5658 36.11 49.582 36.1172L49.5891 35.1172ZM46.2844 30.9922H47.2844C47.2844 29.6756 47.5861 28.7636 48.005 28.2064C48.3996 27.6816 48.9485 27.3984 49.6828 27.3984V26.3984V25.3984C48.343 25.3984 47.1926 25.959 46.4065 27.0045C45.6447 28.0176 45.2844 29.4025 45.2844 30.9922H46.2844ZM49.6828 26.3984V27.3984C50.855 27.3984 51.5296 28.0911 51.6452 28.9363L52.6359 28.8008L53.6267 28.6653C53.3673 26.7683 51.7918 25.3984 49.6828 25.3984V26.3984ZM52.6359 28.8008V27.8008H51.1242V28.8008V29.8008H52.6359V28.8008ZM51.1242 28.8008L52.0974 28.5708C51.9735 28.0467 51.6903 27.5705 51.2477 27.2286C50.8054 26.8869 50.2604 26.7227 49.6828 26.7227V27.7227V28.7227C49.8787 28.7227 49.9782 28.7752 50.0251 28.8114C50.0718 28.8475 50.1226 28.9103 50.151 29.0308L51.1242 28.8008ZM49.6828 27.7227V26.7227C48.7219 26.7227 47.9321 27.1721 47.4258 27.9395C46.9513 28.6586 46.7609 29.5952 46.7609 30.5938H47.7609H48.7609C48.7609 29.811 48.9162 29.3121 49.0952 29.0409C49.2421 28.8182 49.4133 28.7227 49.6828 28.7227V27.7227ZM47.7609 30.5938V31.5938H47.843V30.5938V29.5938H47.7609V30.5938ZM47.843 30.5938L48.7017 31.1062C48.9333 30.718 49.4049 30.4336 50.0227 30.4336V29.4336V28.4336C48.7888 28.4336 47.6198 29.0164 46.9843 30.0813L47.843 30.5938ZM50.0227 29.4336V30.4336C50.9853 30.4336 51.718 31.1258 51.718 32.1875H52.718H53.718C53.718 30.0383 52.1069 28.4336 50.0227 28.4336V29.4336ZM52.718 32.1875H51.718C51.718 32.7753 51.5042 33.2436 51.1662 33.5662C50.8269 33.89 50.3041 34.1216 49.5953 34.1172L49.5891 35.1172L49.5828 36.1172C50.749 36.1245 51.7906 35.735 52.5471 35.0129C53.3048 34.2896 53.718 33.2872 53.718 32.1875H52.718ZM49.5891 33.8867V34.8867C51.1091 34.8867 52.2414 33.6821 52.2414 32.2227H51.2414H50.2414C50.2414 32.6148 49.9675 32.8867 49.5891 32.8867V33.8867ZM51.2414 32.2227H52.2414C52.2414 30.7823 51.1164 29.5938 49.6125 29.5938V30.5938V31.5938C49.9836 31.5938 50.2414 31.8584 50.2414 32.2227H51.2414ZM49.6125 30.5938V29.5938C48.1129 29.5938 46.944 30.7867 46.9251 32.2212L47.925 32.2344L48.9249 32.2475C48.9295 31.9008 49.2136 31.5938 49.6125 31.5938V30.5938ZM47.925 32.2344L46.9251 32.2475C46.9435 33.6496 48.046 34.8867 49.5891 34.8867V33.8867V32.8867C49.2103 32.8867 48.9299 32.6004 48.9249 32.2212L47.925 32.2344ZM55.0547 34.168L56.0125 34.4553L56.3987 33.168H55.0547V34.168ZM54.0703 37.4492V38.4492H54.8143L55.0281 37.7366L54.0703 37.4492ZM52.957 37.4492L51.9738 37.2666L51.7542 38.4492H52.957V37.4492ZM53.5664 34.168V33.168H52.735L52.5832 33.9854L53.5664 34.168ZM55.0547 34.168L54.0969 33.8806L53.1125 37.1619L54.0703 37.4492L55.0281 37.7366L56.0125 34.4553L55.0547 34.168ZM54.0703 37.4492V36.4492H52.957V37.4492V38.4492H54.0703V37.4492ZM52.957 37.4492L53.9402 37.6318L54.5496 34.3506L53.5664 34.168L52.5832 33.9854L51.9738 37.2666L52.957 37.4492ZM53.5664 34.168V35.168H55.0547V34.168V33.168H53.5664V34.168ZM56.4188 35L55.5296 34.5423L54.7793 36H56.4188V35ZM60.0984 27.8516L60.9876 28.3092L61.0984 28.0938V27.8516H60.0984ZM60.0984 27.793H61.0984V26.793H60.0984V27.793ZM55.8328 27.793H54.8328V28.793H55.8328V27.793ZM55.8328 26.5156V25.5156H54.8328V26.5156H55.8328ZM61.6805 26.5156H62.6805V25.5156H61.6805V26.5156ZM61.6805 27.8164L62.5705 28.2723L62.6805 28.0576V27.8164H61.6805ZM58.0008 35V36H58.6121L58.8908 35.4559L58.0008 35ZM56.4188 35L57.3079 35.4577L60.9876 28.3092L60.0984 27.8516L59.2093 27.3939L55.5296 34.5423L56.4188 35ZM60.0984 27.8516H61.0984V27.793H60.0984H59.0984V27.8516H60.0984ZM60.0984 27.793V26.793H55.8328V27.793V28.793H60.0984V27.793ZM55.8328 27.793H56.8328V26.5156H55.8328H54.8328V27.793H55.8328ZM55.8328 26.5156V27.5156H61.6805V26.5156V25.5156H55.8328V26.5156ZM61.6805 26.5156H60.6805V27.8164H61.6805H62.6805V26.5156H61.6805ZM61.6805 27.8164L60.7904 27.3605L57.1108 34.5441L58.0008 35L58.8908 35.4559L62.5705 28.2723L61.6805 27.8164ZM58.0008 35V34H56.4188V35V36H58.0008V35ZM65.5523 35.1172V34.1172C64.8217 34.1172 64.3135 33.8497 63.9575 33.3772C63.5734 32.8675 63.2945 32.018 63.2945 30.7578H62.2945H61.2945C61.2945 32.2749 61.625 33.6052 62.3601 34.5808C63.1232 35.5936 64.244 36.1172 65.5523 36.1172V35.1172ZM62.2945 30.7578H63.2945C63.2945 29.5043 63.573 28.654 63.958 28.142C64.3153 27.6669 64.8241 27.3984 65.5523 27.3984V26.3984V25.3984C64.2415 25.3984 63.1214 25.9268 62.3595 26.94C61.6254 27.9163 61.2945 29.2457 61.2945 30.7578H62.2945ZM65.5523 26.3984V27.3984C66.2734 27.3984 66.7833 27.666 67.143 28.143C67.5296 28.6558 67.8102 29.5063 67.8102 30.7578H68.8102H69.8102C69.8102 29.2437 69.4755 27.9145 68.74 26.939C67.9776 25.9278 66.8587 25.3984 65.5523 25.3984V26.3984ZM68.8102 30.7578H67.8102C67.8102 32.018 67.5313 32.8675 67.1472 33.3772C66.7912 33.8497 66.283 34.1172 65.5523 34.1172V35.1172V36.1172C66.8607 36.1172 67.9814 35.5936 68.7446 34.5808C69.4796 33.6052 69.8102 32.2749 69.8102 30.7578H68.8102ZM65.5523 33.8398V34.8398C66.4822 34.8398 67.2244 34.3528 67.6798 33.5631C68.102 32.831 68.275 31.8591 68.275 30.7578H67.275H66.275C66.275 31.6956 66.1198 32.2647 65.9473 32.5639C65.808 32.8054 65.6889 32.8398 65.5523 32.8398V33.8398ZM67.275 30.7578H68.275C68.275 29.6583 68.0978 28.6861 67.6762 27.9524C67.2254 27.1679 66.4876 26.6641 65.5523 26.6641V27.6641V28.6641C65.6718 28.6641 65.7953 28.6935 65.9421 28.9489C66.1182 29.2554 66.275 29.83 66.275 30.7578H67.275ZM65.5523 27.6641V26.6641C64.6171 26.6641 63.8793 27.1679 63.4285 27.9524C63.0069 28.6861 62.8297 29.6583 62.8297 30.7578H63.8297H64.8297C64.8297 29.83 64.9865 29.2554 65.1625 28.9489C65.3093 28.6935 65.4329 28.6641 65.5523 28.6641V27.6641ZM63.8297 30.7578H62.8297C62.8297 31.8591 63.0026 32.831 63.4248 33.5631C63.8803 34.3528 64.6225 34.8398 65.5523 34.8398V33.8398V32.8398C65.4158 32.8398 65.2967 32.8054 65.1574 32.5639C64.9849 32.2647 64.8297 31.6956 64.8297 30.7578H63.8297ZM72.9164 35.1172V34.1172C72.1857 34.1172 71.6775 33.8497 71.3215 33.3772C70.9375 32.8675 70.6586 32.018 70.6586 30.7578H69.6586H68.6586C68.6586 32.2749 68.9891 33.6052 69.7242 34.5808C70.4873 35.5936 71.608 36.1172 72.9164 36.1172V35.1172ZM69.6586 30.7578H70.6586C70.6586 29.5043 70.9371 28.654 71.3221 28.142C71.6794 27.6669 72.1882 27.3984 72.9164 27.3984V26.3984V25.3984C71.6056 25.3984 70.4855 25.9268 69.7236 26.94C68.9895 27.9163 68.6586 29.2457 68.6586 30.7578H69.6586ZM72.9164 26.3984V27.3984C73.6374 27.3984 74.1474 27.666 74.5071 28.143C74.8937 28.6558 75.1742 29.5063 75.1742 30.7578H76.1742H77.1742C77.1742 29.2437 76.8395 27.9145 76.1041 26.939C75.3417 25.9278 74.2227 25.3984 72.9164 25.3984V26.3984ZM76.1742 30.7578H75.1742C75.1742 32.018 74.8954 32.8675 74.5113 33.3772C74.1553 33.8497 73.6471 34.1172 72.9164 34.1172V35.1172V36.1172C74.2248 36.1172 75.3455 35.5936 76.1086 34.5808C76.8437 33.6052 77.1742 32.2749 77.1742 30.7578H76.1742ZM72.9164 33.8398V34.8398C73.8463 34.8398 74.5885 34.3528 75.0439 33.5631C75.4661 32.831 75.6391 31.8591 75.6391 30.7578H74.6391H73.6391C73.6391 31.6956 73.4839 32.2647 73.3114 32.5639C73.1721 32.8054 73.0529 32.8398 72.9164 32.8398V33.8398ZM74.6391 30.7578H75.6391C75.6391 29.6583 75.4618 28.6861 75.0403 27.9524C74.5894 27.1679 73.8516 26.6641 72.9164 26.6641V27.6641V28.6641C73.0359 28.6641 73.1594 28.6935 73.3062 28.9489C73.4823 29.2554 73.6391 29.83 73.6391 30.7578H74.6391ZM72.9164 27.6641V26.6641C71.9812 26.6641 71.2434 27.1679 70.7925 27.9524C70.371 28.6861 70.1938 29.6583 70.1938 30.7578H71.1938H72.1938C72.1938 29.83 72.3505 29.2554 72.5266 28.9489C72.6734 28.6935 72.797 28.6641 72.9164 28.6641V27.6641ZM71.1938 30.7578H70.1938C70.1938 31.8591 70.3667 32.831 70.7889 33.5631C71.2443 34.3528 71.9865 34.8398 72.9164 34.8398V33.8398V32.8398C72.7799 32.8398 72.6607 32.8054 72.5214 32.5639C72.3489 32.2647 72.1938 31.6956 72.1938 30.7578H71.1938ZM85.6828 25.4609H86.6828V24.4609H85.6828V25.4609ZM85.6828 33.4766V34.4766H86.6828V33.4766H85.6828ZM84.3703 33.4766H83.3703V34.4766H84.3703V33.4766ZM84.3703 32.5508H85.3703V31.5508H84.3703V32.5508ZM82.2961 32.5508H81.2961V33.5508H82.2961V32.5508ZM82.2961 31.6367V30.6367H81.2961V31.6367H82.2961ZM84.3703 31.6367V32.6367H85.3703V31.6367H84.3703ZM84.3703 25.4609V24.4609H83.3703V25.4609H84.3703ZM85.9289 34.7773H86.9289V33.7773H85.9289V34.7773ZM85.9289 35.832V36.832H86.9289V35.832H85.9289ZM78.1594 35.832H77.1594V36.832H78.1594V35.832ZM78.1594 32.7031V31.7031H77.1594V32.7031H78.1594ZM79.4602 32.7031H80.4602V31.7031H79.4602V32.7031ZM79.4602 34.7773H78.4602V35.7773H79.4602V34.7773ZM76.7531 30.2188L76.7471 29.2188L75.5846 29.2257L75.7653 30.3741L76.7531 30.2188ZM83.5852 29.9023L84.5824 29.8276L84.5038 28.7797L83.4611 28.9101L83.5852 29.9023ZM83.6555 30.8398L83.8209 31.8261L84.7209 31.6751L84.6527 30.7651L83.6555 30.8398ZM80.9836 31.1445L80.9184 30.1467L79.9836 30.2078V31.1445H80.9836ZM80.9836 33.1836V34.1836H81.9836V33.1836H80.9836ZM79.6828 33.1836H78.6828V34.1836H79.6828V33.1836ZM79.6828 31.2148H80.6828V30.1726L79.6414 30.2157L79.6828 31.2148ZM76.9172 31.2617L75.9293 31.4171L76.0622 32.2617H76.9172V31.2617ZM82.8469 27.7227L83.8468 27.733L83.8469 27.7225L83.8468 27.7121L82.8469 27.7227ZM81.6047 27.7227L82.6045 27.7431L82.6049 27.7227L82.6045 27.7023L81.6047 27.7227ZM85.6828 25.4609H84.6828V33.4766H85.6828H86.6828V25.4609H85.6828ZM85.6828 33.4766V32.4766H84.3703V33.4766V34.4766H85.6828V33.4766ZM84.3703 33.4766H85.3703V32.5508H84.3703H83.3703V33.4766H84.3703ZM84.3703 32.5508V31.5508H82.2961V32.5508V33.5508H84.3703V32.5508ZM82.2961 32.5508H83.2961V31.6367H82.2961H81.2961V32.5508H82.2961ZM82.2961 31.6367V32.6367H84.3703V31.6367V30.6367H82.2961V31.6367ZM84.3703 31.6367H85.3703V25.4609H84.3703H83.3703V31.6367H84.3703ZM84.3703 25.4609V26.4609H85.6828V25.4609V24.4609H84.3703V25.4609ZM85.9289 34.7773H84.9289V35.832H85.9289H86.9289V34.7773H85.9289ZM85.9289 35.832V34.832H78.1594V35.832V36.832H85.9289V35.832ZM78.1594 35.832H79.1594V32.7031H78.1594H77.1594V35.832H78.1594ZM78.1594 32.7031V33.7031H79.4602V32.7031V31.7031H78.1594V32.7031ZM79.4602 32.7031H78.4602V34.7773H79.4602H80.4602V32.7031H79.4602ZM79.4602 34.7773V35.7773H85.9289V34.7773V33.7773H79.4602V34.7773ZM76.7531 30.2188L76.7591 31.2187C78.7069 31.2071 81.3908 31.1844 83.7092 30.8946L83.5852 29.9023L83.4611 28.9101C81.2795 29.1828 78.7134 29.207 76.7471 29.2188L76.7531 30.2188ZM83.5852 29.9023L82.588 29.9771L82.6583 30.9146L83.6555 30.8398L84.6527 30.7651L84.5824 29.8276L83.5852 29.9023ZM83.6555 30.8398L83.49 29.8536C82.6541 29.9939 81.7855 30.09 80.9184 30.1467L80.9836 31.1445L81.0488 32.1424C81.9746 32.0819 82.9107 31.9788 83.8209 31.8261L83.6555 30.8398ZM80.9836 31.1445H79.9836V33.1836H80.9836H81.9836V31.1445H80.9836ZM80.9836 33.1836V32.1836H79.6828V33.1836V34.1836H80.9836V33.1836ZM79.6828 33.1836H80.6828V31.2148H79.6828H78.6828V33.1836H79.6828ZM79.6828 31.2148L79.6414 30.2157C78.6723 30.2558 77.7454 30.2617 76.9172 30.2617V31.2617V32.2617C77.753 32.2617 78.7129 32.2559 79.7242 32.214L79.6828 31.2148ZM76.9172 31.2617L77.905 31.1063L77.741 30.0634L76.7531 30.2188L75.7653 30.3741L75.9293 31.4171L76.9172 31.2617ZM80.2102 25.8477V26.8477C80.8309 26.8477 81.2699 27.0018 81.5254 27.1831C81.761 27.3503 81.8448 27.5346 81.8469 27.7332L82.8469 27.7227L83.8468 27.7121C83.8372 26.7975 83.3762 26.0442 82.683 25.5522C82.0098 25.0744 81.1363 24.8477 80.2102 24.8477V25.8477ZM82.8469 27.7227L81.8469 27.7123C81.8447 27.9254 81.7588 28.1024 81.5323 28.2602C81.2799 28.4362 80.8405 28.5859 80.2102 28.5859V29.5859V30.5859C81.1267 30.5859 81.9998 30.3724 82.6761 29.9009C83.3783 29.4113 83.8373 28.6566 83.8468 27.733L82.8469 27.7227ZM80.2102 29.5859V28.5859C79.5649 28.5859 79.1201 28.4348 78.8678 28.2594C78.6433 28.1034 78.5617 27.9313 78.5617 27.7227H77.5617H76.5617C76.5617 28.6508 77.0192 29.4103 77.7264 29.9017C78.4056 30.3738 79.2851 30.5859 80.2102 30.5859V29.5859ZM77.5617 27.7227H78.5617C78.5617 27.5287 78.641 27.3493 78.8747 27.184C79.1301 27.0033 79.5745 26.8477 80.2102 26.8477V25.8477V24.8477C79.2755 24.8477 78.3957 25.0729 77.7195 25.5513C77.0215 26.0452 76.5617 26.8033 76.5617 27.7227H77.5617ZM80.2102 26.8086V25.8086C79.6726 25.8086 79.1127 25.914 78.6521 26.204C78.1551 26.5168 77.7922 27.0441 77.7922 27.7227H78.7922H79.7922C79.7922 27.7526 79.7827 27.8014 79.7544 27.849C79.7285 27.8926 79.7052 27.9043 79.7174 27.8966C79.7316 27.8877 79.7758 27.8644 79.863 27.8438C79.9491 27.8234 80.0647 27.8086 80.2102 27.8086V26.8086ZM78.7922 27.7227H77.7922C77.7922 28.4012 78.1551 28.9285 78.6521 29.2413C79.1127 29.5313 79.6726 29.6367 80.2102 29.6367V28.6367V27.6367C80.0647 27.6367 79.9491 27.6219 79.863 27.6015C79.7758 27.5809 79.7316 27.5576 79.7174 27.5487C79.7052 27.541 79.7285 27.5527 79.7544 27.5963C79.7827 27.6439 79.7922 27.6927 79.7922 27.7227H78.7922ZM80.2102 28.6367V29.6367C80.7379 29.6367 81.2885 29.5283 81.7434 29.2385C82.2297 28.9288 82.5908 28.4115 82.6045 27.7431L81.6047 27.7227L80.6049 27.7023C80.6055 27.6748 80.6149 27.6316 80.6399 27.5902C80.6628 27.5524 80.6821 27.5433 80.669 27.5516C80.6319 27.5753 80.491 27.6367 80.2102 27.6367V28.6367ZM81.6047 27.7227L82.6045 27.7023C82.5908 27.0338 82.2297 26.5165 81.7434 26.2068C81.2885 25.917 80.7379 25.8086 80.2102 25.8086V26.8086V27.8086C80.491 27.8086 80.6319 27.8701 80.669 27.8937C80.6821 27.902 80.6628 27.8929 80.6399 27.8551C80.6149 27.8138 80.6055 27.7705 80.6049 27.7431L81.6047 27.7227ZM89.0508 26.5156L90.0505 26.5371L90.0725 25.5156H89.0508V26.5156ZM88.9219 32.5039V33.5039H89.9006L89.9216 32.5254L88.9219 32.5039ZM87.5977 32.5039L86.5979 32.5274L86.6209 33.5039H87.5977V32.5039ZM87.457 26.5156V25.5156H86.4333L86.4573 26.5391L87.457 26.5156ZM89.0508 26.5156L88.051 26.4941L87.9221 32.4824L88.9219 32.5039L89.9216 32.5254L90.0505 26.5371L89.0508 26.5156ZM88.9219 32.5039V31.5039H87.5977V32.5039V33.5039H88.9219V32.5039ZM87.5977 32.5039L88.5974 32.4804L88.4568 26.4921L87.457 26.5156L86.4573 26.5391L86.5979 32.5274L87.5977 32.5039ZM87.457 26.5156V27.5156H89.0508V26.5156V25.5156H87.457V26.5156ZM88.2656 35.0938V34.0938C88.314 34.0938 88.3516 34.1313 88.3516 34.1797H87.3516H86.3516C86.3516 35.2359 87.2094 36.0938 88.2656 36.0938V35.0938ZM87.3516 34.1797H88.3516C88.3516 34.2166 88.3357 34.2422 88.3236 34.2542C88.3111 34.2666 88.2901 34.2773 88.2656 34.2773V33.2773V32.2773C87.2178 32.2773 86.3516 33.1269 86.3516 34.1797H87.3516ZM88.2656 33.2773V34.2773C88.2192 34.2773 88.1978 34.2589 88.193 34.2542C88.187 34.2482 88.168 34.2246 88.168 34.1797H89.168H90.168C90.168 33.1269 89.29 32.2773 88.2656 32.2773V33.2773ZM89.168 34.1797H88.168C88.168 34.1468 88.1822 34.1263 88.1899 34.1186C88.1958 34.1127 88.2187 34.0938 88.2656 34.0938V35.0938V36.0938C89.2984 36.0938 90.168 35.2359 90.168 34.1797H89.168Z" fill="#FFDA4D" mask="url(#path-4-outside-1_7390_4445)"/>
</g>
<defs>
<filter id="filter0_d_7390_4445" x="0" y="0" width="117" height="66" filterUnits="userSpaceOnUse" color-interpolation-filters="sRGB">
<feFlood flood-opacity="0" result="BackgroundImageFix"/>
<feColorMatrix in="SourceAlpha" type="matrix" values="0 0 0 0 0 0 0 0 0 0 0 0 0 0 0 0 0 0 127 0" result="hardAlpha"/>
<feOffset dy="5"/>
<feGaussianBlur stdDeviation="7.5"/>
<feComposite in2="hardAlpha" operator="out"/>
<feColorMatrix type="matrix" values="0 0 0 0 0.52549 0 0 0 0 0.541176 0 0 0 0 0.576471 0 0 0 0.15 0"/>
<feBlend mode="normal" in2="BackgroundImageFix" result="effect1_dropShadow_7390_4445"/>
<feBlend mode="normal" in="SourceGraphic" in2="effect1_dropShadow_7390_4445" result="shape"/>
</filter>
</defs>
</svg>
