<svg width="335" height="27" viewBox="0 0 335 27" fill="none" xmlns="http://www.w3.org/2000/svg">
<g clip-path="url(#clip0_3611_4161)">
<mask id="mask0_3611_4161" style="mask-type:luminance" maskUnits="userSpaceOnUse" x="0" y="0" width="335" height="44">
<path d="M335 0H0V44H335V0Z" fill="white"/>
</mask>
<g mask="url(#mask0_3611_4161)">
<path d="M321.863 35.2933H318.624C314.391 35.2933 310.312 33.7603 307.187 30.9935L282.68 12.122C279.551 9.3553 275.472 7.82227 271.243 7.82227H159.137C152.433 7.82227 147 13.0969 147 19.6052V44.3081C147 50.8165 152.433 50.8445 159.137 50.8445H321.863C328.567 50.8445 334 50.8165 334 44.3081V41.3981C334 34.8897 328.567 35.2933 321.863 35.2933Z" fill="#ECF0FF"/>
<path fill-rule="evenodd" clip-rule="evenodd" d="M175.2 27.4143H178.317C178.678 27.4143 179.034 27.413 179.386 27.4118C181.309 27.4051 183.097 27.3987 184.637 27.6H319C327.837 27.6 335 34.967 335 44H0V36.4105V27.6V11.7586C0 5.26372 5.22985 0 11.6829 0H129.592C133.663 0 137.589 1.52987 140.601 4.2909L164.191 23.1234C167.199 25.8844 171.125 27.4143 175.2 27.4143Z" fill="#DBE5FF"/>
</g>
<mask id="mask1_3611_4161" style="mask-type:luminance" maskUnits="userSpaceOnUse" x="0" y="0" width="335" height="44">
<path d="M335 0H0V44H335V0Z" fill="white"/>
</mask>
<g mask="url(#mask1_3611_4161)">
<path d="M321.863 35.2933H318.624C314.391 35.2933 310.312 33.7603 307.187 30.9935L282.68 12.122C279.551 9.3553 275.472 7.82227 271.243 7.82227H159.137C152.433 7.82227 147 13.0969 147 19.6052V44.3081C147 50.8165 152.433 50.8445 159.137 50.8445H321.863C328.567 50.8445 334 50.8165 334 44.3081V41.3981C334 34.8897 328.567 35.2933 321.863 35.2933Z" fill="#ECF0FF"/>
<path fill-rule="evenodd" clip-rule="evenodd" d="M175.2 27.4143H178.317C178.678 27.4143 179.034 27.413 179.386 27.4118C181.309 27.4051 183.097 27.3987 184.637 27.6H319C327.837 27.6 335 34.967 335 44H0V36.4105V27.6V11.7586C0 5.26372 5.22985 0 11.6829 0H129.592C133.663 0 137.589 1.52987 140.601 4.2909L164.191 23.1234C167.199 25.8844 171.125 27.4143 175.2 27.4143Z" fill="#DBE5FF"/>
</g>
</g>
<defs>
<clipPath id="clip0_3611_4161">
<rect width="335" height="27" fill="white"/>
</clipPath>
</defs>
</svg>
