<svg xmlns="http://www.w3.org/2000/svg" width="144.386" height="20" viewBox="0 0 144.386 20">
  <g id="그룹_1623" data-name="그룹 1623" transform="translate(-161.242 -798.526)">
    <g id="그룹_1571" data-name="그룹 1571" transform="translate(225.986 803.946)">
      <g id="그룹_202" data-name="그룹 202">
        <path id="패스_514" data-name="패스 514" d="M8.816,40.005a5,5,0,0,0-1.1-1.7A5.164,5.164,0,0,0,4.107,37H0V47.319H4.107a6.459,6.459,0,0,0,2-.3,3.366,3.366,0,0,0,1.6-1,3.865,3.865,0,0,0,1.1-1.7,5.391,5.391,0,0,0,.4-2.2A4.646,4.646,0,0,0,8.816,40.005Zm-1.9,3.907a2,2,0,0,1-.8,1,3.134,3.134,0,0,1-1,.5,4.109,4.109,0,0,1-1.1.1H2V38.7h2.1a4.109,4.109,0,0,1,1.1.1,1.909,1.909,0,0,1,1,.5,2.728,2.728,0,0,1,.8,1,3.992,3.992,0,0,1,.3,1.7A6.1,6.1,0,0,1,6.912,43.912Z" transform="translate(0 -36.9)" fill="#bdbdc9"/>
        <path id="패스_515" data-name="패스 515" d="M14.61,37h-.2L9.2,47.319h2.1l3.206-6.412,3.206,6.412h2.1Z" transform="translate(0.017 -36.9)" fill="#bdbdc9"/>
        <path id="패스_516" data-name="패스 516" d="M31.11,37h-.2L25.6,47.319h2.1l3.206-6.412,3.206,6.412h2.1Z" transform="translate(0.046 -36.9)" fill="#bdbdc9"/>
        <path id="패스_517" data-name="패스 517" d="M18.9,37v1.7h3.005v8.515h2V38.7h2.905V37Z" transform="translate(0.034 -36.9)" fill="#bdbdc9"/>
        <path id="패스_518" data-name="패스 518" d="M44.913,37v4.508H39.8V37h-2V47.319h2V43.211h5.109v4.107h2V37Z" transform="translate(0.068 -36.9)" fill="#bdbdc9"/>
        <path id="패스_519" data-name="패스 519" d="M56.714,38.7V37H49.1V47.319h7.614v-1.8H51.1v-2.4h5.009v-1.8H51.1V38.7Z" transform="translate(0.088 -36.9)" fill="#bdbdc9"/>
        <path id="패스_520" data-name="패스 520" d="M65.111,43.812a4.822,4.822,0,0,0,1.6-1.2,3.612,3.612,0,0,0,.6-2,3.2,3.2,0,0,0-.3-1.4,4.137,4.137,0,0,0-.7-1.1,2.594,2.594,0,0,0-1.1-.7,3.2,3.2,0,0,0-1.4-.3H59V47.419h2V44.012h1.9c.4.6.8,1.1,1.2,1.7.4.5.8,1.1,1.2,1.6h2.4C66.814,46.116,65.912,45.014,65.111,43.812Zm-.9-1.6a1.271,1.271,0,0,1-.6.1H61V38.8h2.7a1.887,1.887,0,0,1,.8.2,1.207,1.207,0,0,1,.5.5,1.424,1.424,0,0,1,.2.6,4.339,4.339,0,0,0,.1.5,2.206,2.206,0,0,1-.1.8,1,1,0,0,1-.4.5Z" transform="translate(0.106 -36.9)" fill="#bdbdc9"/>
        <path id="패스_521" data-name="패스 521" d="M79.118,40.106a7.132,7.132,0,0,0-1.1-1.7,3.866,3.866,0,0,0-1.7-1.1,4.646,4.646,0,0,0-2.1-.4,5.232,5.232,0,0,0-2.1.4,9.926,9.926,0,0,0-1.7,1.1,4.525,4.525,0,0,0-1.1,1.7,4.927,4.927,0,0,0-.4,2.1,5.232,5.232,0,0,0,.4,2.1,9.927,9.927,0,0,0,1.1,1.7,4.525,4.525,0,0,0,1.7,1.1,4.646,4.646,0,0,0,2.1.4,5.232,5.232,0,0,0,2.1-.4,9.927,9.927,0,0,0,1.7-1.1,3.865,3.865,0,0,0,1.1-1.7,5.723,5.723,0,0,0,0-4.208Zm-1.8,3.406a4.137,4.137,0,0,1-.7,1.1,4.448,4.448,0,0,1-1.1.8,2.972,2.972,0,0,1-2.6,0,2.841,2.841,0,0,1-1.1-.8,4.136,4.136,0,0,1-.7-1.1,3.085,3.085,0,0,1-.3-1.3,2.773,2.773,0,0,1,.3-1.3,4.137,4.137,0,0,1,.7-1.1,4.448,4.448,0,0,1,1.1-.8,2.972,2.972,0,0,1,2.6,0,2.841,2.841,0,0,1,1.1.8,4.137,4.137,0,0,1,.7,1.1,3.085,3.085,0,0,1,.3,1.3A6.119,6.119,0,0,1,77.315,43.512Z" transform="translate(0.124 -36.9)" fill="#bdbdc9"/>
      </g>
    </g>
    <path id="패스_3632" data-name="패스 3632" d="M10.916,9.743l4.107-4.107L16.2,6.809l-4.107,4.107L16.2,15.022,15.022,16.2l-4.107-4.107L6.809,16.2,5.636,15.022l4.107-4.107L5.636,6.809,6.809,5.636Z" transform="translate(199.955 798.804)" fill="#bdbdc9" opacity="0.332"/>
    <text id="미주미" transform="translate(199.242 814.526)" fill="#bdbdc9" font-size="14" font-family="NotoSansKR-Bold, Noto Sans KR" font-weight="700" letter-spacing="-0.05em"><tspan x="-37.24" y="0">미주미</tspan></text>
  </g>
</svg>
