<svg width="311" height="211" viewBox="0 0 311 211" fill="none" xmlns="http://www.w3.org/2000/svg">
<rect width="311" height="211" rx="16" fill="#F5F6FC"/>
<path d="M178.421 68.0071C177.882 66.0494 176.302 64.5059 174.299 63.9788C170.639 63 156 63 156 63C156 63 141.361 63 137.701 63.9412C135.736 64.4682 134.118 66.0494 133.579 68.0071C132.615 71.5835 132.615 79 132.615 79C132.615 79 132.615 86.4541 133.579 89.9929C134.118 91.9506 135.697 93.4941 137.701 94.0212C141.399 95 156 95 156 95C156 95 170.639 95 174.299 94.0588C176.302 93.5318 177.882 91.9882 178.421 90.0306C179.384 86.4541 179.384 79.0376 179.384 79.0376C179.384 79.0376 179.423 71.5835 178.421 68.0071Z" fill="#FF0000"/>
<path d="M151.338 72.1484V85.852L163.512 79.0002L151.338 72.1484Z" fill="white"/>
<path d="M35.5225 119.074V120.801H21.6934V119.074H27.5371V116.119H29.6455V119.074H35.5225ZM22.1582 114.99C25.603 114.575 27.313 112.865 27.5039 111.188H22.8887V109.495H27.5371V107.603H29.6455V109.495H34.3105V111.188H29.6953C29.8696 112.865 31.5879 114.575 35.0244 114.99L34.2607 116.634C31.5547 116.285 29.604 115.165 28.583 113.604C27.5786 115.165 25.6362 116.285 22.9385 116.634L22.1582 114.99ZM49.0361 107.42V122.561H46.8945V107.42H49.0361ZM36.834 113.861C36.8257 110.566 38.5107 108.482 40.835 108.482C43.1094 108.482 44.8027 110.566 44.8027 113.861C44.8027 117.182 43.1094 119.257 40.835 119.257C38.5107 119.257 36.8257 117.182 36.834 113.861ZM38.876 113.861C38.8677 116.111 39.6562 117.339 40.835 117.331C41.9805 117.339 42.7524 116.111 42.7607 113.861C42.7524 111.62 41.9805 110.392 40.835 110.392C39.6562 110.392 38.8677 111.62 38.876 113.861ZM59.0303 109.412C59.022 111.628 60.9893 113.994 64.4092 114.575L63.4795 116.335C60.8398 115.812 58.8892 114.326 57.9097 112.392C56.9136 114.31 54.9546 115.804 52.3398 116.335L51.4268 114.575C54.7886 113.978 56.7559 111.604 56.7725 109.412V108.316H59.0303V109.412ZM51.0781 120.668V118.925H64.9072V120.668H51.0781ZM73.7227 109.412C73.7144 111.628 75.6816 113.994 79.1016 114.575L78.1719 116.335C75.5322 115.812 73.5815 114.326 72.6021 112.392C71.606 114.31 69.647 115.804 67.0322 116.335L66.1191 114.575C69.481 113.978 71.4482 111.604 71.4648 109.412V108.316H73.7227V109.412ZM65.7705 120.668V118.925H79.5996V120.668H65.7705ZM88.166 108.416V110.093H83.1689V111.354H87.8506V112.981H83.1689V114.293C85.6177 114.276 87.2114 114.193 88.9795 113.878L89.2119 115.538C87.1782 115.895 85.3438 115.97 82.2891 115.97H81.0273V108.416H88.166ZM82.2725 118.858V117.182H92.4492V122.527H90.3242V118.858H82.2725ZM90.3242 116.551V107.42H92.4492V111.105H94.4912V112.865H92.4492V116.551H90.3242ZM103.157 108.98H105.664V116.783C105.664 119.415 103.664 121.174 100.684 121.166C97.6953 121.174 95.7197 119.415 95.7197 116.783V108.98H98.21V116.584C98.2183 117.97 99.1978 118.966 100.684 118.975C102.186 118.966 103.166 117.97 103.157 116.584V108.98ZM114.214 112.417C114.114 111.462 113.359 110.906 112.139 110.906C110.877 110.906 110.171 111.487 110.163 112.284C110.155 113.156 111.051 113.546 112.089 113.778L113.168 114.044C115.227 114.517 116.762 115.563 116.771 117.563C116.762 119.763 115.052 121.174 112.122 121.166C109.217 121.174 107.366 119.83 107.291 117.248H109.715C109.798 118.46 110.761 119.074 112.089 119.074C113.4 119.074 114.247 118.46 114.247 117.563C114.247 116.742 113.5 116.36 112.188 116.036L110.877 115.721C108.852 115.223 107.606 114.21 107.606 112.45C107.598 110.267 109.524 108.814 112.155 108.814C114.82 108.814 116.571 110.292 116.604 112.417H114.214ZM135.58 119.008V120.768H121.751V119.008H135.58ZM122.83 110.441V108.748H134.418V110.441H132.293V115.023H134.352V116.684H122.896V115.023H124.922V110.441H122.83ZM127.047 115.023H130.201V110.441H127.047V115.023ZM149.11 107.42V122.561H147.002V107.42H149.11ZM137.24 110.392V108.682H144.429V114.509H139.448V117.281C141.756 117.265 143.707 117.148 145.923 116.783L146.105 118.493C143.624 118.933 141.374 119.024 138.618 119.024H137.257V112.832H142.271V110.392H137.24ZM159.188 108.781V118.925H151.883V108.781H159.188ZM154.008 117.248H157.129V110.441H154.008V117.248ZM161.645 122.561V107.42H163.786V122.561H161.645ZM170.045 108.217C171.971 108.217 173.506 109.337 173.921 111.006H176.453V107.42H178.562V115.986H176.453V112.716H173.938C173.556 114.409 171.996 115.563 170.045 115.555C167.754 115.563 166.011 114.027 166.027 111.902C166.011 109.752 167.754 108.217 170.045 108.217ZM168.036 111.902C168.028 113.089 168.875 113.77 170.045 113.778C171.174 113.77 172.012 113.089 172.021 111.902C172.012 110.707 171.174 109.977 170.045 109.993C168.875 109.977 168.028 110.707 168.036 111.902ZM168.401 122.361V116.65H178.562V122.361H168.401ZM170.526 120.668H176.486V118.327H170.526V120.668ZM197.139 107.42V122.527H195.03V107.42H197.139ZM184.505 118.261C185.659 118.252 186.979 118.252 188.356 118.219V116.941C186.705 116.642 185.625 115.613 185.634 114.193C185.625 112.508 187.161 111.354 189.386 111.354C191.627 111.354 193.188 112.508 193.188 114.193C193.188 115.604 192.108 116.634 190.448 116.941V118.145C191.718 118.086 192.988 117.987 194.2 117.829L194.35 119.39C191.038 119.962 187.477 119.996 184.787 119.987L184.505 118.261ZM184.804 110.757V109.097H188.356V107.486H190.465V109.097H193.984V110.757H184.804ZM187.643 114.193C187.634 114.99 188.356 115.422 189.386 115.422C190.448 115.422 191.162 114.99 191.162 114.193C191.162 113.413 190.448 112.973 189.386 112.965C188.356 112.973 187.634 113.413 187.643 114.193ZM211.931 107.437V118.842H209.806V117.646H206.917V116.202H209.806V107.437H211.931ZM199.081 114.127C201.845 114.11 205.581 114.069 208.776 113.679L208.893 115.189C207.697 115.389 206.46 115.53 205.24 115.621V118.493H203.115V120.568H212.263V122.262H201.007V117.746H203.115V115.746C201.762 115.795 200.476 115.804 199.33 115.804L199.081 114.127ZM200.193 110.657C200.193 109.047 201.746 107.943 203.995 107.951C206.187 107.943 207.755 109.047 207.764 110.657C207.755 112.276 206.187 113.322 203.995 113.313C201.746 113.322 200.193 112.276 200.193 110.657ZM202.202 110.657C202.194 111.388 202.916 111.794 203.995 111.786C205.008 111.794 205.738 111.388 205.755 110.657C205.738 109.91 205.008 109.495 203.995 109.495C202.916 109.495 202.194 109.91 202.202 110.657ZM229.91 108.3V109.661C229.902 111.072 229.902 112.608 229.52 114.725H231.521V116.435H225.627V122.544H223.502V116.435H217.741V114.725H227.37C227.76 112.782 227.793 111.296 227.802 109.993H219.318V108.3H229.91ZM246.213 114.741V116.418H232.434V114.741H238.261V113.396H234.11V108.018H244.586V109.694H236.219V111.687H244.735V113.396H240.386V114.741H246.213ZM233.961 119.141V117.464H244.569V122.577H242.494V119.141H233.961ZM259.046 107.42V113.33H261.271V115.073H259.046V122.527H256.954V107.42H259.046ZM247.043 111.371V109.678H250.463V107.652H252.588V109.678H255.925V111.371H247.043ZM247.657 115.82C247.649 113.712 249.292 112.209 251.525 112.218C253.725 112.209 255.377 113.712 255.377 115.82C255.377 117.929 253.725 119.415 251.525 119.423C249.292 119.415 247.649 117.929 247.657 115.82ZM249.683 115.82C249.683 116.991 250.455 117.688 251.525 117.68C252.58 117.688 253.352 116.991 253.352 115.82C253.352 114.658 252.58 113.944 251.525 113.928C250.455 113.944 249.683 114.658 249.683 115.82ZM267.695 110.84C267.687 113.612 268.949 116.393 271.514 117.48L270.269 119.174C268.542 118.394 267.347 116.883 266.658 115.015C265.977 117.057 264.74 118.701 262.897 119.539L261.619 117.779C264.259 116.667 265.545 113.77 265.554 110.84V108.582H267.695V110.84ZM272.327 122.561V107.42H274.469V122.561H272.327ZM288.962 108.731V110.159C288.954 112.052 288.954 114.177 288.348 117.381L286.223 117.165C286.804 114.31 286.829 112.185 286.837 110.408H277.938V108.731H288.962ZM276.511 120.685V118.958H281.441V113.762H283.55V118.958H290.29V120.685H276.511ZM82.2061 131.184V132.86H77.209V133.989H81.8906V135.649H77.209V136.795C79.6577 136.787 81.2515 136.695 83.0195 136.38L83.252 138.04C81.2183 138.397 79.3838 138.463 76.3291 138.455H75.0674V131.184H82.2061ZM76.5615 145.361V139.401H78.6865V140.729H84.3643V139.401H86.4893V145.361H76.5615ZM78.6865 143.668H84.3643V142.356H78.6865V143.668ZM84.3643 138.787V130.42H86.4893V133.674H88.5312V135.434H86.4893V138.787H84.3643ZM101.979 131.499V133.226H100.733V137.152C101.356 137.11 101.97 137.061 102.56 136.994L102.709 138.538C99.6377 139.011 96.2344 139.078 93.5947 139.086L93.3623 137.343C93.877 137.343 94.4248 137.343 94.9893 137.334V133.226H93.7607V131.499H101.979ZM95.3711 141.958V140.265H105.764V145.527H103.639V141.958H95.3711ZM97.0146 137.31L98.6914 137.26V133.226H97.0146V137.31ZM103.639 139.667V130.42H105.764V139.667H103.639ZM124.457 130.437V141.46H122.349V136.048H119.875V134.338H122.349V130.437H124.457ZM111.641 138.057C114.139 137.276 115.268 135.309 115.276 133.375V133.143H112.238V131.449H120.439V133.143H117.435V133.392C117.426 135.143 118.505 137.011 120.904 137.791L119.858 139.468C118.19 138.92 117.036 137.824 116.38 136.471C115.708 137.974 114.504 139.194 112.72 139.783L111.641 138.057ZM114.43 145.262V140.497H116.555V143.568H124.822V145.262H114.43ZM134.335 135.832V137.642H140.195V139.352H126.416V137.642H132.243V135.832H134.335ZM127.014 135.035C129.828 134.77 131.372 133.773 131.753 132.728H127.678V131.067H138.95V132.728H134.841C135.215 133.765 136.759 134.77 139.598 135.035L138.851 136.695C136.003 136.413 134.094 135.359 133.289 133.898C132.492 135.351 130.6 136.413 127.761 136.695L127.014 135.035ZM127.993 142.854C127.993 141.136 129.977 140.182 133.289 140.182C136.576 140.182 138.535 141.136 138.552 142.854C138.535 144.573 136.576 145.536 133.289 145.527C129.977 145.536 127.993 144.573 127.993 142.854ZM130.151 142.854C130.143 143.593 131.172 143.95 133.289 143.95C135.356 143.95 136.418 143.593 136.427 142.854C136.418 142.132 135.356 141.792 133.289 141.792C131.172 141.792 130.143 142.132 130.151 142.854ZM153.145 131.018V136.33H149.044V137.774H154.888V139.484H141.108V137.774H146.919V136.33H142.818V131.018H153.145ZM142.636 142.257V140.597H153.211V145.527H151.103V142.257H142.636ZM144.894 134.67H151.069V132.661H144.894V134.67ZM171.805 130.437V134.753H173.73V136.496H171.805V140.696H169.68V130.437H171.805ZM159.553 138.754C160.657 138.754 161.91 138.754 163.222 138.721V137.874C161.578 137.642 160.557 136.836 160.565 135.683C160.557 134.28 162.026 133.417 164.268 133.425C166.492 133.417 167.961 134.28 167.97 135.683C167.961 136.836 166.949 137.633 165.33 137.866V138.646C166.575 138.58 167.82 138.488 168.982 138.339L169.132 139.8C165.936 140.364 162.433 140.397 159.769 140.397L159.553 138.754ZM159.951 133.076V131.532H163.222V130.304H165.33V131.532H168.601V133.076H159.951ZM161.479 142.938V141.311H171.805V145.527H169.68V142.938H161.479ZM162.591 135.683C162.583 136.23 163.188 136.554 164.268 136.546C165.33 136.554 165.936 136.23 165.944 135.683C165.936 135.093 165.33 134.836 164.268 134.836C163.188 134.836 162.583 135.093 162.591 135.683ZM187.062 130.437V141.294H184.937V130.437H187.062ZM174.644 135.201C174.644 132.985 176.453 131.391 178.777 131.399C181.093 131.391 182.903 132.985 182.911 135.201C182.903 137.451 181.093 139.036 178.777 139.036C176.453 139.036 174.644 137.451 174.644 135.201ZM176.719 135.201C176.702 136.463 177.59 137.193 178.777 137.193C179.923 137.193 180.811 136.463 180.819 135.201C180.811 133.973 179.923 133.234 178.777 133.242C177.59 133.234 176.702 133.973 176.719 135.201ZM176.935 145.262V140.198H179.076V143.568H187.46V145.262H176.935ZM201.023 130.42V136.33H203.248V138.073H201.023V145.527H198.932V130.42H201.023ZM189.021 134.371V132.678H192.44V130.652H194.565V132.678H197.902V134.371H189.021ZM189.635 138.82C189.626 136.712 191.27 135.209 193.503 135.218C195.703 135.209 197.354 136.712 197.354 138.82C197.354 140.929 195.703 142.415 193.503 142.423C191.27 142.415 189.626 140.929 189.635 138.82ZM191.66 138.82C191.66 139.991 192.432 140.688 193.503 140.68C194.557 140.688 195.329 139.991 195.329 138.82C195.329 137.658 194.557 136.944 193.503 136.928C192.432 136.944 191.66 137.658 191.66 138.82ZM208.644 134.222C208.635 136.67 209.316 139.194 211.383 140.514L210.237 142.157C208.926 141.369 208.104 140.057 207.623 138.513C207.083 140.223 206.178 141.659 204.809 142.489L203.514 140.929C205.755 139.542 206.585 136.878 206.585 134.321V131.715H208.644V134.222ZM209.789 137.243V135.517H211.748V130.636H213.724V144.83H211.748V137.243H209.789ZM214.869 145.527V130.42H216.895V145.527H214.869ZM232.317 142.024V143.768H218.488V142.024H221.576V138.322C220.406 137.617 219.7 136.546 219.7 135.218C219.7 132.769 222.091 131.159 225.378 131.15C228.648 131.159 231.064 132.769 231.072 135.218C231.064 136.521 230.383 137.575 229.246 138.281V142.024H232.317ZM221.792 135.218C221.792 136.695 223.211 137.608 225.378 137.608C227.511 137.608 228.972 136.695 228.98 135.218C228.972 133.699 227.511 132.819 225.378 132.827C223.211 132.819 221.792 133.699 221.792 135.218ZM223.668 142.024H227.104V139.086C226.565 139.194 225.984 139.252 225.378 139.252C224.772 139.252 224.199 139.194 223.668 139.094V142.024ZM236.617 131.98L236.401 140.397H234.276L234.061 131.98H236.617ZM233.961 142.755C233.944 141.991 234.575 141.369 235.355 141.377C236.094 141.369 236.733 141.991 236.733 142.755C236.733 143.527 236.094 144.149 235.355 144.149C234.575 144.149 233.944 143.527 233.961 142.755Z" fill="#333333"/>
<rect x="12.5" y="12.5" width="92" height="23" rx="7.5" fill="#FFF1D2"/>
<rect x="12.5" y="12.5" width="92" height="23" rx="7.5" stroke="#F8E5BC"/>
<g clip-path="url(#clip0_1178_2165)">
<path d="M29.1437 22.3674L26.5 30L33 22.3674H29.1437Z" fill="#FFE182"/>
<path d="M22.6897 19L20 22.3674H23.8559L22.6897 19Z" fill="#FFCD73"/>
<path d="M29.1436 22.3674H32.9995L30.3098 19L29.1436 22.3674Z" fill="#FFCD73"/>
<path d="M29.1437 22.3674L26.4995 19L23.8554 22.3674H29.1437Z" fill="#FFCD73"/>
<path d="M26.5 19H22.6897L23.8539 22.3674L26.5 19Z" fill="#FFAA64"/>
<path d="M30.3103 19H26.5L29.1437 22.3674L30.3103 19Z" fill="#FFE182"/>
<path d="M23.8559 22.3674L26.5 30L29.1441 22.3674H23.8559Z" fill="#FFAA64"/>
<path d="M20 22.3674L26.5 30L23.8563 22.3674H20Z" fill="#FF8C5A"/>
</g>
<path d="M46.2383 26.7109V27.8496H37.29V26.7109H46.2383ZM37.9883 21.168V20.0723H45.4863V21.168H44.1113V24.1328H45.4434V25.207H38.0312V24.1328H39.3418V21.168H37.9883ZM40.7168 24.1328H42.7578V21.168H40.7168V24.1328ZM54.9932 19.2129V29.0098H53.6289V19.2129H54.9932ZM47.3125 21.1357V20.0293H51.9639V23.7998H48.7412V25.5938C50.2344 25.583 51.4966 25.5078 52.9307 25.2715L53.0488 26.3779C51.4429 26.6626 49.9873 26.7217 48.2041 26.7217H47.3232V22.7148H50.5674V21.1357H47.3125ZM61.5137 20.0938V26.6572H56.7871V20.0938H61.5137ZM58.1621 25.5723H60.1816V21.168H58.1621V25.5723ZM63.1035 29.0098V19.2129H64.4893V29.0098H63.1035ZM68.5391 19.7285C69.7852 19.7285 70.7788 20.4536 71.0474 21.5332H72.6855V19.2129H74.0498V24.7559H72.6855V22.6396H71.0581C70.811 23.7354 69.8013 24.4819 68.5391 24.4766C67.0566 24.4819 65.9287 23.4883 65.9395 22.1133C65.9287 20.7222 67.0566 19.7285 68.5391 19.7285ZM67.2393 22.1133C67.2339 22.8813 67.7817 23.3218 68.5391 23.3271C69.2695 23.3218 69.812 22.8813 69.8174 22.1133C69.812 21.3398 69.2695 20.8672 68.5391 20.8779C67.7817 20.8672 67.2339 21.3398 67.2393 22.1133ZM67.4756 28.8809V25.1855H74.0498V28.8809H67.4756ZM68.8506 27.7852H72.707V26.2705H68.8506V27.7852ZM86.0703 19.2129V28.9883H84.7061V19.2129H86.0703ZM77.8955 26.2275C78.6421 26.2222 79.4961 26.2222 80.3877 26.2007V25.3735C79.3188 25.1802 78.6206 24.5142 78.626 23.5957C78.6206 22.5054 79.6143 21.7588 81.0537 21.7588C82.5039 21.7588 83.5137 22.5054 83.5137 23.5957C83.5137 24.5088 82.8154 25.1748 81.7412 25.3735V26.1523C82.563 26.1147 83.3848 26.0503 84.1689 25.9482L84.2656 26.958C82.1226 27.3286 79.8184 27.3501 78.0781 27.3447L77.8955 26.2275ZM78.0889 21.3721V20.2979H80.3877V19.2559H81.752V20.2979H84.0293V21.3721H78.0889ZM79.9258 23.5957C79.9204 24.1113 80.3877 24.3906 81.0537 24.3906C81.7412 24.3906 82.2031 24.1113 82.2031 23.5957C82.2031 23.0908 81.7412 22.8062 81.0537 22.8008C80.3877 22.8062 79.9204 23.0908 79.9258 23.5957ZM95.6416 19.2236V26.6035H94.2666V25.8301H92.3975V24.8955H94.2666V19.2236H95.6416ZM87.3271 23.5527C89.1157 23.542 91.5327 23.5151 93.6006 23.2627L93.6758 24.2402C92.9023 24.3691 92.1021 24.4604 91.3125 24.5195V26.3779H89.9375V27.7207H95.8564V28.8164H88.5732V25.8945H89.9375V24.6001C89.062 24.6323 88.2295 24.6377 87.4883 24.6377L87.3271 23.5527ZM88.0469 21.3076C88.0469 20.2656 89.0513 19.5513 90.5068 19.5566C91.9248 19.5513 92.9399 20.2656 92.9453 21.3076C92.9399 22.355 91.9248 23.0317 90.5068 23.0264C89.0513 23.0317 88.0469 22.355 88.0469 21.3076ZM89.3467 21.3076C89.3413 21.7803 89.8086 22.0435 90.5068 22.0381C91.1621 22.0435 91.6348 21.7803 91.6455 21.3076C91.6348 20.8242 91.1621 20.5557 90.5068 20.5557C89.8086 20.5557 89.3413 20.8242 89.3467 21.3076Z" fill="#333333"/>
<defs>
<clipPath id="clip0_1178_2165">
<rect width="13" height="11" fill="white" transform="translate(20 19)"/>
</clipPath>
</defs>
</svg>
