<svg xmlns="http://www.w3.org/2000/svg" width="20" height="20" viewBox="0 0 20 20">
  <g id="home_on" transform="translate(-3113 -58)">
    <rect id="사각형_4397" data-name="사각형 4397" width="20" height="20" transform="translate(3113 58)" fill="#aaa" opacity="0"/>
    <path id="home-5-line" d="M12.609,18.345h5.765V9.676L11.648,4.445,4.922,9.676v8.669h5.765V12.58h1.922Zm7.687.961a.961.961,0,0,1-.961.961H3.961A.961.961,0,0,1,3,19.306V9.206a.961.961,0,0,1,.371-.758l7.687-5.979a.961.961,0,0,1,1.18,0l7.687,5.979a.961.961,0,0,1,.371.758Z" transform="translate(3111 56.733)" fill="#404fc3"/>
  </g>
</svg>
