<svg width="20" height="20" viewBox="0 0 20 20" fill="none" xmlns="http://www.w3.org/2000/svg">
<g id="Frame 640" clip-path="url(#clip0_3046_2969)">
<path id="Vector" d="M10 20C15.5228 20 20 15.5228 20 10C20 4.47715 15.5228 0 10 0C4.47715 0 0 4.47715 0 10C0 15.5228 4.47715 20 10 20Z" fill="#00D186"/>
<path id="Vector_2" d="M4.57998 11.0126C4.45292 11.0126 4.3282 10.9562 4.24467 10.8491C4.09997 10.6644 4.13408 10.3973 4.31879 10.2526L5.76468 9.12558L4.26939 8.24675C4.06703 8.12793 3.99997 7.86676 4.1188 7.66441C4.23762 7.46205 4.49879 7.39499 4.70114 7.51381L6.73526 8.71028C6.85644 8.78205 6.93527 8.90793 6.9435 9.04911C6.95291 9.18911 6.89174 9.32558 6.78115 9.41264L4.84115 10.9244C4.7635 10.9844 4.67174 11.0138 4.57998 11.0138V11.0126Z" fill="#1F242B"/>
<path id="Vector_3" d="M15.3977 11.0128C15.3059 11.0128 15.2142 10.9834 15.1365 10.9234L13.1965 9.41166C13.0859 9.3246 13.0247 9.18931 13.0342 9.04813C13.0436 8.90813 13.1212 8.78108 13.2424 8.70931L15.2765 7.51284C15.4788 7.39401 15.7389 7.46108 15.8589 7.66343C15.9777 7.86578 15.9106 8.12578 15.7083 8.24578L14.213 9.1246L15.6588 10.2517C15.8436 10.3964 15.8777 10.6634 15.733 10.8481C15.6494 10.9552 15.5236 11.0117 15.3977 11.0117V11.0128Z" fill="#1F242B"/>
<path id="Vector_4" d="M2.48118 6.36463C2.60589 6.34228 2.7259 6.32228 2.84355 6.30346C3.10237 6.26111 3.34707 6.21993 3.58471 6.16581C3.94001 6.08698 4.26236 5.99052 4.5706 5.86816C4.8953 5.73993 5.19295 5.58934 5.48236 5.40816C5.79883 5.21404 6.09767 4.97875 6.37414 4.75404C6.38943 4.7411 6.41178 4.73993 6.42943 4.74934C6.44707 4.75993 6.45648 4.77875 6.45295 4.79875C6.39295 5.17875 6.19883 5.5564 5.89059 5.89287C5.61059 6.1964 5.25296 6.43875 4.85649 6.59404C4.48354 6.7411 4.07766 6.81052 3.67766 6.79758C3.66237 6.79758 3.64707 6.7964 3.63178 6.79522C3.18472 6.76934 2.79178 6.65522 2.46237 6.45287C2.44472 6.44228 2.43648 6.42228 2.44001 6.40228C2.44354 6.38228 2.46001 6.36699 2.48001 6.36346L2.48118 6.36463Z" fill="#24282C"/>
<path id="Vector_5" d="M17.4964 6.36463C17.3717 6.34228 17.2517 6.32228 17.1341 6.30346C16.8753 6.26111 16.6305 6.21993 16.3929 6.16581C16.0376 6.08698 15.7152 5.99052 15.407 5.86816C15.0823 5.73993 14.7847 5.58934 14.4952 5.40816C14.1788 5.21404 13.88 4.97875 13.6035 4.75404C13.5882 4.7411 13.5658 4.73993 13.5482 4.74934C13.5306 4.75993 13.5211 4.77875 13.5247 4.79875C13.5847 5.17875 13.7788 5.5564 14.087 5.89287C14.367 6.1964 14.7247 6.43875 15.1211 6.59404C15.4941 6.7411 15.9 6.81052 16.3 6.79758C16.3153 6.79758 16.3305 6.7964 16.3458 6.79522C16.7929 6.76934 17.1858 6.65522 17.5153 6.45287C17.5329 6.44228 17.5411 6.42228 17.5376 6.40228C17.5341 6.38228 17.5176 6.36699 17.4976 6.36346L17.4964 6.36463Z" fill="#24282C"/>
<path id="Vector_6" d="M13.4446 11.708C13.5693 11.708 13.687 11.7645 13.7658 11.8621L15.1223 13.548C15.2646 13.7256 15.2364 13.9845 15.0599 14.1268C14.8823 14.2692 14.6234 14.2409 14.4811 14.0645L13.4764 12.8162L12.0611 14.9374C11.9846 15.0515 11.8564 15.121 11.7187 15.121C11.5811 15.121 11.4528 15.0527 11.3764 14.9374L9.99051 12.8621L8.60462 14.9374C8.52815 15.0515 8.39991 15.121 8.26226 15.121C8.12462 15.121 7.99638 15.0515 7.91991 14.9374L6.50462 12.8162L5.49991 14.0645C5.35756 14.2421 5.09755 14.2692 4.92108 14.1268C4.74344 13.9845 4.71639 13.7245 4.85874 13.548L6.2152 11.8621C6.29755 11.7598 6.42461 11.7021 6.55403 11.7092C6.68461 11.7151 6.80579 11.7833 6.87873 11.8915L8.26344 13.9668L9.64933 11.8915C9.7258 11.7774 9.85404 11.708 9.99168 11.708C10.1293 11.708 10.2576 11.7762 10.334 11.8915L11.7199 13.9668L13.1046 11.8915C13.1776 11.7821 13.2976 11.7151 13.4293 11.7092C13.4352 11.7092 13.4411 11.7092 13.4482 11.7092L13.4446 11.708Z" fill="#5E4939"/>
</g>
<defs>
<clipPath id="clip0_3046_2969">
<rect width="20" height="20" fill="white"/>
</clipPath>
</defs>
</svg>
