<svg xmlns="http://www.w3.org/2000/svg" width="19.306" height="17" viewBox="0 0 19.306 17">
  <path id="kakao" d="M22.653,48a11.969,11.969,0,0,1,4.843.971,8.779,8.779,0,0,1,3.518,2.642,5.789,5.789,0,0,1,0,7.293A8.764,8.764,0,0,1,27.5,61.554a11.958,11.958,0,0,1-4.848.971,13.5,13.5,0,0,1-1.713-.113,43.706,43.706,0,0,1-4.083,2.57.288.288,0,0,1-.226-.01.188.188,0,0,1-.065-.082.242.242,0,0,1-.022-.093v-.041q.065-.4.98-3.341a8.69,8.69,0,0,1-3.3-2.616,5.761,5.761,0,0,1,.07-7.185,8.779,8.779,0,0,1,3.518-2.642A11.969,11.969,0,0,1,22.653,48Z" transform="translate(-13 -48)" fill="#391b1b"/>
</svg>
