<svg xmlns="http://www.w3.org/2000/svg" width="15.73" height="11.378" viewBox="0 0 15.73 11.378">
  <g id="그룹_1947" data-name="그룹 1947" transform="translate(-272.06 -58.967)">
    <g id="그룹_1944" data-name="그룹 1944" transform="translate(264.56 25.467)">
      <path id="제외_1" data-name="제외 1" d="M7.365,10.378a43.954,43.954,0,0,1-5.755-.309,1.851,1.851,0,0,1-1.3-1.311A19.539,19.539,0,0,1,0,5.189,19.539,19.539,0,0,1,.308,1.62,1.851,1.851,0,0,1,1.61.309,43.954,43.954,0,0,1,7.365,0,43.951,43.951,0,0,1,13.12.309a1.853,1.853,0,0,1,1.3,1.311,19.539,19.539,0,0,1,.308,3.569,19.539,19.539,0,0,1-.308,3.569,1.853,1.853,0,0,1-1.3,1.311A43.951,43.951,0,0,1,7.365,10.378ZM5.859,3v4.38l3.849-2.19L5.859,3Z" transform="translate(8 34)" fill="#2e3a48" stroke="rgba(0,0,0,0)" stroke-miterlimit="10" stroke-width="1"/>
    </g>
  </g>
</svg>
