<svg width="20" height="20" viewBox="0 0 20 20" fill="none" xmlns="http://www.w3.org/2000/svg">
<g id="Frame 734" clip-path="url(#clip0_3687_3156)">
<g id="Group">
<path id="Vector" d="M15.4071 3.52558C15.4223 3.34609 15.5291 3.19123 15.6898 3.11028C17.3287 2.29611 18.4819 0.817926 18.9019 0.219616C19.0251 0.0436418 19.2409 -0.0361318 19.4498 0.0154871C19.6598 0.0682793 19.8111 0.240732 19.8369 0.454247C20.2616 4.04176 19.4591 5.48006 19.0931 5.93172C18.9922 6.05725 18.8432 6.12295 18.6931 6.12295C18.5863 6.12295 18.4784 6.0901 18.3857 6.02206L15.6135 3.98311C15.4681 3.87635 15.3906 3.7039 15.4059 3.52441L15.4071 3.52558Z" fill="#BA1B28"/>
<path id="Vector_2" d="M4.5941 3.52558C4.57885 3.34609 4.47209 3.19123 4.31137 3.11028C2.67247 2.29611 1.51925 0.817926 1.09926 0.219616C0.97608 0.0436418 0.760221 -0.0361318 0.551399 0.0154871C0.341403 0.0682793 0.19006 0.240732 0.164251 0.454247C-0.260433 4.04176 0.542011 5.48006 0.908036 5.93172C1.00893 6.05725 1.15792 6.12295 1.30808 6.12295C1.41484 6.12295 1.52277 6.0901 1.61545 6.02206L4.38762 3.98311C4.53309 3.87635 4.61052 3.7039 4.59527 3.52441L4.5941 3.52558Z" fill="#BA1B28"/>
</g>
<g id="Group_2">
<path id="Vector_3" d="M10 19.9756C4.47715 19.9756 0 15.5121 0 10.0061C0 4.50012 4.47715 0.0366211 10 0.0366211C15.5228 0.0366211 20 4.50012 20 10.0061C20 15.5121 15.5228 19.9756 10 19.9756Z" fill="#F03E4C"/>
</g>
<path id="Vector_4" d="M14.1375 11.5063C14.398 11.2611 14.8138 11.5328 14.6799 11.8587C13.9337 13.6653 12.1121 14.941 9.98134 14.941C7.85058 14.941 6.08936 13.7067 5.32186 11.9485C5.1821 11.6272 5.60138 11.3497 5.85958 11.5927C7.33655 12.9813 10.4741 14.9572 14.1375 11.5063Z" fill="#24282C"/>
<g id="Group_3">
<path id="Vector_5" d="M14 9.88224C13.3503 9.88224 12.8236 9.35552 12.8236 8.70577C12.8236 8.05603 13.3503 7.5293 14 7.5293C14.6498 7.5293 15.1765 8.05603 15.1765 8.70577C15.1765 9.35552 14.6498 9.88224 14 9.88224Z" fill="#24282C"/>
<path id="Vector_6" d="M4.7059 8.70577C4.7059 9.3559 5.23231 9.88224 5.88236 9.88224C6.53242 9.88224 7.05884 9.35479 7.05884 8.70577C7.05884 8.05676 6.53242 7.5293 5.88236 7.5293C5.23231 7.5293 4.7059 8.05676 4.7059 8.70577Z" fill="#24282C"/>
</g>
<g id="Group_4">
<path id="Vector_7" d="M11.6071 6.89394L12.2782 7.56147L14.5154 5.33129L13.8443 4.6626L11.6071 6.89394Z" fill="#24282C"/>
<path id="Vector_8" d="M7.72271 7.56147L8.39258 6.89394L6.15536 4.6626L5.4855 5.33129L7.72271 7.56147Z" fill="#24282C"/>
</g>
</g>
<defs>
<clipPath id="clip0_3687_3156">
<rect width="20" height="20" fill="white" transform="matrix(-1 0 0 1 20 0)"/>
</clipPath>
</defs>
</svg>
