<svg xmlns="http://www.w3.org/2000/svg" width="14" height="14" viewBox="0 0 14 14">
  <g id="icon_list_event" transform="translate(-24 -222)">
    <rect id="사각형_5736" data-name="사각형 5736" width="14" height="14" transform="translate(24 222)" fill="red" opacity="0"/>
    <g id="Icon_ionic-ios-gift" data-name="Icon ionic-ios-gift" transform="translate(21.542 220.199)">
      <path id="패스_8112" data-name="패스 8112" d="M14.605,5.291H12.14A1.718,1.718,0,0,0,12.733,4,1.8,1.8,0,0,0,10.888,2.25a1.632,1.632,0,0,0-1.43.8,1.632,1.632,0,0,0-1.43-.8A1.8,1.8,0,0,0,6.183,4a1.708,1.708,0,0,0,.594,1.287H4.311a.935.935,0,0,0-.936.936v.585a.117.117,0,0,0,.117.117H15.424a.117.117,0,0,0,.117-.117V6.227A.935.935,0,0,0,14.605,5.291ZM10.888,3.069A.961.961,0,0,1,11.874,4a.961.961,0,0,1-.986.936H9.9C9.9,3.537,10.344,3.069,10.888,3.069Zm-2.86,0c.544,0,.986.468.986,1.872H8.028A.961.961,0,0,1,7.042,4,.961.961,0,0,1,8.028,3.069Z" fill="#1acc6c"/>
      <path id="패스_8113" data-name="패스 8113" d="M4.5,15.562v6.492a.939.939,0,0,0,.936.936h4.27V15.328H4.734A.235.235,0,0,0,4.5,15.562Z" transform="translate(-0.657 -7.639)" fill="#c4c4c4"/>
      <path id="패스_8114" data-name="패스 8114" d="M23.956,15.328H18.984V22.99h4.27a.939.939,0,0,0,.936-.936V15.562A.235.235,0,0,0,23.956,15.328Z" transform="translate(-9.117 -7.639)" fill="#c4c4c4"/>
    </g>
  </g>
</svg>
