<svg xmlns="http://www.w3.org/2000/svg" width="16" height="50" viewBox="0 0 16 50">
  <g id="그룹_2839" data-name="그룹 2839" transform="translate(8340 -431.75)">
    <path id="Icon_ionic-ios-checkmark-circle" data-name="Icon ionic-ios-checkmark-circle" d="M11.375,3.375a8,8,0,1,0,8,8A8,8,0,0,0,11.375,3.375Zm4.1,5.788-5.142,5.165h0a.7.7,0,0,1-.446.212.673.673,0,0,1-.45-.219L7.275,12.167a.153.153,0,0,1,0-.219l.685-.685a.149.149,0,0,1,.215,0l1.708,1.708,4.692-4.727a.152.152,0,0,1,.108-.046h0a.14.14,0,0,1,.108.046l.673.7A.152.152,0,0,1,15.471,9.163Z" transform="translate(-8343.375 428.375)" fill="#014b8d"/>
    <g id="그룹_1884" data-name="그룹 1884" transform="translate(-8345 460.75)">
      <path id="패스_2680" data-name="패스 2680" d="M18.673,12.949l-.677-.7a.146.146,0,0,0-.108-.046h0a.14.14,0,0,0-.108.046l-4.692,4.727-1.708-1.708a.149.149,0,0,0-.215,0l-.685.685a.153.153,0,0,0,0,.219l2.154,2.154a.681.681,0,0,0,.45.219.714.714,0,0,0,.446-.212h0l5.142-5.169A.164.164,0,0,0,18.673,12.949Z" transform="translate(-1.573 -2.375)" fill="#82929f"/>
      <path id="패스_2681" data-name="패스 2681" d="M11.375,4.452a6.92,6.92,0,1,1-4.9,2.027,6.877,6.877,0,0,1,4.9-2.027m0-1.077a8,8,0,1,0,8,8,8,8,0,0,0-8-8Z" transform="translate(1.625 1.625)" fill="#82929f"/>
    </g>
  </g>
</svg>
