<svg xmlns="http://www.w3.org/2000/svg" width="9.65" height="12.666" viewBox="0 0 9.65 12.666">
  <path id="Icon_material-lock" data-name="Icon material-lock" d="M14.444,5.722h-.6V4.516a3.016,3.016,0,0,0-6.031,0V5.722h-.6A1.21,1.21,0,0,0,6,6.928v6.031a1.21,1.21,0,0,0,1.206,1.206h7.238a1.21,1.21,0,0,0,1.206-1.206V6.928A1.21,1.21,0,0,0,14.444,5.722ZM10.825,11.15a1.206,1.206,0,1,1,1.206-1.206A1.21,1.21,0,0,1,10.825,11.15Zm1.87-5.428H8.955V4.516a1.87,1.87,0,1,1,3.739,0Z" transform="translate(-6 -1.5)" fill="#fff" opacity="0.504"/>
</svg>
