<svg xmlns="http://www.w3.org/2000/svg" width="14.52" height="10.21" viewBox="0 0 14.52 10.21">
  <path id="Icon_awesome-youtube" data-name="Icon awesome-youtube" d="M15.267,6.1a1.824,1.824,0,0,0-1.284-1.292A43.117,43.117,0,0,0,8.31,4.5a43.117,43.117,0,0,0-5.673.305A1.825,1.825,0,0,0,1.353,6.1a19.14,19.14,0,0,0-.3,3.518,19.14,19.14,0,0,0,.3,3.518A1.8,1.8,0,0,0,2.637,14.4a43.117,43.117,0,0,0,5.673.305,43.117,43.117,0,0,0,5.673-.305,1.8,1.8,0,0,0,1.284-1.271,19.14,19.14,0,0,0,.3-3.518,19.14,19.14,0,0,0-.3-3.518ZM6.825,11.774V7.456l3.8,2.159-3.8,2.159Z" transform="translate(-1.05 -4.5)" fill="#eb0303"/>
</svg>
