<svg width="20" height="20" viewBox="0 0 20 20" fill="none" xmlns="http://www.w3.org/2000/svg">
<g id="Frame 558" clip-path="url(#clip0_3687_3184)">
<path id="Vector" d="M10 20C15.5228 20 20 15.5228 20 10C20 4.47715 15.5228 0 10 0C4.47715 0 0 4.47715 0 10C0 15.5228 4.47715 20 10 20Z" fill="#FFD05D"/>
<path id="Vector_2" d="M8.23527 8.70577C8.23527 9.35566 7.70885 9.88224 7.05879 9.88224C6.40874 9.88224 5.88232 9.35566 5.88232 8.70577C5.88232 8.05588 6.40874 7.5293 7.05879 7.5293C7.70885 7.5293 8.23527 8.05588 8.23527 8.70577Z" fill="#24282C"/>
<path id="Vector_3" d="M14.1176 8.70577C14.1176 9.35566 13.5912 9.88224 12.9411 9.88224C12.2911 9.88224 11.7646 9.35566 11.7646 8.70577C11.7646 8.05588 12.2911 7.5293 12.9411 7.5293C13.5912 7.5293 14.1176 8.05588 14.1176 8.70577Z" fill="#24282C"/>
<path id="Vector_4" d="M15.8021 7.17175C15.696 7.13377 15.5933 7.09861 15.493 7.06485C15.2716 6.9889 15.064 6.91857 14.8621 6.83277C14.5611 6.709 14.2901 6.56834 14.034 6.40378C13.7641 6.22937 13.5196 6.03667 13.2855 5.81163C13.0295 5.5697 12.7919 5.28558 12.5727 5.01553C12.5601 5.00005 12.5416 4.99583 12.5255 5.00427C12.5093 5.01271 12.4989 5.0324 12.5001 5.05491C12.5162 5.46421 12.6489 5.88758 12.8841 6.2786C13.0987 6.63304 13.387 6.93123 13.7157 7.1408C14.026 7.33912 14.372 7.46149 14.7203 7.49244C14.7341 7.49244 14.7468 7.49525 14.7606 7.49525C15.1516 7.52057 15.5034 7.44461 15.809 7.2688C15.8252 7.25895 15.8344 7.23926 15.8332 7.21816C15.8321 7.19706 15.8194 7.17878 15.8021 7.17175Z" fill="#24282C"/>
<path id="Vector_5" d="M4.19798 7.17175C4.30409 7.13377 4.40674 7.09861 4.50708 7.06485C4.72852 6.9889 4.93612 6.91857 5.13795 6.83277C5.43898 6.709 5.71001 6.56834 5.96605 6.40378C6.23593 6.22937 6.48044 6.03667 6.71457 5.81163C6.97061 5.5697 7.2082 5.28558 7.42733 5.01553C7.44002 5.00005 7.45847 4.99583 7.47462 5.00427C7.49077 5.01271 7.50115 5.0324 7.49999 5.05491C7.48385 5.46421 7.35121 5.88758 7.11593 6.2786C6.90141 6.63304 6.61308 6.93123 6.28437 7.1408C5.97413 7.33912 5.62812 7.46149 5.27982 7.49244C5.26598 7.49244 5.25329 7.49525 5.23945 7.49525C4.84847 7.52057 4.4967 7.44461 4.19106 7.2688C4.17492 7.25895 4.16569 7.23926 4.16684 7.21816C4.168 7.19706 4.18068 7.17878 4.19798 7.17175Z" fill="#24282C"/>
<path id="Vector_6" d="M6.00554 14.9988C5.89523 15.0095 5.83203 14.8917 5.83327 14.804C5.83823 14.3984 5.9634 13.9842 6.20507 13.5732C6.43435 13.1954 6.76277 12.8444 7.15564 12.5576C7.93518 11.9946 8.97127 11.6704 9.99868 11.6671C11.0447 11.65 12.0894 11.9754 12.8615 12.5522C13.6634 13.1441 14.1517 13.9853 14.1666 14.8018C14.1678 14.895 14.0959 15.0159 13.9757 14.9966C13.8766 14.9816 13.796 14.865 13.7229 14.8125C13.6101 14.7312 13.4936 14.6552 13.3734 14.5824C13.1342 14.4369 12.8839 14.3063 12.6248 14.1875C11.673 13.7487 10.5948 13.5122 9.5141 13.5936C8.82627 13.6449 8.15827 13.8237 7.54479 14.0955C7.17671 14.2582 6.82722 14.453 6.49879 14.6702C6.37362 14.7526 6.16913 14.9731 6.01545 14.9988C6.01173 14.9988 6.00925 14.9988 6.00554 14.9998V14.9988Z" fill="#F03E4C"/>
</g>
<defs>
<clipPath id="clip0_3687_3184">
<rect width="20" height="20" fill="white"/>
</clipPath>
</defs>
</svg>
