<svg xmlns="http://www.w3.org/2000/svg" width="22" height="22" viewBox="0 0 22 22">
  <g id="그룹_1312" data-name="그룹 1312" transform="translate(-306 -565)">
    <rect id="사각형_1522" data-name="사각형 1522" width="22" height="22" rx="11" transform="translate(306 565)" fill="#e6e7f4"/>
    <path id="Icon_material-lock" data-name="Icon material-lock" d="M14.441,5.72h-.6V4.515a3.015,3.015,0,1,0-6.029,0V5.72h-.6A1.209,1.209,0,0,0,6,6.926v6.029a1.209,1.209,0,0,0,1.206,1.206h7.235a1.209,1.209,0,0,0,1.206-1.206V6.926A1.209,1.209,0,0,0,14.441,5.72Zm-3.618,5.426a1.206,1.206,0,1,1,1.206-1.206A1.209,1.209,0,0,1,10.823,11.147ZM12.692,5.72H8.954V4.515a1.869,1.869,0,1,1,3.738,0Z" transform="translate(306.1 567.588)" fill="#404fc3" opacity="0.305"/>
  </g>
</svg>
