<svg xmlns="http://www.w3.org/2000/svg" width="21" height="19.529" viewBox="0 0 21 19.529">
  <g id="그룹_455" data-name="그룹 455" transform="translate(-445.131 -434.628)">
    <g id="그룹_436" data-name="그룹 436" transform="translate(445.131 434.628)">
      <g id="그룹_435" data-name="그룹 435" transform="translate(0 0)">
        <path id="패스_649" data-name="패스 649" d="M453.8,451.07s1.206.126,1.831.126c5.8,0,10.5-3.709,10.5-8.284s-4.7-8.284-10.5-8.284-10.5,3.709-10.5,8.284c0,2.836,1.806,5.339,4.56,6.832,0,0-.221,1.607-.672,4.017,0,0-.09.619.49.309C450.067,453.772,452.106,452.36,453.8,451.07Z" transform="translate(-445.131 -434.628)" fill="#2c1516"/>
      </g>
    </g>
    <g id="그룹_440" data-name="그룹 440" transform="translate(447.378 440.585)">
      <g id="그룹_437" data-name="그룹 437" transform="translate(0 0)">
        <path id="패스_650" data-name="패스 650" d="M458.769,461.053h-3.137a.534.534,0,1,0,0,1.067h1.02v3.757a.522.522,0,0,0,.521.52h.114a.518.518,0,0,0,.366-.152.524.524,0,0,0,.154-.368V462.12h.963a.534.534,0,1,0,0-1.067Z" transform="translate(-455.098 -461.053)" fill="#fe0"/>
      </g>
      <g id="그룹_439" data-name="그룹 439" transform="translate(0 0)">
        <g id="그룹_438" data-name="그룹 438" opacity="0.6" style="mix-blend-mode: multiply;isolation: isolate">
          <path id="패스_651" data-name="패스 651" d="M458.769,461.053h-3.137a.534.534,0,1,0,0,1.067h1.02v3.757a.522.522,0,0,0,.521.52h.114a.518.518,0,0,0,.366-.152.524.524,0,0,0,.154-.368V462.12h.963a.534.534,0,1,0,0-1.067Z" transform="translate(-455.098 -461.053)" fill="#f3db09"/>
        </g>
      </g>
    </g>
    <g id="그룹_444" data-name="그룹 444" transform="translate(455.97 440.51)">
      <g id="그룹_441" data-name="그룹 441" transform="translate(0 0)">
        <path id="패스_652" data-name="패스 652" d="M495.829,465.137h-1.458V461.3a.579.579,0,1,0-1.158,0v4.137a.573.573,0,0,0,.009.093.482.482,0,0,0,.475.577h2.131a.484.484,0,1,0,0-.969Z" transform="translate(-493.213 -460.72)" fill="#f3db09"/>
      </g>
      <g id="그룹_443" data-name="그룹 443" transform="translate(0 0)">
        <g id="그룹_442" data-name="그룹 442" opacity="0.6" style="mix-blend-mode: multiply;isolation: isolate">
          <path id="패스_653" data-name="패스 653" d="M495.829,465.137h-1.458V461.3a.579.579,0,1,0-1.158,0v4.137a.573.573,0,0,0,.009.093.482.482,0,0,0,.475.577h2.131a.484.484,0,1,0,0-.969Z" transform="translate(-493.213 -460.72)" fill="#f3db09"/>
        </g>
      </g>
    </g>
    <g id="그룹_448" data-name="그룹 448" transform="translate(459.394 440.51)">
      <g id="그룹_445" data-name="그룹 445" transform="translate(0 0)">
        <path id="패스_654" data-name="패스 654" d="M512.255,465.312l-1.626-2.135,1.469-1.469a.509.509,0,1,0-.72-.72l-1.818,1.818V461.3a.579.579,0,1,0-1.158,0v4.264a.579.579,0,1,0,1.158,0v-1.315l.33-.33,1.537,2.018a.518.518,0,1,0,.828-.622Z" transform="translate(-508.402 -460.72)" fill="#f3db09"/>
      </g>
      <g id="그룹_447" data-name="그룹 447" transform="translate(0 0)">
        <g id="그룹_446" data-name="그룹 446" opacity="0.6" style="mix-blend-mode: multiply;isolation: isolate">
          <path id="패스_655" data-name="패스 655" d="M512.255,465.312l-1.626-2.135,1.469-1.469a.509.509,0,1,0-.72-.72l-1.818,1.818V461.3a.579.579,0,1,0-1.158,0v4.264a.579.579,0,1,0,1.158,0v-1.315l.33-.33,1.537,2.018a.518.518,0,1,0,.828-.622Z" transform="translate(-508.402 -460.72)" fill="#f3db09"/>
        </g>
      </g>
    </g>
    <g id="그룹_454" data-name="그룹 454" transform="translate(450.88 440.51)">
      <g id="그룹_450" data-name="그룹 450" transform="translate(0 0)">
        <g id="그룹_449" data-name="그룹 449">
          <path id="패스_656" data-name="패스 656" d="M475.291,465.451l-1.563-4.276-.005,0a.768.768,0,0,0-.732-.45.746.746,0,0,0-.76.538c-.011.023-.021.045-.03.07l-1.537,4.123a.518.518,0,1,0,.978.343l.266-.759h2.14l.266.759a.518.518,0,1,0,.978-.343Zm-3.044-1.384.719-2.051.023,0,.718,2.049Z" transform="translate(-470.633 -460.72)" fill="#fe0"/>
        </g>
      </g>
      <g id="그룹_453" data-name="그룹 453" transform="translate(0 0)">
        <g id="그룹_452" data-name="그룹 452" opacity="0.6" style="mix-blend-mode: multiply;isolation: isolate">
          <g id="그룹_451" data-name="그룹 451">
            <path id="패스_657" data-name="패스 657" d="M475.291,465.451l-1.563-4.276-.005,0a.768.768,0,0,0-.732-.45.746.746,0,0,0-.76.538c-.011.023-.021.045-.03.07l-1.537,4.123a.518.518,0,1,0,.978.343l.266-.759h2.14l.266.759a.518.518,0,1,0,.978-.343Zm-3.044-1.384.719-2.051.023,0,.718,2.049Z" transform="translate(-470.633 -460.72)" fill="#f3db09"/>
          </g>
        </g>
      </g>
    </g>
  </g>
</svg>
