<svg width="20" height="21" viewBox="0 0 20 21" fill="none" xmlns="http://www.w3.org/2000/svg">
<g id="Frame 735">
<path id="Vector" d="M9.99658 20.043C15.5194 20.043 19.9966 15.5658 19.9966 10.043C19.9966 4.52012 15.5194 0.0429687 9.99658 0.0429687C4.47373 0.0429687 -0.00341797 4.52012 -0.00341797 10.043C-0.00341797 15.5658 4.47373 20.043 9.99658 20.043Z" fill="#FFD05D"/>
<path id="Vector_2" d="M5.91416 11.5879C5.65533 11.3374 5.24239 11.615 5.37533 11.9491C6.11651 13.8009 7.92592 15.1079 10.0424 15.1079C12.1589 15.1079 13.9071 13.8432 14.6706 12.0409C14.8094 11.7127 14.393 11.4279 14.1365 11.6762C12.6694 13.0985 9.55298 15.1232 5.91416 11.5879Z" fill="#F03E4C"/>
<path id="Vector_3" d="M7.64713 7.64717C7.64713 8.29706 7.12072 8.82364 6.47066 8.82364C5.8206 8.82364 5.29419 8.29706 5.29419 7.64717C5.29419 6.99728 5.8206 6.4707 6.47066 6.4707C7.12072 6.4707 7.64713 6.99728 7.64713 7.64717Z" fill="#24282C"/>
<path id="Vector_4" d="M14.9413 7.64717C14.9413 8.29706 14.4149 8.82364 13.7648 8.82364C13.1148 8.82364 12.5884 8.29706 12.5884 7.64717C12.5884 6.99728 13.1148 6.4707 13.7648 6.4707C14.4149 6.4707 14.9413 6.99728 14.9413 7.64717Z" fill="#24282C"/>
</g>
</svg>
