<svg xmlns="http://www.w3.org/2000/svg" width="14" height="14" viewBox="0 0 14 14">
  <g id="icon_list_port" transform="translate(-141.113 -119.813)">
    <rect id="사각형_5735" data-name="사각형 5735" width="14" height="14" transform="translate(141.113 119.813)" fill="red" opacity="0"/>
    <g id="그룹_5022" data-name="그룹 5022" transform="translate(1.516 1.765)">
      <path id="패스_663" data-name="패스 663" d="M153.248,119.24l2.468-.427-.477,2.492c-.15-.15-.3-.281-.424-.429-.089-.1-.145-.082-.229,0q-.794.784-1.6,1.562-1.425,1.392-2.849,2.786c-.079.078-.118.065-.189,0-.4-.381-.8-.756-1.2-1.139-.077-.074-.118-.08-.2,0-.87.876-1.745,1.747-2.615,2.623-.079.08-.121.094-.207.006-.252-.26-.514-.511-.777-.762-.058-.055-.058-.086,0-.143q1.831-1.817,3.656-3.641c.086-.086.124-.033.178.017.393.372.788.742,1.178,1.119.064.062.093.057.154,0q1.626-1.57,3.258-3.134c.1-.091.186-.188.288-.27s.075-.123,0-.193c-.153-.137-.3-.282-.448-.423Z" transform="translate(-3.634)" fill="#ff2929"/>
      <rect id="사각형_1039" data-name="사각형 1039" width="3.039" height="3.642" transform="translate(141.113 127.524)" fill="#c4c4c4"/>
      <rect id="사각형_1040" data-name="사각형 1040" width="3.04" height="5.036" transform="translate(145.048 126.13)" fill="#c4c4c4"/>
      <rect id="사각형_1041" data-name="사각형 1041" width="3.039" height="6.935" transform="translate(148.969 124.235)" fill="#c4c4c4"/>
    </g>
  </g>
</svg>
