<svg xmlns="http://www.w3.org/2000/svg" width="68" height="16" viewBox="0 0 68 16">
  <g id="logo_truefriend" transform="translate(0 0)">
    <rect id="사각형_24" data-name="사각형 24" width="68" height="16" transform="translate(0 0)" fill="none"/>
    <g id="그룹_33" data-name="그룹 33" transform="translate(1.796 1.445)">
      <path id="패스_124" data-name="패스 124" d="M787.834,441.862v-.675h6.532v.675h-6.532m.779-2.921v-.675h4.974v.675h-1.975c.1.713,1.233,1.267,2.3,1.327l-.4.547a3.5,3.5,0,0,0-4.826,0l-.4-.547c1.07-.059,2.206-.613,2.3-1.327h-1.974m2.487,6.266a1.5,1.5,0,1,1,1.781-1.464,1.638,1.638,0,0,1-1.781,1.464m0-2.276a.85.85,0,0,0-.847.812.847.847,0,0,0,1.692,0A.849.849,0,0,0,791.1,442.932Z" transform="translate(-736.999 -438.115)" fill="#231f20"/>
      <path id="패스_125" data-name="패스 125" d="M804.5,439.724v-.737h-2.62v-.675h3.564v1.176a3.647,3.647,0,0,1-.149.941,5.151,5.151,0,0,0,.764-.084v.6a4.183,4.183,0,0,1-1.247.159h-.868v1.229h-.951V441.1h-1.559v-.668h3a4.5,4.5,0,0,0,.066-.711m-1.233,5.227a.244.244,0,0,1-.236-.235V443.5a1.705,1.705,0,0,0-.121-.713h1.062v1.487h3.549v.676h-4.254m4.119-1.859H806.5v-.774h-1.433v-.666H806.5v-2.922a1.79,1.79,0,0,0-.119-.72h1.06v4.286A4.6,4.6,0,0,1,807.382,443.091Z" transform="translate(-742.617 -438.008)" fill="#231f20"/>
      <path id="패스_126" data-name="패스 126" d="M701.193,442.571v-1.131h2.792v-.716a2.48,2.48,0,0,0-.131-.815h1.766v1.531h2.792v1.131h-1.42a2.482,2.482,0,0,1,.619,1.624,2.818,2.818,0,0,1-5.622,0,2.492,2.492,0,0,1,.62-1.624Zm2.825,9.044a.413.413,0,0,1-.4-.4v-2.159a2.819,2.819,0,0,0-.2-1.2H705.2v2.623h5.948v1.131Zm.783-8.92a1.522,1.522,0,1,0,1.27,1.5A1.379,1.379,0,0,0,704.8,442.7Zm6.225,1.564v2.65a7.6,7.6,0,0,1-.1,1.337h-1.483v-7.064a2.954,2.954,0,0,0-.2-1.207h1.781v3.154h1.612v1.131Z" transform="translate(-701.193 -438.794)" fill="#231f20"/>
      <path id="패스_127" data-name="패스 127" d="M728.719,443.61V441.8h-6.035v-1.129H730.3v2.67a5.543,5.543,0,0,1-.2,1.4h1.7v1.131H727.11v1.945h3.066v2.839a7.734,7.734,0,0,1-.1,1.332h-1.482v-3.036h-5.911V447.82h2.833v-1.945h-4.33v-1.131h7.428A6.3,6.3,0,0,0,728.719,443.61Z" transform="translate(-709.456 -439.11)" fill="#231f20"/>
      <path id="패스_128" data-name="패스 128" d="M746.35,448.881v1.749a7.909,7.909,0,0,1-.09,1.247h-1.542v-3h-4.787v-1.158h11.2v1.158Zm-3.337-3.446H749.8v1.157H741.8a.42.42,0,0,1-.411-.4v-3.834a3.126,3.126,0,0,0-.195-1.23h8.535v1.165h-6.721v.993h6.631v1.094h-6.631Z" transform="translate(-717.202 -439.297)" fill="#231f20"/>
      <path id="패스_129" data-name="패스 129" d="M764.885,444.215a5.079,5.079,0,0,0,3.179,4.657l-.81.905a6.219,6.219,0,0,1-3.241-2.609,6.249,6.249,0,0,1-3.252,2.609l-.8-.905a5.081,5.081,0,0,0,3.168-4.657v-1.508h-2.366v-1.232h6.493v1.232h-2.369Zm5.448,1.639V450.5a8.871,8.871,0,0,1-.107,1.46H768.61v-10a3.17,3.17,0,0,0-.221-1.312h1.944v3.982h1.754v1.229Z" transform="translate(-725.479 -439.097)" fill="#231f20"/>
    </g>
  </g>
</svg>
