<svg xmlns="http://www.w3.org/2000/svg" id="구성_요소_49_1" width="101.478" height="20" viewBox="0 0 101.478 20">
    <defs>
        <style>
            .cls-1{fill:#ff545b}.cls-2{fill:#776e6d}
        </style>
    </defs>
    <g id="그룹_1625" transform="translate(-222.485 -411.221)">
        <path id="패스_2" d="M259.114 411.221l-7.676 9.877h1.92L245.8 431.16l-.044.059h2.6l18.13-20z" class="cls-1"/>
        <g id="그룹_1626">
            <path id="패스_1" d="M227.386 421.9c.875 0 1.463.186 1.463 1.167 0 1.289-.529 1.543-1.667 1.543h-1.058v-2.71zm5.428 1.184c0-2.692-2.114-3.675-5.712-3.675h-4.617v11.807h3.64v-4.2h1.14c4.635 0 5.549-2.187 5.549-3.932z" class="cls-1"/>
            <path id="패스_3" d="M240.063 419.414h-3.78l-4.641 11.807h3.908l.676-2.252h3.507l.677 2.252h4.3zm-3.131 7.2l1.047-3.488 1.045 3.488z" class="cls-1"/>
            <path id="패스_7" d="M249.873 419.43h-5.916l5.053 4.634 2.316-2.737z" class="cls-2"/>
            <path id="패스_8" d="M251.747 427.429l4.142 3.788h2.586l-4.626-6.1z" class="cls-2"/>
        </g>
    </g>
    <path id="패스_3727" d="M271.777 431.165a4.734 4.734 0 0 0 3.716-1.682l-1.437-1.713a2.954 2.954 0 0 1-2.172 1.039c-1.606 0-2.646-1.315-2.646-3.578 0-2.218 1.209-3.534 2.677-3.534a2.82 2.82 0 0 1 1.972.887l1.438-1.743a4.845 4.845 0 0 0-3.457-1.481c-2.891 0-5.43 2.171-5.43 5.965.001 3.855 2.448 5.84 5.339 5.84zm5.383-.214h2.74v-4.678h3.747v4.68h2.707v-11.379h-2.707v4.33H279.9v-4.33h-2.74zm16.535.214c3.1 0 5.215-2.232 5.215-5.965 0-3.717-2.111-5.842-5.215-5.842s-5.216 2.111-5.216 5.842 2.111 5.965 5.221 5.965zm0-2.356c-1.5 0-2.417-1.391-2.417-3.609s.918-3.5 2.417-3.5 2.432 1.3 2.432 3.5c0 2.221-.933 3.612-2.432 3.612zm7.326 2.144h2.737v-11.379h-2.737zm10.171.212a4.737 4.737 0 0 0 3.717-1.682l-1.435-1.711a2.958 2.958 0 0 1-2.172 1.04c-1.606 0-2.646-1.315-2.646-3.579 0-2.217 1.209-3.533 2.677-3.533a2.824 2.824 0 0 1 1.973.887l1.437-1.744a4.849 4.849 0 0 0-3.457-1.483c-2.891 0-5.43 2.171-5.43 5.965-.002 3.855 2.444 5.84 5.336 5.84zm5.384-.214h7.387v-2.289h-4.649v-2.419h3.808v-2.294h-3.808v-2.111h4.486v-2.264h-7.219z" class="cls-2" transform="translate(-222.485 -411.221)"/>
</svg>
