<svg id="logo_kiwoom" xmlns="http://www.w3.org/2000/svg" width="61" height="21" viewBox="0 0 61 21">
  <path id="패스_1" data-name="패스 1" d="M558.057,236.42h3.621v6.091h3.262l4.52,6.723h-4.376l-3.407-5.089v5.089h-3.621Z" transform="translate(-513.733 -229.911)" fill="#ced0d2"/>
  <g id="그룹_1" data-name="그룹 1" transform="translate(47.125 1.173)">
    <path id="패스_2" data-name="패스 2" d="M575.458,226.081l-2.219,11.927-1.069-2.017a10.842,10.842,0,0,0-1.3-1.878l-4.658,5.359-2.729-2.372,4.658-5.36a10.749,10.749,0,0,0-2.04-1.025l-2.146-.778Z" transform="translate(-563.484 -226.081)" fill="#e0007a"/>
  </g>
  <g id="그룹_5" data-name="그룹 5" transform="translate(1.041 3.805)">
    <path id="패스_3" data-name="패스 3" d="M489.014,233.237a2.621,2.621,0,0,0-.293-1.235h2.259c.027,0,.051.02.051.036V244.06c0,.014-.021.03-.051.03h-1.915c-.03,0-.051-.016-.051-.03Z" transform="translate(-481.218 -231.578)" fill="#003067"/>
    <path id="패스_4" data-name="패스 4" d="M474.7,233.444V234.9h3.44c.226,0,.21.188.21.256a7.907,7.907,0,0,1-.183,1.7H474.6v1.46h3.082a8.93,8.93,0,0,1-3.5,3.914l1.55,1.009c4.276-2.661,4.656-6.277,4.656-9.011v-.788Z" transform="translate(-474.181 -232.276)" fill="#003067"/>
    <path id="패스_5" data-name="패스 5" d="M506.281,242.3H495.618c-.031,0-.052.017-.052.033v1.358c0,.015.021.031.052.031h4.157v1.064H496.5a2.57,2.57,0,0,1,.3,1.253v2.774c0,.019.024.035.054.035h8.169c.029,0,.053-.015.053-.035v-4c0-.018-.024-.032-.053-.032h-2.929v-1.064h4.19c.027,0,.051-.014.051-.031v-1.358C506.332,242.31,506.308,242.3,506.281,242.3Zm-3.219,3.888v1.274h-4.3v-1.274Z" transform="translate(-484.531 -236.56)" fill="#003067"/>
    <path id="패스_6" data-name="패스 6" d="M540.742,234.009v-1.381a.031.031,0,0,1,.033-.028h5.868a.032.032,0,0,1,.034.029,22.415,22.415,0,0,1-.416,3.518l0,.019-.016.073h1.484a.033.033,0,0,1,.034.03v1.369a.032.032,0,0,1-.034.029h-3.668V239.9a.031.031,0,0,1-.034.029H542.08a.031.031,0,0,1-.034-.029v-2.236H540.1a.032.032,0,0,1-.033-.029v-1.369a.032.032,0,0,1,.033-.03h4.161l.018-.058a9.929,9.929,0,0,0,.315-2.034l.006-.107h-3.829A.032.032,0,0,1,540.742,234.009Z" transform="translate(-506.07 -231.867)" fill="#003067"/>
    <g id="그룹_4" data-name="그룹 4" transform="translate(35.817 8.758)">
      <g id="그룹_3" data-name="그룹 3">
        <g id="그룹_2" data-name="그룹 2">
          <path id="패스_7" data-name="패스 7" d="M543.872,251.635v-2.229a2.7,2.7,0,0,0-.283-1.254l2.243,0c.028,0,.05.016.05.038v2.048h6.086c.027,0,.05.017.05.037v1.357a.045.045,0,0,1-.05.039h-8.045A.046.046,0,0,1,543.872,251.635Z" transform="translate(-543.589 -248.152)" fill="#003067"/>
        </g>
      </g>
    </g>
    <path id="패스_8" data-name="패스 8" d="M555.288,232.071c.027,0,.05.02.05.036v8.75c0,.014-.021.031-.05.031H553.42c-.029,0-.05-.017-.05-.031v-1.335H550.6a.045.045,0,0,1-.05-.038v-1.347c0-.02.023-.036.05-.036h2.773v-4.793a2.622,2.622,0,0,0-.293-1.236Z" transform="translate(-511.139 -231.612)" fill="#003067"/>
    <path id="패스_9" data-name="패스 9" d="M506.171,233.826c0,1.46-1.756,2.645-3.922,2.645s-3.921-1.184-3.921-2.645,1.755-2.645,3.921-2.645S506.171,232.365,506.171,233.826Zm-3.922-1.21c-.917,0-1.66.542-1.66,1.21s.743,1.209,1.66,1.209,1.661-.541,1.661-1.209S503.166,232.616,502.249,232.616Z" transform="translate(-485.867 -231.181)" fill="#003067"/>
    <path id="패스_10" data-name="패스 10" d="M519.2,234.011v-1.385a.026.026,0,0,1,.027-.025h8.79a.026.026,0,0,1,.027.025v1.385a.026.026,0,0,1-.027.025h-3.128l.186.171a9.82,9.82,0,0,0,3.7,1.735.088.088,0,0,1,.04.022l-.022.05s-.971,1.021-1.016,1.105c0,0,0,0-.05-.006a12.92,12.92,0,0,1-4.034-1.768l-.072-.054-.072.054a13.106,13.106,0,0,1-4.047,1.77c-.032,0-.034,0-.053-.017s-.036-.064-1.017-1.105c.007.008-.007-.028-.007-.028s.022-.019.038-.023a9.883,9.883,0,0,0,3.7-1.736l.188-.172h-3.128A.026.026,0,0,1,519.2,234.011Z" transform="translate(-495.594 -231.869)" fill="#003067"/>
    <path id="패스_11" data-name="패스 11" d="M528.773,243.643c.026,0,.049-.015.049-.032v-1.358c0-.018-.023-.033-.049-.033H518.279c-.03,0-.051.018-.051.033v1.358c0,.015.021.032.051.032Z" transform="translate(-495.498 -236.523)" fill="#003067"/>
    <path id="패스_12" data-name="패스 12" d="M528.738,248.272c0,1.452-1.764,2.629-3.941,2.629s-3.941-1.177-3.941-2.629,1.764-2.63,3.941-2.63S528.738,246.819,528.738,248.272Zm-3.941-1.2c-.931,0-1.686.535-1.686,1.2s.755,1.193,1.686,1.193,1.686-.534,1.686-1.193S525.728,247.077,524.8,247.077Z" transform="translate(-496.77 -238.18)" fill="#003067"/>
  </g>
  <rect id="사각형_11" data-name="사각형 11" width="61" height="21" fill="none"/>
</svg>
