<svg width="24" height="16" viewBox="0 0 24 16" fill="none" xmlns="http://www.w3.org/2000/svg">
<g clip-path="url(#clip0_996_406)">
<path fill-rule="evenodd" clip-rule="evenodd" d="M3.97767 7.36825C4.76219 3.77282 7.97005 1.85366 9.11229 1.3289C9.43544 1.18056 9.59798 0.825772 9.49111 0.495712L9.48791 0.486441C9.36825 0.115587 8.95679 -0.0871466 8.5754 0.0358533C6.42787 0.728114 0.0889468 3.39394 0.000639556 10.7467H0V14.7062C0 15.4207 0.599593 15.9999 1.33933 15.9999H7.5989C8.33864 15.9999 8.93823 15.4207 8.93823 14.7062V8.66192C8.93823 7.9474 8.33864 7.36825 7.5989 7.36825H3.97767ZM14.4537 7.36825C15.2383 3.77282 18.4461 1.85366 19.5884 1.3289C19.9115 1.18056 20.0741 0.825772 19.9672 0.495712L19.964 0.486441C19.8443 0.115587 19.4329 -0.0871466 19.0515 0.0358533C16.9039 0.728114 10.565 3.39394 10.4767 10.7467H10.4761V14.7062C10.4761 15.4207 11.0757 15.9999 11.8154 15.9999H18.075C18.8147 15.9999 19.4143 15.4207 19.4143 14.7062V8.66192C19.4143 7.9474 18.8147 7.36825 18.075 7.36825H14.4537Z" fill="#7983D5"/>
</g>
<defs>
<clipPath id="clip0_996_406">
<rect width="24" height="16" fill="white"/>
</clipPath>
</defs>
</svg>
