<svg xmlns="http://www.w3.org/2000/svg" width="91.437" height="58" viewBox="0 0 91.437 58">
  <g id="그룹_2053" data-name="그룹 2053" transform="translate(-473.44 -62.545)">
    <g id="그룹_2034" data-name="그룹 2034" transform="translate(486.733 101.45)">
      <path id="패스_4322" data-name="패스 4322" d="M505.843,140.629h0c-4.165,0-6.382-3.42-9.538-9.053a1.829,1.829,0,0,1,1.516-2.7c1.353-.05,2.4-.073,3.309-.073,6.346,0,9.588,1.159,10.853,7.744a2.805,2.805,0,0,1-1.755,3.126A12.6,12.6,0,0,1,505.843,140.629Zm-7.058-9.437c2.965,5.212,4.554,7.087,7.057,7.088h0a10.56,10.56,0,0,0,3.562-.808.457.457,0,0,0,.271-.483c-.922-4.8-2.44-5.838-8.547-5.838C500.459,131.151,499.7,131.164,498.785,131.192Z" transform="translate(-496.078 -128.802)" fill="#c7cbe9"/>
    </g>
    <g id="그룹_2035" data-name="그룹 2035" transform="translate(499.21 109.317)">
      <path id="패스_4323" data-name="패스 4323" d="M527.8,153.428h0c-2.52,0-5.224-1.417-9.643-4.207a1.83,1.83,0,0,1,.045-3.1c4.4-2.6,7.093-3.923,9.568-3.923,2.333,0,4.289,1.171,6.539,3.918a2.805,2.805,0,0,1-.053,3.585C531.987,152.313,530.056,153.428,527.8,153.428Zm-7.646-5.726c3.525,2.194,5.836,3.377,7.646,3.377,1.523,0,2.88-.846,4.684-2.918a.457.457,0,0,0,.008-.554c-1.78-2.171-3.148-3.057-4.722-3.057C525.977,144.549,523.673,145.653,520.157,147.7Z" transform="translate(-517.327 -142.2)" fill="#c7cbe9"/>
    </g>
    <g id="그룹_2036" data-name="그룹 2036" transform="translate(486.304 85.661)">
      <path id="패스_4324" data-name="패스 4324" d="M504.034,117.562h0a2.761,2.761,0,0,1-.392-.029c-7.456-1.09-8.226-4.847-8.295-13.805a1.779,1.779,0,0,1,.524-1.275,1.865,1.865,0,0,1,2.107-.361c8,4.027,11.031,6.38,8.709,13.549A2.814,2.814,0,0,1,504.034,117.562Zm-6.328-12.975c.12,8.427,1.06,9.859,6.276,10.622l.052,0a.46.46,0,0,0,.419-.3C506.078,109.9,505.209,108.424,497.706,104.587Z" transform="translate(-495.348 -101.912)" fill="#c7cbe9"/>
    </g>
    <g id="그룹_2037" data-name="그룹 2037" transform="translate(492.103 72.652)">
      <path id="패스_4325" data-name="패스 4325" d="M511.245,97.305h0a2.752,2.752,0,0,1-1.573-.486c-6.2-4.284-5.222-7.992-1.311-16.052a1.83,1.83,0,0,1,3.084-.3c5.386,7.158,7.057,10.61,1.8,16.006A2.8,2.8,0,0,1,511.245,97.305Zm-1.152-14.721c-3.629,7.606-3.422,9.307.915,12.3a.423.423,0,0,0,.237.069h0a.445.445,0,0,0,.314-.122C515.24,91.06,515.116,89.35,510.093,82.584Z" transform="translate(-505.224 -79.757)" fill="#c7cbe9"/>
    </g>
    <g id="그룹_2038" data-name="그룹 2038" transform="translate(501.688 65.678)">
      <path id="패스_4326" data-name="패스 4326" d="M524.738,83.015h0a2.81,2.81,0,0,1-2.7-2.114c-1.8-7.316,1.388-9.446,9.659-12.888a1.845,1.845,0,0,1,2.031.462,1.8,1.8,0,0,1,.476,1.359c-.712,8.931-1.749,12.622-9.265,13.175C524.869,83.012,524.8,83.015,524.738,83.015Zm7.048-12.494c-7.758,3.288-8.731,4.7-7.471,9.818a.463.463,0,0,0,.423.326h.025C530.021,80.278,531.061,78.917,531.786,70.521Z" transform="translate(-521.547 -67.881)" fill="#c7cbe9"/>
    </g>
    <g id="그룹_2039" data-name="그룹 2039" transform="translate(536.748 101.45)">
      <path id="패스_4327" data-name="패스 4327" d="M587.445,140.629a12.6,12.6,0,0,1-4.386-.957,2.805,2.805,0,0,1-1.755-3.126c1.265-6.586,4.508-7.744,10.853-7.744.9,0,1.956.023,3.309.073a1.83,1.83,0,0,1,1.517,2.7C593.826,137.209,591.608,140.629,587.445,140.629Zm4.712-9.478c-6.106,0-7.624,1.037-8.547,5.839a.457.457,0,0,0,.271.483,10.562,10.562,0,0,0,3.563.808c2.5,0,4.093-1.875,7.057-7.088C593.587,131.164,592.829,131.151,592.157,131.151Z" transform="translate(-581.255 -128.802)" fill="#c7cbe9"/>
    </g>
    <g id="그룹_2040" data-name="그룹 2040" transform="translate(522.618 109.317)">
      <path id="패스_4328" data-name="패스 4328" d="M564.323,153.428c-2.253,0-4.184-1.114-6.457-3.725a2.806,2.806,0,0,1-.053-3.585c2.251-2.746,4.206-3.918,6.539-3.918,2.475,0,5.164,1.321,9.568,3.923a1.83,1.83,0,0,1,.046,3.1C569.547,152.011,566.843,153.428,564.323,153.428Zm.029-8.879c-1.574,0-2.942.886-4.722,3.057a.457.457,0,0,0,.008.554c1.8,2.073,3.161,2.918,4.685,2.918,1.81,0,4.121-1.183,7.645-3.377C568.453,145.653,566.148,144.549,564.352,144.549Z" transform="translate(-557.192 -142.2)" fill="#c7cbe9"/>
    </g>
    <g id="그룹_2041" data-name="그룹 2041" transform="translate(541.031 85.66)">
      <path id="패스_4329" data-name="패스 4329" d="M591.962,117.562a2.814,2.814,0,0,1-2.654-1.921c-2.322-7.169.706-9.522,8.709-13.549a1.863,1.863,0,0,1,2.107.361,1.781,1.781,0,0,1,.524,1.275c-.069,8.958-.839,12.716-8.3,13.805A2.67,2.67,0,0,1,591.962,117.562Zm6.329-12.975c-7.5,3.837-8.372,5.315-6.747,10.33a.451.451,0,0,0,.47.292C597.231,114.446,598.171,113.014,598.291,104.587Z" transform="translate(-588.549 -101.912)" fill="#c7cbe9"/>
    </g>
    <g id="그룹_2042" data-name="그룹 2042" transform="translate(536.116 72.652)">
      <path id="패스_4330" data-name="패스 4330" d="M585.374,97.305a2.8,2.8,0,0,1-2-.831c-5.261-5.4-3.591-8.847,1.8-16.006a1.83,1.83,0,0,1,3.084.3c3.911,8.06,4.887,11.769-1.312,16.053A2.751,2.751,0,0,1,585.374,97.305Zm1.151-14.722c-5.023,6.767-5.147,8.476-1.466,12.251a.474.474,0,0,0,.551.053C589.948,91.891,590.155,90.19,586.525,82.583Z" transform="translate(-580.179 -79.757)" fill="#c7cbe9"/>
    </g>
    <g id="그룹_2043" data-name="그룹 2043" transform="translate(525.088 65.679)">
      <path id="패스_4331" data-name="패스 4331" d="M570.867,83.015c-.066,0-.132,0-.2-.007-7.515-.553-8.553-4.244-9.265-13.175a1.8,1.8,0,0,1,.476-1.359,1.848,1.848,0,0,1,2.031-.462c8.271,3.442,11.461,5.572,9.659,12.888A2.812,2.812,0,0,1,570.867,83.015Zm-7.049-12.494c.725,8.4,1.765,9.757,7.023,10.144h.026a.461.461,0,0,0,.423-.326C572.55,75.221,571.577,73.81,563.818,70.521Z" transform="translate(-561.399 -67.882)" fill="#c7cbe9"/>
    </g>
    <g id="그룹_2044" data-name="그룹 2044" transform="translate(537.876 62.545)">
      <path id="패스_4332" data-name="패스 4332" d="M584.35,70.177a1.175,1.175,0,0,1-1.008-1.776l3.147-5.283a1.174,1.174,0,1,1,2.018,1.2L585.36,69.6A1.173,1.173,0,0,1,584.35,70.177Z" transform="translate(-583.176 -62.545)" fill="#c7cbe9"/>
    </g>
    <g id="그룹_2045" data-name="그룹 2045" transform="translate(548.195 71.145)">
      <path id="패스_4333" data-name="패스 4333" d="M601.926,83.729a1.174,1.174,0,0,1-.661-2.146l6.174-4.19a1.174,1.174,0,0,1,1.319,1.944l-6.174,4.19A1.171,1.171,0,0,1,601.926,83.729Z" transform="translate(-600.75 -77.19)" fill="#c7cbe9"/>
    </g>
    <g id="그룹_2046" data-name="그룹 2046" transform="translate(555.251 84.375)">
      <path id="패스_4334" data-name="패스 4334" d="M613.94,103.349a1.174,1.174,0,0,1-.2-2.331l7.277-1.277a1.174,1.174,0,1,1,.406,2.313l-7.277,1.277A1.154,1.154,0,0,1,613.94,103.349Z" transform="translate(-612.768 -99.723)" fill="#c7cbe9"/>
    </g>
    <g id="그룹_2047" data-name="그룹 2047" transform="translate(555.251 98.962)">
      <path id="패스_4335" data-name="패스 4335" d="M621.218,129.4a1.164,1.164,0,0,1-.38-.063l-7.276-2.488a1.174,1.174,0,1,1,.76-2.223l7.276,2.488a1.174,1.174,0,0,1-.38,2.286Z" transform="translate(-612.767 -124.564)" fill="#c7cbe9"/>
    </g>
    <g id="그룹_2048" data-name="그룹 2048" transform="translate(494.946 62.545)">
      <path id="패스_4336" data-name="패스 4336" d="M514.388,70.177a1.173,1.173,0,0,1-1.01-.574l-3.147-5.283a1.174,1.174,0,1,1,2.018-1.2L515.4,68.4a1.175,1.175,0,0,1-1.008,1.776Z" transform="translate(-510.065 -62.545)" fill="#c7cbe9"/>
    </g>
    <g id="그룹_2049" data-name="그룹 2049" transform="translate(481.6 71.145)">
      <path id="패스_4337" data-name="패스 4337" d="M494.683,83.729a1.171,1.171,0,0,1-.658-.2l-6.174-4.19a1.174,1.174,0,0,1,1.319-1.944l6.174,4.19a1.174,1.174,0,0,1-.661,2.146Z" transform="translate(-487.336 -77.19)" fill="#c7cbe9"/>
    </g>
    <g id="그룹_2050" data-name="그룹 2050" transform="translate(473.44 84.375)">
      <path id="패스_4338" data-name="패스 4338" d="M481.894,103.349a1.165,1.165,0,0,1-.2-.018l-7.277-1.277a1.174,1.174,0,1,1,.406-2.313l7.277,1.277a1.174,1.174,0,0,1-.2,2.331Z" transform="translate(-473.441 -99.723)" fill="#c7cbe9"/>
    </g>
    <g id="그룹_2051" data-name="그룹 2051" transform="translate(473.44 98.962)">
      <path id="패스_4339" data-name="패스 4339" d="M474.615,129.4a1.174,1.174,0,0,1-.38-2.286l7.277-2.488a1.174,1.174,0,1,1,.76,2.223l-7.277,2.488A1.162,1.162,0,0,1,474.615,129.4Z" transform="translate(-473.44 -124.564)" fill="#c7cbe9"/>
    </g>
    <g id="그룹_2052" data-name="그룹 2052" transform="translate(504.622 79.932)">
      <path id="패스_4340" data-name="패스 4340" d="M541.2,121.476a14.661,14.661,0,1,1,14.661-14.66A14.677,14.677,0,0,1,541.2,121.476Zm0-26.972a12.312,12.312,0,1,0,12.313,12.312A12.326,12.326,0,0,0,541.2,94.5Z" transform="translate(-526.544 -92.155)" fill="#c7cbe9"/>
    </g>
    <g id="icon_-_heart_off" data-name="icon - heart off" transform="translate(512.784 90.2)">
      <path id="Icon_feather-heart" data-name="Icon feather-heart" d="M14.318,5.5a3.42,3.42,0,0,0-4.837,0l-.659.659L8.162,5.5a3.421,3.421,0,1,0-4.837,4.837L3.984,11l4.837,4.837L13.659,11l.659-.659a3.42,3.42,0,0,0,0-4.837Z" transform="translate(-2.323 -4.497)" fill="#c7cbe9"/>
    </g>
  </g>
</svg>
