<svg id="지금_세일중" data-name="지금 세일중" xmlns="http://www.w3.org/2000/svg" width="70" height="70" viewBox="0 0 70 70">
  <rect id="사각형_2821" data-name="사각형 2821" width="70" height="70" fill="#c7cbe9" opacity="0"/>
  <g id="그룹_2910" data-name="그룹 2910" transform="translate(21.766 5.123)">
    <path id="교차_1" data-name="교차 1" d="M5988.814,5479.753a11.01,11.01,0,1,0-13.037,0h-3a13.009,13.009,0,1,1,19.037,0Z" transform="translate(-5969 -5457.876)" fill="#c7cbe9"/>
    <g id="그룹_2911" data-name="그룹 2911" transform="translate(-7.6 -24.194)">
      <path id="Icon_metro-coins" data-name="Icon metro-coins" d="M21.61,33.032a2.979,2.979,0,0,0-.549-.87,3.592,3.592,0,0,0-.775-.635,8.931,8.931,0,0,0-.888-.475q-.441-.2-.888-.4a5.792,5.792,0,0,1-.779-.4,1.963,1.963,0,0,1-.549-.488,1.053,1.053,0,0,1-.2-.649,1.277,1.277,0,0,1,.091-.477,1,1,0,0,1,.279-.386,1.35,1.35,0,0,1,.465-.251,2.092,2.092,0,0,1,.654-.091,3.13,3.13,0,0,1,.879.116,5.026,5.026,0,0,1,.705.261q.305.142.514.263a.722.722,0,0,0,.305.12.214.214,0,0,0,.152-.052.343.343,0,0,0,.086-.166,1.636,1.636,0,0,0,.043-.287c.008-.117.013-.261.013-.429,0-.15,0-.277-.008-.378a1.973,1.973,0,0,0-.029-.254.791.791,0,0,0-.052-.162.66.66,0,0,0-.118-.146,1.388,1.388,0,0,0-.357-.216,4.126,4.126,0,0,0-.617-.233,5.475,5.475,0,0,0-.748-.164c-.054-.008-.11-.006-.164-.013V24.736H17.7v1.441a5.025,5.025,0,0,0-.733.152,3.447,3.447,0,0,0-1.2.6,2.923,2.923,0,0,0-.81,1.017,3.572,3.572,0,0,0-.092,2.632,2.99,2.99,0,0,0,.545.875,3.575,3.575,0,0,0,.761.634,7.883,7.883,0,0,0,.879.475c.3.139.595.27.879.4a5.848,5.848,0,0,1,.761.4,2.091,2.091,0,0,1,.545.488,1.057,1.057,0,0,1,.209.658,1.463,1.463,0,0,1-.121.6,1.221,1.221,0,0,1-.353.453,1.655,1.655,0,0,1-.56.283,2.583,2.583,0,0,1-.75.1,3.923,3.923,0,0,1-1.119-.144,5.132,5.132,0,0,1-.832-.319,5.506,5.506,0,0,1-.57-.318.729.729,0,0,0-.344-.144.253.253,0,0,0-.152.047.315.315,0,0,0-.1.162,1.35,1.35,0,0,0-.057.3c-.013.123-.018.273-.018.453a3.087,3.087,0,0,0,.047.615.642.642,0,0,0,.162.326,1.855,1.855,0,0,0,.369.259,3.811,3.811,0,0,0,.64.28,6.521,6.521,0,0,0,.883.229,5.873,5.873,0,0,0,1.084.093c.017,0,.032,0,.05,0v1.342h1.37V37.6c.065-.017.135-.025.2-.043a3.923,3.923,0,0,0,1.324-.674,3.224,3.224,0,0,0,.9-1.118,3.483,3.483,0,0,0,.329-1.558,3.042,3.042,0,0,0-.206-1.176Z" transform="translate(2.757 5.585)" fill="#c7cbe9"/>
    </g>
  </g>
  <path id="Icon_awesome-cart-arrow-down" data-name="Icon awesome-cart-arrow-down" d="M40.227,25.5H16.863l.522,2.55H38.778a1.913,1.913,0,0,1,1.865,2.337l-.44,1.935a4.465,4.465,0,1,1-5.069.829H18.425a4.463,4.463,0,1,1-5.344-.683L7.483,5.1H1.913A1.913,1.913,0,0,1,0,3.188V1.913A1.913,1.913,0,0,1,1.913,0h8.172a1.913,1.913,0,0,1,1.874,1.529L12.689,5.1H43.995A1.913,1.913,0,0,1,45.86,7.438L42.092,24.016A1.913,1.913,0,0,1,40.227,25.5Zm-8.1-10.2H28.693V10.521a.956.956,0,0,0-.956-.956H25.823a.956.956,0,0,0-.956.956V15.3H21.437a.956.956,0,0,0-.676,1.633L26.1,22.278a.957.957,0,0,0,1.353,0L32.8,16.935A.956.956,0,0,0,32.122,15.3Z" transform="translate(8.159 21.79)" fill="#c7cbe9"/>
  <rect id="사각형_2868" data-name="사각형 2868" width="64" height="2.28" rx="1.14" transform="translate(3 62.597)" fill="#c7cbe9"/>
</svg>
