<svg width="66" height="40" viewBox="0 0 66 40" fill="none" xmlns="http://www.w3.org/2000/svg">
<g clip-path="url(#clip0_7027_8645)">
<path d="M5.62102 14.7202C2.07417 19.8584 0 26.0699 0 32.7605H13.0621C13.0621 28.4225 14.3722 25.8757 16.6217 22.5082L5.62102 14.7202Z" fill="#D9DDE4"/>
<path d="M15.4447 5.35536C17.3588 4.19728 19.4039 3.22932 21.5529 2.47803L26.3993 14.9078C24.9786 15.4255 24.3306 15.602 23.0683 16.3879C21.806 17.1738 21.952 17.1321 21.952 17.1321C19.9637 18.5176 17.859 20.853 17.0296 21.7917L6.01172 14.0054C8.31916 10.8398 11.1969 8.10627 14.4969 5.95118L15.4447 5.35536Z" fill="#E9835B"/>
<path d="M60.2227 14.7202C63.7696 19.8584 65.8438 26.0699 65.8438 32.7605H52.7816C52.7816 28.4225 51.4716 25.8757 49.222 22.5082L60.2227 14.7202Z" fill="#D9DDE4"/>
<path d="M50.3971 5.35536C48.483 4.19728 46.4378 3.22932 44.2889 2.47803L39.4425 14.9078C40.8632 15.4255 41.5112 15.602 42.7735 16.3879C44.0358 17.1738 43.8898 17.1321 43.8898 17.1321C45.8781 18.5176 47.9828 20.853 48.8122 21.7917L59.8301 14.0054C57.5226 10.8398 54.6449 8.10627 51.3449 5.95118L50.3971 5.35536Z" fill="#D9DDE4"/>
<path d="M43.3259 2.34194C40.3568 1.42616 36.2867 0.760254 33.0191 0.760254C29.5493 0.760254 25.4644 1.31627 22.3359 2.34397L27.129 14.8049C29.2168 14.117 30.7999 14.1556 33.1164 14.1556C35.2307 14.1556 36.6042 14.2278 38.532 14.8049L43.3259 2.34194Z" fill="#D9DDE4"/>
<path d="M37.788 29.877L37.7888 29.8765C39.0968 32.142 38.3211 35.0394 36.0557 36.3473L35.6023 36.609C33.3369 37.9168 30.439 37.1404 29.1311 34.8751L29.1302 34.8755L20.8293 10.4995L37.788 29.877ZM32.7072 31.0671C32.1095 31.4121 31.9046 32.1768 32.2496 32.7746C32.5948 33.3724 33.3595 33.5772 33.9572 33.2321C34.5547 32.887 34.759 32.1229 34.4139 31.5251C34.0687 30.9274 33.3048 30.7222 32.7072 31.0671Z" fill="#6B7684"/>
</g>
<defs>
<clipPath id="clip0_7027_8645">
<rect width="66" height="38.4794" fill="white" transform="translate(0 0.760254)"/>
</clipPath>
</defs>
</svg>
