<svg width="67" height="40" viewBox="0 0 67 40" fill="none" xmlns="http://www.w3.org/2000/svg">
<g clip-path="url(#clip0_7027_8599)">
<path d="M6.12102 14.7202C2.57417 19.8584 0.5 26.0699 0.5 32.7605H13.5621C13.5621 28.4225 14.8722 25.8757 17.1217 22.5082L6.12102 14.7202Z" fill="#D9DDE4"/>
<path d="M15.9447 5.35536C17.8588 4.19728 19.9039 3.22932 22.0529 2.47803L26.8993 14.9078C25.4786 15.4255 24.8306 15.602 23.5683 16.3879C22.306 17.1738 22.452 17.1321 22.452 17.1321C20.4637 18.5176 18.359 20.853 17.5296 21.7917L6.51172 14.0054C8.81916 10.8398 11.6969 8.10627 14.9969 5.95118L15.9447 5.35536Z" fill="#D9DDE4"/>
<path d="M60.7227 14.7202C64.2696 19.8584 66.3438 26.0699 66.3438 32.7605H53.2816C53.2816 28.4225 51.9716 25.8757 49.722 22.5082L60.7227 14.7202Z" fill="#D9DDE4"/>
<path d="M50.8971 5.35536C48.983 4.19728 46.9378 3.22932 44.7889 2.47803L39.9425 14.9078C41.3632 15.4255 42.0112 15.602 43.2735 16.3879C44.5358 17.1738 44.3898 17.1321 44.3898 17.1321C46.3781 18.5176 48.4828 20.853 49.3122 21.7917L60.3301 14.0054C58.0226 10.8398 55.1449 8.10627 51.8449 5.95118L50.8971 5.35536Z" fill="#F8D54E"/>
<path d="M43.8259 2.34194C40.8568 1.42616 36.7867 0.760254 33.5191 0.760254C30.0493 0.760254 25.9644 1.31627 22.8359 2.34397L27.629 14.8049C29.7168 14.117 31.2999 14.1556 33.6164 14.1556C35.7307 14.1556 37.1042 14.2278 39.032 14.8049L43.8259 2.34194Z" fill="#D9DDE4"/>
<path d="M37.4197 35.9309L37.4204 35.9316C35.5707 37.7814 32.5713 37.782 30.7215 35.9323L30.3514 35.5622C28.5019 33.7124 28.5018 30.7123 30.3514 28.8626L30.3507 28.8619L51.7477 14.5348L37.4197 35.9309ZM34.9552 31.3313C34.4672 30.8433 33.6756 30.8432 33.1875 31.3313C32.6993 31.8194 32.6994 32.611 33.1875 33.099C33.6755 33.5869 34.4665 33.5864 34.9545 33.0984C35.4425 32.6103 35.443 31.8193 34.9552 31.3313Z" fill="#6B7684"/>
</g>
<defs>
<clipPath id="clip0_7027_8599">
<rect width="66" height="38.4794" fill="white" transform="translate(0.5 0.760254)"/>
</clipPath>
</defs>
</svg>
